<svg width="144" height="20" viewBox="0 0 144 20" fill="none" xmlns="http://www.w3.org/2000/svg">
<g clip-path="url(#clip0)">
<path d="M98.4394 7.58224C98.4394 5.24672 97.0049 3.55371 94.2554 3.55371H85.3691V15.656H88.2909V11.5234H91.7487L95.1372 15.6548H98.4298V15.388L95.1372 11.454C97.1915 11.0305 98.4394 9.52172 98.4394 7.58224ZM93.9275 9.07903H88.2909V6.06032H93.9275C94.9696 6.06032 95.6397 6.61549 95.6397 7.57386C95.6385 8.54779 94.9924 9.07903 93.9275 9.07903Z" fill="white"/>
<path d="M142.577 3.55371H139.845V8.14219H132.48V3.55371H129.524V15.656H132.48V10.8905H139.845V15.656H142.577V3.55371Z" fill="white"/>
<path d="M77.5481 3.55371L74.2985 13.7369H74.1202L70.8526 3.55371H65.6492V15.656H68.4322V5.71454H68.6057L71.8553 15.656H76.3385L79.606 5.71454H79.7783V15.656H82.6487V3.55371H77.5481Z" fill="white"/>
<path d="M45.7506 8.50609C44.7181 8.39841 42.793 8.22253 41.7604 8.11604C40.7446 8.01195 40.1571 7.71043 40.1571 7.03921C40.1571 6.39551 40.7805 5.85231 43.2955 5.85231C45.5149 5.85231 47.5633 6.32731 49.3508 7.18997V4.48235C47.5633 3.62926 45.5987 3.21289 43.1447 3.21289C39.7025 3.21289 37.3191 4.65225 37.3191 7.08588C37.3191 9.1462 38.7178 10.2709 41.5235 10.5772C42.5393 10.6885 44.2658 10.8404 45.4707 10.9397C46.7832 11.0486 47.1732 11.4494 47.1732 12.0477C47.1732 12.8684 46.2532 13.3781 43.9224 13.3781C41.5498 13.3781 39.1485 12.6028 37.4399 11.5176V14.3042C38.8123 15.2219 41.1885 16.0008 43.8351 16.0008C47.5956 16.0008 50.0089 14.5507 50.0089 11.9543C50.0089 10.0005 48.7203 8.81478 45.7506 8.50609Z" fill="white"/>
<path d="M51.9219 3.55371V15.656H63.2106V13.1829H54.7049V10.7278H63.0658V8.2738H54.7049V6.02562H63.2106V3.55371H51.9219Z" fill="white"/>
<path d="M123.485 8.50585C122.453 8.39816 120.528 8.22228 119.495 8.1158C118.479 8.0117 117.892 7.71019 117.892 7.03897C117.892 6.39527 118.515 5.85207 121.03 5.85207C123.25 5.85207 125.298 6.32707 127.085 7.18972V4.48211C125.297 3.63022 123.333 3.21265 120.879 3.21265C117.437 3.21265 115.054 4.652 115.054 7.08563C115.054 9.14596 116.452 10.2706 119.258 10.5769C120.274 10.6882 122 10.8402 123.205 10.9395C124.518 11.0484 124.908 11.4492 124.908 12.0474C124.908 12.8682 123.988 13.3779 121.657 13.3779C119.284 13.3779 116.883 12.6026 115.175 11.5174V14.304C116.547 15.2217 118.923 16.0006 121.57 16.0006C125.33 16.0006 127.744 14.5504 127.744 11.9541C127.744 10.0002 126.456 8.81454 123.485 8.50585Z" fill="white"/>
<path d="M110.143 3.55371V9.74905C110.143 12.0965 108.717 13.3851 106.573 13.3851C104.417 13.3851 103.003 12.1157 103.003 9.71316V3.55371H100.098V9.43797C100.098 13.8326 102.844 16.0018 106.615 16.0018C110.244 16.0018 113.046 13.9176 113.046 9.58154V3.55371H110.143Z" fill="white"/>
<path d="M27.3083 9.53475C27.3083 10.1246 27.0128 10.2155 26.2638 10.2155C25.4693 10.2155 25.3329 10.0791 25.242 9.48928C25.0829 7.96856 24.0611 6.67398 22.337 6.53878C21.7926 6.49331 21.6562 6.28871 21.6562 5.60792C21.6562 4.97259 21.7471 4.67706 22.246 4.67706C25.242 4.67706 27.3083 7.08317 27.3083 9.53475ZM31.6671 9.53475C31.6671 4.97259 28.5802 0.15918 21.4516 0.15918H7.28174C6.99578 0.15918 6.8187 0.308739 6.8187 0.56957C6.8187 0.711951 6.92519 0.839973 7.0221 0.915351C7.54137 1.32335 8.29754 1.77203 9.31215 2.27933C10.2957 2.77108 11.0554 3.09054 11.8271 3.40402C12.1454 3.53324 12.2722 3.67442 12.2722 3.86346C12.2722 4.10994 12.0987 4.26667 11.7398 4.26667H0.492947C0.160327 4.26667 0 4.48084 0 4.6974C0 4.88166 0.0646096 5.02883 0.221348 5.19155C1.13426 6.14394 2.58558 7.29256 4.70693 8.61944C6.56625 9.78242 8.86348 11.0375 10.6857 11.9109C10.992 12.0581 11.0985 12.228 11.0913 12.4039C11.0829 12.6073 10.9226 12.7796 10.5685 12.7796H5.41285C5.11971 12.7796 4.95699 12.9339 4.95699 13.1708C4.95699 13.3024 5.06348 13.4699 5.20227 13.5968C6.37481 14.6604 8.24969 15.8234 10.7479 16.8871C14.0801 18.3061 17.4721 19.1592 21.2817 19.1592C28.5012 19.1592 31.6671 13.7571 31.6671 9.53475ZM22.246 16.0041C18.7045 16.0041 15.754 13.1206 15.754 9.53475C15.754 5.99319 18.7045 3.15635 22.246 3.15635C25.8785 3.15635 28.7154 5.99438 28.7154 9.53475C28.7154 13.1206 25.8785 16.0041 22.246 16.0041Z" fill="#FF622D"/>
</g>
<defs>
<clipPath id="clip0">
<rect width="143.231" height="19" fill="white" transform="translate(0 0.15918)"/>
</clipPath>
</defs>
</svg>
