<svg width="918" height="42" viewBox="0 0 918 42" fill="none" xmlns="http://www.w3.org/2000/svg">
<path d="M76.7522 14.1782L73.9582 14.1855V28.5218H86.7715C88.173 27.9271 88.9237 26.8991 89.2138 25.6988H76.7449L76.7522 14.1782ZM97.6611 17.043H108.349C109.834 16.7492 110.94 15.4384 111.25 14.171H94.7583C95.0665 15.4384 96.1889 16.7492 97.6611 17.043ZM63.0468 17.0031C64.5318 16.5716 65.7828 15.4384 66.0874 14.1819H50.4039V22.6528H63.2408V25.6263L53.1726 25.6353C51.5933 26.0741 50.2589 27.133 49.5898 28.5327L50.4039 28.5182H66.0004V19.837H53.1726V17.0031H63.0468ZM95.1898 28.5182H97.9693V22.747H108.088V28.5182H110.866V19.8624L95.1898 19.8479V28.5182ZM28.8024 17.0339H39.4889C40.9757 16.7384 42.0799 15.4275 42.3899 14.1601H25.8996C26.2078 15.4275 27.3283 16.7384 28.8024 17.0339ZM1 14.1927C1.32092 15.4474 2.40698 16.7257 3.89555 17.0484H8.39391L8.62236 17.1391V28.4892H11.4327V17.1391L11.6865 17.0484H16.1903C17.6934 16.6604 18.7559 15.4474 19.0732 14.1927V14.1655H1V14.1927ZM28.8024 28.52H39.4889C40.9757 28.2227 42.0799 26.9154 42.3899 25.6462H25.8996C26.2078 26.9154 27.3283 28.2227 28.8024 28.52ZM28.8024 22.6999H39.4889C40.9757 22.4062 42.0799 21.0953 42.3899 19.8279H25.8996C26.2078 21.0953 27.3283 22.4062 28.8024 22.6999Z" fill="#898D9A"/>
<path d="M197.966 12.2036L190.369 23.4523C189.579 24.6427 188.193 25.3623 186.743 25.3623C184.381 25.3623 182.425 23.4214 182.425 21.0793C182.425 18.7028 184.381 16.7655 186.759 16.7655C186.995 16.7353 187.311 16.7022 187.532 16.7022C189.172 16.7022 190.842 17.3902 191.977 18.5475L194.246 15.1092C192.481 13.2977 189.865 12.1382 187.247 12.1382C182.361 12.1382 177.886 16.1702 177.886 21.0463C177.886 25.8935 181.889 29.8616 186.777 29.8616C189.14 29.8616 191.504 28.8617 193.143 27.204H198.376L198.407 29.8616H202.948V12.2036H197.966H197.966ZM195.887 23.3279L198.376 19.8616L198.407 23.3279H195.888H195.887Z" fill="#898D9A"/>
<path d="M211.648 29.8611H207.109V16.3265H203.579V12.2326L215.177 12.2031V16.3265H211.648V29.8611V29.8611Z" fill="#898D9A"/>
<path d="M230.31 12.2034L225.77 12.2046L225.739 18.7972H220.379L220.345 12.2031H215.809V29.8611H220.379V22.8904H225.77V29.8611H230.31V12.2031L230.31 12.2034Z" fill="#898D9A"/>
<path d="M266.687 12.2031V20.4204L260.446 12.2031L256.314 12.2319L256.283 18.6721C255.243 14.9211 251.681 12.2031 247.709 12.2031C242.824 12.2031 238.819 16.1698 238.819 21.0458C238.819 22.6114 239.292 24.2016 240.047 25.5789H235.55V12.2031H230.924V29.8611H241.499V27.3904C243.17 28.923 245.439 29.8611 247.709 29.8611C251.681 29.8611 255.181 27.2035 256.283 23.4518L256.314 29.8611H260.887V21.2679L267.094 29.8611H271.223L271.229 12.2031H266.687H266.687ZM247.709 25.548C245.219 25.548 243.17 23.5481 243.17 21.0458C243.17 18.5779 245.219 16.5472 247.709 16.5472C250.232 16.5472 252.281 18.5779 252.281 21.0458C252.281 23.5481 250.232 25.548 247.709 25.548Z" fill="#898D9A"/>
<path d="M172.396 25.5808V23.1094H177.268L177.259 18.7984H172.396V16.5491H177.766L177.757 12.2051L167.417 12.2338V18.2981C166.345 14.9856 163.255 12.5465 159.725 12.2338L151.875 12.2051V29.8624H159.757C163.255 29.5511 166.345 27.1134 167.417 23.8311V29.8624H177.766L177.757 25.5808H172.396H172.396ZM162.404 23.7363C162.122 24.9252 160.986 25.767 159.757 25.7987H156.857V16.3277H159.757C160.986 16.3277 162.122 17.2069 162.404 18.4239C162.689 19.2369 162.847 20.1743 162.847 21.0477C162.847 21.9564 162.689 22.8923 162.404 23.7363Z" fill="#898D9A"/>
<path d="M329.418 30.3341C327.832 30.2488 326.648 29.5961 325.956 28.4249C325.491 27.6387 325.35 26.6047 325.562 25.5481C325.798 24.3774 326.597 23.3224 327.824 22.5637C328.529 22.1273 329.133 21.8565 330.362 21.4246C330.671 21.316 330.937 21.216 330.954 21.2021C330.979 21.1826 330.983 21.1133 330.97 20.8885C330.935 20.249 331.042 19.2526 331.222 18.5336C331.526 17.3236 332.111 16.3475 332.887 15.7554C333.444 15.3299 334.174 15.0101 334.901 14.8729C335.302 14.7974 335.975 14.7976 336.352 14.8736C337.971 15.1995 338.879 16.4472 338.522 17.8529C338.446 18.1493 338.208 18.6352 338.007 18.9039C337.49 19.5925 336.714 20.2048 335.617 20.7874C335.479 20.8608 335.028 21.0826 334.614 21.2807C334.201 21.4785 333.849 21.6535 333.833 21.6698C333.81 21.6928 333.816 21.76 333.861 21.986C334.066 23.0307 334.412 23.9134 335.003 24.9004C335.238 25.2933 335.562 25.7887 335.599 25.8117C335.653 25.8447 335.871 25.4916 336.014 25.1422C336.19 24.7098 336.291 24.1379 336.241 23.8539C336.205 23.6504 336.094 23.4356 335.952 23.2969C335.887 23.2327 335.833 23.172 335.833 23.162C335.833 23.1523 336.383 23.1467 337.057 23.1502L338.281 23.1565L338.274 23.3117C338.265 23.524 338.186 23.9766 338.103 24.2988C337.869 25.2047 337.428 25.9795 336.665 26.8257C336.575 26.9255 336.501 27.0233 336.501 27.0433C336.501 27.0633 336.628 27.2021 336.782 27.3518C337.746 28.2863 339.454 29.364 340.844 29.9152C340.979 29.9689 341.09 30.0236 341.089 30.0366C341.089 30.0524 340.286 30.0626 338.743 30.0668L336.398 30.0728L336.265 29.9978C335.992 29.8446 335.389 29.3571 334.809 28.8215C334.687 28.708 334.57 28.6153 334.551 28.6153C334.532 28.6153 334.395 28.6945 334.248 28.7915C333.496 29.288 332.596 29.7341 331.835 29.988C330.969 30.277 330.254 30.3792 329.418 30.3344V30.3341ZM331.393 28.3024C331.744 28.2398 332.175 28.1124 332.571 27.9541C332.97 27.7951 333.464 27.552 333.482 27.5059C333.489 27.4878 333.398 27.3351 333.279 27.1663C332.734 26.3889 332.151 25.2956 331.759 24.3151C331.615 23.9536 331.345 23.153 331.294 22.9335C331.277 22.8635 331.248 22.8001 331.228 22.7924C331.173 22.7715 330.725 23.0102 330.338 23.2669C328.963 24.1788 328.303 25.2921 328.45 26.4554C328.515 26.9724 328.678 27.3492 328.976 27.6675C329.527 28.2556 330.387 28.4818 331.393 28.3024ZM333.728 20.2134C334.237 19.9154 335.044 19.1917 335.496 18.6291C336.074 17.9092 336.382 17.2373 336.382 16.6924C336.382 16.3809 336.338 16.2415 336.194 16.0973C336.05 15.9541 335.888 15.8948 335.641 15.8946C334.908 15.8946 334.115 16.765 333.77 17.9492C333.595 18.5461 333.553 18.8674 333.552 19.5967C333.551 20.1537 333.56 20.2776 333.602 20.2776C333.611 20.2776 333.668 20.2487 333.728 20.2134ZM345.854 30.3202C344.646 30.1986 343.85 30.018 342.951 29.6623C341.729 29.1778 340.966 28.5778 340.321 27.5947C340.128 27.3004 339.819 26.6825 339.694 26.341C339.135 24.8195 339.012 22.904 339.345 20.9057C339.682 18.8832 340.451 16.934 341.511 15.4104C342.198 14.4224 343.221 13.3819 344.277 12.5961C346.021 11.2989 348.029 10.5016 350.259 10.2212C350.935 10.1361 351.314 10.1143 352.113 10.1148C353.322 10.1155 354.242 10.2075 355.458 10.449C356.233 10.6034 357.469 10.9368 357.493 10.9984C357.505 11.0295 356.722 13.5381 356.69 13.5718C356.68 13.5822 356.559 13.502 356.423 13.3928C355.324 12.5164 354.184 11.9829 353.032 11.8055C352.664 11.7488 351.973 11.7481 351.612 11.8041C349.997 12.0542 348.499 13.0862 347.17 14.8652C346.738 15.4432 346.262 16.2177 345.892 16.9449C345.39 17.9306 345.045 18.8019 344.697 19.967C343.586 23.6739 343.53 26.2639 344.529 27.6659C344.941 28.2436 345.543 28.6115 346.307 28.7522C346.745 28.8331 347.809 28.784 347.915 28.6783C347.932 28.6615 348.452 27.0359 349.07 25.0657C350.085 21.8295 350.195 21.4645 350.207 21.2811C350.222 21.0347 350.176 20.8146 350.065 20.6026C349.965 20.4098 349.699 20.1483 349.479 20.0267C349.385 19.9742 349.307 19.9231 349.307 19.9133C349.307 19.9035 351.01 19.8954 353.093 19.8954C355.175 19.8954 356.879 19.9035 356.879 19.9133C356.879 19.9231 356.787 19.9735 356.674 20.0249C356.084 20.2945 355.657 20.6986 355.403 21.2272C355.348 21.3416 354.871 22.8219 354.156 25.1015L352.997 28.7908L352.663 28.9512C351.299 29.6056 349.631 30.0768 347.967 30.2779C347.662 30.3151 346.11 30.346 345.854 30.3202H345.854ZM311 30.0505C310.993 30.0384 311.043 29.9959 311.112 29.9561C311.524 29.7193 311.985 29.2278 312.181 28.8182C312.238 28.6997 317.432 12.1572 317.547 11.7297C317.567 11.6549 317.584 11.4968 317.584 11.3787C317.586 11.0179 317.474 10.7578 317.21 10.5081C317.138 10.44 317.079 10.3742 317.079 10.3619C317.079 10.3291 326.149 10.3319 326.564 10.3649C327.465 10.4363 328.367 10.6757 329.056 11.0263C330.233 11.6249 330.938 12.5334 331.155 13.7313C331.215 14.0646 331.227 14.8062 331.177 15.1651C330.976 16.6283 330.313 18.1802 329.41 19.3031C327.948 21.1219 325.556 22.2849 322.621 22.6048C321.691 22.7062 320.519 22.7317 319.689 22.6685C319.449 22.6501 319.247 22.6401 319.241 22.6462C319.212 22.6759 317.339 28.6841 317.318 28.8182C317.252 29.2318 317.465 29.6967 317.832 29.9403C317.904 29.9885 317.957 30.038 317.95 30.0501C317.931 30.08 311.019 30.0803 311 30.0503L311 30.0505ZM321.295 21.1268C321.977 21.0059 322.579 20.7534 323.159 20.345C323.441 20.1467 324.021 19.5681 324.26 19.2461C324.857 18.4411 325.297 17.4912 325.652 16.2401C325.878 15.4427 325.974 14.8353 325.974 14.2092C325.974 13.7266 325.93 13.4384 325.809 13.115C325.629 12.6352 325.262 12.256 324.796 12.0677C324.396 11.9059 324.054 11.8634 323.232 11.8729L322.612 11.8799L321.171 16.4669C320.379 18.9899 319.736 21.0663 319.741 21.0812C319.746 21.0961 319.846 21.1212 319.962 21.137C320.078 21.1528 320.189 21.1695 320.209 21.1744C320.299 21.1965 321.102 21.1614 321.295 21.127V21.1268Z" fill="#898D9A"/>
<path fill-rule="evenodd" clip-rule="evenodd" d="M467.468 20.6394C467.468 20.6394 466.268 19.8979 465.527 19.6109C465.527 19.6109 463.231 18.5471 462.776 18.0409C462.776 18.0409 461.881 17.1978 462.405 16.2186C462.405 16.2186 462.624 15.5778 463.57 15.5778C463.57 15.5778 464.801 15.6455 464.801 16.6571V18.084H469.211L469.204 15.9824C469.204 15.9824 469.543 12.5409 464.008 12.3893C464.008 12.3893 459.655 12.1032 458.407 14.4478C458.407 14.4478 457.917 14.9709 457.917 16.7925V18.1086C457.917 18.1086 457.867 19.6271 458.642 20.6056C458.642 20.6056 459.08 21.2471 460.161 21.9548C460.161 21.9548 462.354 23.1356 463.67 23.8118C463.67 23.8118 464.998 24.5702 464.824 25.7772C464.824 25.7772 464.715 27.0164 463.432 26.9656C463.432 26.9656 462.259 26.9133 462.259 25.6979V24.2718H457.559V26.3433C457.559 26.3433 457.427 30.3049 463.467 30.3049C463.467 30.3049 469.238 30.4218 469.507 26.2395V24.5525C469.506 24.5525 469.711 21.9894 467.468 20.6394ZM444.886 12.8824L443.409 22.1379H443.063L441.653 12.9655H434.285L433.916 29.7264H438.278L438.33 17.0978H438.673L440.986 29.7241H445.575L447.859 17.1025H448.163L448.268 29.7264H452.654L452.181 12.8824H444.886ZM418.918 12.9524L416.015 29.7072H420.712L422.431 16.7163H422.817L424.536 29.7072H429.231L426.329 12.9524H418.918ZM517.459 20.4086V22.8802H518.663V25.5333C518.663 26.8302 517.555 26.8541 517.555 26.8541C516.207 26.8541 516.258 25.6218 516.258 25.6218V16.4448C516.258 15.4994 517.454 15.4486 517.454 15.4486C518.602 15.4486 518.61 16.5763 518.61 16.5763V17.9717H523.031C523.176 15.2478 522.633 14.5886 522.633 14.5886C521.536 12.1255 517.387 12.2601 517.387 12.2601C511.01 12.2601 511.718 17.1525 511.718 17.1525V26.0256C511.855 30.6141 518.138 30.148 518.244 30.1441C521.039 29.8349 521.883 28.9464 521.883 28.9464C522.66 28.3695 522.86 27.5703 522.86 27.5703C523.082 27.1049 523.137 25.6218 523.137 25.6218V20.4086H517.459ZM502.803 23.1356H502.61L498.123 12.887H492.755V29.728H497.124L496.862 19.4809H497.058L501.706 29.728H506.912V12.8855H502.487L502.803 23.1356ZM482.089 25.5318C482.089 25.5318 482.152 26.9141 480.871 26.9141C480.871 26.9141 479.523 26.9864 479.523 25.5664L479.509 12.897H474.717V25.4656C474.717 25.4656 474.225 30.2226 480.938 30.2226C480.938 30.2226 486.772 30.2918 486.772 25.6841V12.8978H482.089V25.5318ZM409.781 20.6394C409.781 20.6394 408.584 19.8979 407.841 19.6117C407.841 19.6117 405.548 18.5486 405.092 18.0417C405.092 18.0417 404.198 17.1971 404.722 16.2201C404.722 16.2201 404.941 15.5794 405.885 15.5794C405.885 15.5794 407.117 15.6463 407.117 16.6578V18.0848H411.529L411.521 15.9824C411.521 15.9824 411.858 12.5409 406.325 12.3901C406.325 12.3901 405.908 12.3632 405.297 12.3939C405.297 12.3939 401.945 12.5739 400.747 14.4124C400.74 14.4263 400.73 14.4363 400.723 14.4486C400.723 14.4486 400.234 14.9709 400.234 16.7932V18.1094C400.234 18.1094 400.183 19.6279 400.959 20.6063C400.959 20.6063 401.398 21.2479 402.478 21.9556C402.478 21.9556 404.67 23.1364 405.986 23.8125C405.986 23.8125 407.316 24.5695 407.14 25.7779C407.14 25.7779 407.031 27.0172 405.749 26.9664C405.749 26.9664 404.576 26.9141 404.576 25.6987V24.2718H399.875V26.3449C399.875 26.3449 399.744 30.3064 405.783 30.3064C405.783 30.3064 411.552 30.4234 411.824 26.241V24.5556C411.824 24.5541 412.025 21.9894 409.781 20.6394Z" fill="#898D9A"/>
<path fill-rule="evenodd" clip-rule="evenodd" d="M616.032 14.5361C617.171 13.9159 618.308 13.6052 619.757 13.6052C623.275 13.6052 625.965 16.7098 625.965 20.9515C625.965 26.3321 622.654 29.7468 617.17 29.7468C615.204 29.7468 613.237 29.4361 611.375 29.0221C611.479 26.8489 611.583 13.6052 611.375 11.1219C611.17 9.8797 610.858 9.36286 609.928 9.15612L609.204 9.05275V8.43194L616.136 7.19092C616.032 8.2252 616.032 11.2253 616.032 14.5361ZM616.135 28.5052C616.445 28.608 616.963 28.608 617.377 28.608C619.55 28.608 621.102 25.4012 621.103 21.261C621.103 17.9508 619.861 15.2609 617.584 15.2609C617.066 15.2609 616.652 15.3642 616.031 15.5716C615.929 20.9515 616.031 27.0569 616.135 28.5052ZM564.917 7.60439H583.128L583.232 13.7091L582.197 14.0198C581.163 10.9152 579.715 9.15672 576.92 9.15672H573.299C573.195 11.1225 573.092 14.4333 573.092 17.9514L575.575 17.8475C577.127 17.8475 577.85 16.6064 578.161 14.8474H579.093V22.1914H578.161C577.851 20.4329 577.127 19.1913 575.575 19.1913L573.091 19.0879C573.091 21.7773 573.195 23.9504 573.299 25.296C573.505 27.2624 574.023 28.1933 575.368 28.2961L576.61 28.504V29.3316H564.917V28.504L565.952 28.2961C567.297 28.1939 567.814 27.2624 568.021 25.296C568.228 22.0898 568.332 15.3636 568.021 11.6388C567.815 9.67297 567.297 8.84542 565.952 8.63868L564.917 8.53531V7.60439ZM596.787 21.5729C596.787 16.9172 594.201 13.399 589.027 13.399C583.853 13.399 580.956 17.1239 580.956 21.5729C580.956 26.2293 583.543 29.7481 588.716 29.7481C593.89 29.7481 596.787 26.022 596.787 21.5729ZM585.819 21.5729C585.819 17.538 586.44 14.4339 588.716 14.4339C590.89 14.4339 591.924 17.6413 591.924 21.5729C591.924 25.6079 591.302 28.712 588.924 28.712C586.854 28.712 585.819 25.5046 585.819 21.5729ZM635.277 13.399C630 13.399 627.31 17.4346 627.31 21.6769C627.31 26.4367 630.621 29.7475 635.277 29.7481C638.174 29.7481 640.45 28.2985 641.485 26.8501L641.072 26.3333C640.036 27.0581 639.209 27.471 637.553 27.471C633.827 27.471 631.965 24.677 632.069 20.8488H641.692C641.692 16.6071 639.622 13.399 635.277 13.399ZM636.932 19.6071L632.069 19.7111C632.172 17.3306 633.104 14.4339 634.863 14.4339C636.621 14.4339 636.932 17.538 636.932 19.6071ZM649.247 13.399C651.11 13.399 652.765 13.7091 654.007 14.2272L654.112 18.2622L653.389 18.4689C652.456 15.6749 651.214 14.5367 649.353 14.5367C648.111 14.5367 647.179 15.4682 647.179 16.8132C647.179 18.1588 648.212 18.883 651.11 20.0206C653.8 21.0561 654.939 22.2971 654.939 24.4703C654.939 27.6771 652.352 29.7475 648.316 29.7475C646.35 29.7475 644.074 29.3328 642.833 28.8159L642.729 24.2635L643.453 24.0556C644.591 27.1602 646.041 28.2979 648.006 28.2979C649.661 28.2979 650.593 27.1602 650.593 25.9186C650.593 24.677 649.868 23.9522 647.282 23.0219C644.796 22.1938 643.039 21.0561 643.039 18.3655C643.039 15.6749 645.42 13.399 649.247 13.399ZM603.72 17.0211C605.375 13.2957 608.479 12.7794 610.238 13.8131L608.582 18.056C606.513 16.711 604.236 17.3312 603.72 18.056C603.616 20.5393 603.616 24.4709 603.822 26.4373C603.926 27.6777 604.237 28.2985 605.271 28.4025L606.513 28.5064V29.334H596.891V28.5064L597.615 28.4025C598.547 28.2985 598.96 27.6777 599.064 26.4373C599.167 24.2647 599.271 19.9184 599.064 17.4352C598.96 16.0896 598.547 15.5728 597.615 15.4688L596.891 15.3654V14.7446L603.822 13.3996L603.72 17.0211Z" fill="#898D9A"/>
<path fill-rule="evenodd" clip-rule="evenodd" d="M706.704 9.43408C706.705 9.44058 706.708 9.44707 706.71 9.45356L706.71 9.45358C706.714 9.46332 706.717 9.47306 706.718 9.4828C706.72 9.51324 706.72 9.54166 706.72 9.5721V10.7778L706.72 10.7953C706.721 10.8617 706.721 10.894 706.704 10.9099C706.689 10.925 706.659 10.9252 706.6 10.9256L706.569 10.9259H705.93H696.222C696.189 10.9259 696.161 10.9265 696.138 10.927C696.067 10.9284 696.033 10.9291 696.016 10.9122C696.001 10.8962 696.001 10.8642 696.002 10.8019C696.003 10.7782 696.003 10.7501 696.003 10.7169V9.43408H706.704ZM743.301 18.6613L743.291 18.6626C743.283 18.6636 743.277 18.6644 743.274 18.6674C743.263 18.6856 743.253 18.7039 743.244 18.7242C743.203 18.8356 743.161 18.947 743.12 19.0589L743.12 19.0609L743.119 19.0621C743.092 19.1346 743.066 19.2073 743.038 19.2804C743.026 19.3169 743.011 19.3514 742.994 19.3879C742.982 19.3891 742.972 19.3909 742.961 19.3927L742.949 19.3947L742.94 19.3961C742.913 19.3974 742.886 19.397 742.86 19.3965C742.847 19.3963 742.833 19.3961 742.82 19.3961H734.676L734.658 19.3962L734.64 19.3966C734.594 19.3976 734.548 19.3987 734.5 19.3859C734.485 19.3514 734.47 19.3149 734.458 19.2804C734.388 19.0997 734.321 18.9191 734.254 18.7384C734.249 18.7232 734.242 18.7087 734.235 18.694L734.235 18.694L734.235 18.6937C734.231 18.6851 734.226 18.6764 734.223 18.6674C734.22 18.6654 734.216 18.6633 734.212 18.6633C734.204 18.6613 734.195 18.6674 734.195 18.6775L734.195 18.6832C734.193 18.7115 734.191 18.7383 734.191 18.7668V19.2418C734.191 19.2763 734.191 19.3108 734.189 19.3453C734.189 19.3758 734.172 19.394 734.143 19.3961L734.132 19.3963L734.116 19.3971L734.109 19.3975L734.102 19.3978L734.09 19.3981H733.998H729.739C729.691 19.3981 729.642 19.3981 729.592 19.3961C729.562 19.3961 729.546 19.3778 729.546 19.3453C729.546 19.3298 729.545 19.3143 729.545 19.2991C729.544 19.2844 729.544 19.27 729.544 19.256V18.0483C729.544 18.0311 729.544 18.0138 729.545 17.9966C729.545 17.9793 729.546 17.9621 729.546 17.9448C729.546 17.9286 729.562 17.9103 729.577 17.9103C729.594 17.9083 729.613 17.9062 729.63 17.9062H729.749H738.105C738.138 17.9062 738.166 17.9056 738.189 17.9051C738.251 17.9038 738.28 17.9031 738.299 17.9169C738.315 17.9292 738.323 17.953 738.338 17.998L738.338 17.9981C738.346 18.0215 738.356 18.0506 738.37 18.0869C738.452 18.3033 738.533 18.5206 738.614 18.7383L738.614 18.7383L738.614 18.7384L738.614 18.7384L738.614 18.7385L738.614 18.7385L738.614 18.7385L738.614 18.7386L738.614 18.7386L738.614 18.7386L738.614 18.7387L738.614 18.7387L738.614 18.7388L738.614 18.739L738.614 18.7391L738.614 18.7393L738.614 18.7408L738.615 18.7423C738.649 18.8337 738.683 18.9251 738.717 19.0165C738.72 19.0261 738.724 19.0358 738.727 19.0453L738.728 19.0455L738.728 19.0456C738.736 19.0682 738.744 19.0906 738.754 19.1119C738.757 19.1172 738.765 19.1208 738.775 19.125C738.78 19.1271 738.785 19.1294 738.79 19.1322C738.831 19.0359 738.865 18.9395 738.899 18.844L738.899 18.8437C738.913 18.8065 738.926 18.7693 738.939 18.7323C738.965 18.6643 738.99 18.5957 739.015 18.5272L739.015 18.5268C739.04 18.4585 739.065 18.3901 739.091 18.3223L739.142 18.1821L739.142 18.1815C739.173 18.0953 739.205 18.0083 739.238 17.9204C739.246 17.919 739.254 17.917 739.262 17.915C739.276 17.9116 739.289 17.9083 739.303 17.9083C739.343 17.9062 739.383 17.9062 739.423 17.9062H747.726C747.745 17.9062 747.763 17.9061 747.779 17.9059H747.779H747.779C747.852 17.9052 747.887 17.9049 747.904 17.9225C747.921 17.9392 747.92 17.9724 747.92 18.0372C747.919 18.0531 747.919 18.071 747.919 18.0909V19.2459C747.919 19.2844 747.917 19.323 747.915 19.3615C747.915 19.3778 747.898 19.394 747.881 19.3961C747.869 19.3981 747.854 19.3981 747.841 19.3981H747.749H743.478H743.425L743.413 19.3981C743.356 19.3982 743.328 19.3982 743.315 19.3842C743.301 19.3705 743.301 19.3434 743.301 19.2897L743.301 19.2783V18.7648C743.305 18.7315 743.303 18.7001 743.301 18.6651L743.301 18.6613ZM724.511 27.8701H724.65C724.728 27.8032 724.776 27.726 724.818 27.6469C724.875 27.5434 724.921 27.4378 724.961 27.3282C725.064 27.0542 725.133 26.77 725.194 26.4859C725.197 26.4725 725.198 26.4582 725.199 26.4442L725.199 26.4442L725.199 26.4441L725.199 26.435L725.2 26.423C725.202 26.4067 725.186 26.3864 725.171 26.3864L725.165 26.3862H725.165H725.165C725.104 26.3843 725.045 26.3824 724.984 26.3824H708.443H708.363L708.346 26.3823C708.279 26.3822 708.245 26.3822 708.229 26.3987C708.213 26.4149 708.213 26.4468 708.213 26.51L708.214 26.5326V27.7139L708.213 27.741C708.213 27.8069 708.213 27.8395 708.229 27.8555C708.245 27.8712 708.277 27.8709 708.339 27.8704H708.339L708.382 27.8701H724.511ZM716.698 13.7498H708.42C708.394 13.7498 708.367 13.7492 708.34 13.7487L708.34 13.7487C708.313 13.7482 708.287 13.7477 708.26 13.7477C708.237 13.7477 708.218 13.7295 708.216 13.7071C708.214 13.6868 708.212 13.6645 708.212 13.6422V12.3574C708.212 12.3371 708.214 12.3147 708.216 12.2944C708.218 12.2782 708.235 12.264 708.252 12.262C708.264 12.2599 708.279 12.2599 708.292 12.2599H708.412H724.461H724.554L724.567 12.2599C724.603 12.2598 724.622 12.2598 724.639 12.2668C724.658 12.2751 724.674 12.2933 724.708 12.3331L724.709 12.335C724.768 12.404 724.812 12.4832 724.854 12.5644C724.928 12.7105 724.982 12.8648 725.031 13.0211C725.096 13.2261 725.144 13.4351 725.19 13.6442C725.194 13.6628 725.196 13.6832 725.198 13.7021L725.199 13.7071C725.201 13.7295 725.186 13.7477 725.159 13.7477C725.106 13.7498 725.052 13.7498 724.999 13.7498H719.57H716.698ZM723.247 29.2042H715.835C713.679 29.2042 711.524 29.2042 709.366 29.2022H708.395C708.351 29.2022 708.307 29.2042 708.263 29.2063C708.24 29.2083 708.221 29.2245 708.219 29.2469C708.216 29.2854 708.214 29.324 708.214 29.3626V30.1339V30.5581C708.214 30.5885 708.216 30.619 708.223 30.6474C708.225 30.6575 708.237 30.6697 708.248 30.6717C708.282 30.6758 708.317 30.6778 708.353 30.6778C708.62 30.6799 708.885 30.6799 709.151 30.6799C709.692 30.6799 710.232 30.6804 710.772 30.6809L710.777 30.6809H710.778H710.779H710.779H710.78H710.781H710.782H710.783H710.783H710.784H710.785H710.786H710.787H710.787H710.788H710.789H710.79H710.79H710.791H710.792H710.793H710.794H710.794H710.795H710.796H710.797H710.798H710.798H710.799H710.8H710.801H710.802H710.802C711.335 30.6814 711.867 30.6819 712.4 30.6819C713.03 30.6819 713.66 30.6824 714.29 30.6829C714.919 30.6834 715.549 30.6839 716.179 30.6839H719.094C719.111 30.6839 719.129 30.6837 719.146 30.6835C719.182 30.683 719.218 30.6826 719.253 30.6839C719.533 30.69 719.812 30.688 720.092 30.6758C720.215 30.6697 720.339 30.6575 720.461 30.6393C720.707 30.6027 720.949 30.552 721.186 30.4789C721.982 30.2353 722.695 29.8436 723.331 29.324C723.363 29.2997 723.392 29.2713 723.419 29.2449L723.419 29.2449L723.419 29.2449L723.42 29.2449L723.42 29.2449L723.42 29.2449L723.42 29.2449L723.42 29.2449L723.42 29.2448L723.42 29.2448C723.424 29.2408 723.426 29.2286 723.424 29.2225C723.422 29.2164 723.413 29.2083 723.407 29.2083C723.354 29.2063 723.3 29.2042 723.247 29.2042ZM715.828 10.9264H708.416C708.363 10.9264 708.308 10.9244 708.256 10.9224C708.239 10.9224 708.222 10.9061 708.22 10.8899C708.219 10.8795 708.219 10.8693 708.218 10.8592L708.218 10.8591C708.216 10.8397 708.214 10.8206 708.214 10.8006V9.58072V9.52998C708.216 9.47518 708.229 9.46503 708.285 9.463H708.378H709.523H716.244H719.772H719.971C720.19 9.463 720.404 9.49142 720.618 9.52998C721.245 9.63959 721.826 9.86489 722.375 10.1693C722.711 10.3561 723.026 10.5672 723.32 10.8107C723.35 10.8351 723.381 10.8615 723.409 10.8879C723.413 10.8919 723.415 10.9021 723.415 10.9102C723.415 10.9203 723.409 10.9244 723.398 10.9244C723.35 10.9264 723.301 10.9264 723.251 10.9264H715.828ZM722.953 19.3978H723.081C723.092 19.3905 723.101 19.3853 723.11 19.3807L723.119 19.3754C723.397 19.1582 723.655 18.9248 723.892 18.6691C724.023 18.529 724.145 18.3809 724.25 18.2225C724.302 18.1434 724.353 18.0622 724.392 17.9769C724.413 17.9303 724.403 17.91 724.355 17.9079C724.311 17.9059 724.266 17.9059 724.222 17.9059H721.508H711.498H711.366C711.353 17.9059 711.339 17.9079 711.326 17.91C711.309 17.912 711.293 17.9282 711.293 17.9445L711.293 17.9445C711.29 17.9831 711.288 18.0216 711.288 18.0602V19.2415L711.288 19.2824C711.288 19.3412 711.287 19.3705 711.302 19.3849C711.316 19.3993 711.345 19.3989 711.403 19.3982L711.404 19.3982C711.419 19.398 711.435 19.3978 711.454 19.3978H722.953ZM723.076 20.734C723.099 20.7523 723.121 20.7701 723.142 20.7877C723.169 20.8093 723.195 20.8305 723.221 20.8517C723.486 21.0689 723.736 21.2983 723.961 21.554C724.078 21.688 724.19 21.826 724.282 21.9782C724.322 22.0452 724.358 22.1142 724.394 22.1832C724.396 22.1901 724.394 22.1987 724.392 22.2086C724.391 22.2134 724.39 22.2185 724.389 22.2238H724.24H721.618H711.478C711.426 22.2238 711.371 22.2218 711.319 22.2198C711.302 22.2198 711.287 22.2035 711.285 22.1853C711.283 22.1548 711.283 22.1264 711.283 22.0959V20.8639C711.283 20.8487 711.284 20.834 711.284 20.8192C711.285 20.8045 711.285 20.7898 711.285 20.7746C711.285 20.7543 711.306 20.736 711.329 20.734C711.346 20.732 711.365 20.732 711.382 20.732H711.514H722.879L722.91 20.731C722.968 20.729 723.024 20.7271 723.076 20.734ZM706.525 12.2599H701.363C699.734 12.2599 698.106 12.2599 696.482 12.2619H696.135C696.106 12.2619 696.078 12.2637 696.048 12.2656L696.043 12.266C696.028 12.266 696.011 12.2843 696.011 12.3005C696.009 12.3431 696.007 12.3857 696.007 12.4284V13.5833V13.6726C696.007 13.7396 696.016 13.7477 696.081 13.7497H696.213H706.512H706.645C706.657 13.7497 706.672 13.7477 706.685 13.7457C706.701 13.7436 706.718 13.7274 706.718 13.7112C706.72 13.6787 706.722 13.6442 706.722 13.6097V12.402C706.722 12.3736 706.722 12.3431 706.72 12.3127C706.718 12.2822 706.701 12.2619 706.672 12.2619C706.622 12.2599 706.573 12.2599 706.525 12.2599ZM701.432 27.8705H696.27C696.223 27.8705 696.177 27.8686 696.129 27.8667L696.123 27.8664C696.106 27.8664 696.089 27.8502 696.089 27.834C696.087 27.8137 696.085 27.7913 696.085 27.771V26.4882C696.085 26.4771 696.085 26.4664 696.086 26.4558C696.087 26.4451 696.087 26.4345 696.087 26.4233C696.089 26.407 696.104 26.3908 696.119 26.3888C696.131 26.3868 696.144 26.3847 696.158 26.3847H696.278H706.603C706.655 26.3847 706.71 26.3868 706.762 26.3888C706.779 26.3888 706.796 26.407 706.798 26.4213L706.799 26.4266C706.8 26.4509 706.802 26.4738 706.802 26.4984V27.7568C706.802 27.7791 706.802 27.7994 706.8 27.8218C706.798 27.8522 706.781 27.8705 706.752 27.8725C706.712 27.8745 706.672 27.8745 706.632 27.8745H704.916C703.756 27.8705 702.594 27.8705 701.432 27.8705ZM696.284 30.6772H701.447C703.159 30.6772 704.869 30.6772 706.584 30.6752H706.703C706.72 30.6752 706.739 30.6752 706.756 30.6732C706.783 30.6711 706.8 30.6529 706.802 30.6224C706.804 30.5961 706.804 30.5717 706.804 30.5453V30.5453V29.3376V29.3376C706.804 29.3071 706.804 29.2787 706.802 29.2483C706.802 29.228 706.781 29.2077 706.76 29.2077L706.754 29.2075H706.754H706.754H706.754H706.754H706.754H706.754H706.754H706.754H706.754H706.754H706.754H706.754H706.754H706.754C706.706 29.2055 706.659 29.2036 706.613 29.2036H696.274H696.181C696.175 29.2036 696.168 29.2042 696.161 29.2047C696.155 29.2052 696.148 29.2057 696.142 29.2057C696.108 29.2077 696.091 29.2239 696.089 29.2524C696.087 29.2747 696.087 29.295 696.087 29.3173V30.5636C696.087 30.5882 696.089 30.611 696.091 30.6354L696.091 30.6407C696.091 30.6569 696.108 30.6732 696.125 30.6732C696.177 30.6752 696.232 30.6772 696.284 30.6772ZM736.745 13.7434C736.739 13.7441 736.733 13.745 736.728 13.7459C736.716 13.7477 736.705 13.7495 736.694 13.7495C736.667 13.7509 736.641 13.7504 736.614 13.75C736.601 13.7497 736.588 13.7495 736.574 13.7495H726.672C726.62 13.7495 726.565 13.7475 726.512 13.7455C726.496 13.7455 726.479 13.7292 726.477 13.713C726.476 13.7039 726.475 13.695 726.474 13.6863C726.472 13.6696 726.47 13.6532 726.47 13.6359V12.3774C726.47 12.3551 726.47 12.3348 726.473 12.3125C726.475 12.2759 726.491 12.2597 726.531 12.2597C726.571 12.2577 726.611 12.2577 726.651 12.2577H736.047C736.057 12.2577 736.068 12.2575 736.079 12.2573C736.121 12.2567 736.165 12.256 736.209 12.2658C736.221 12.2922 736.234 12.3206 736.244 12.347C736.413 12.8016 736.581 13.2583 736.747 13.713C736.749 13.717 736.747 13.7211 736.745 13.7252C736.747 13.7313 736.747 13.7353 736.745 13.7434ZM740.789 13.7165C740.788 13.7247 740.787 13.7333 740.785 13.7419C740.822 13.7514 740.858 13.7518 740.893 13.7523C740.91 13.7525 740.928 13.7527 740.944 13.7541H750.735H750.842C750.857 13.7541 750.872 13.7541 750.882 13.748C750.893 13.7419 750.905 13.7318 750.908 13.7216C750.914 13.6952 750.914 13.6709 750.914 13.6445V12.3739C750.914 12.3492 750.912 12.3263 750.91 12.3019L750.91 12.2967C750.91 12.2825 750.891 12.2663 750.874 12.2663L750.868 12.266C750.82 12.2641 750.773 12.2622 750.727 12.2622H741.482C741.47 12.2622 741.458 12.262 741.447 12.2618C741.423 12.2613 741.399 12.2609 741.375 12.2622L741.358 12.2643C741.346 12.2656 741.335 12.267 741.325 12.2683C741.3 12.2974 741.289 12.3298 741.278 12.3625L741.274 12.3739C741.155 12.7027 741.033 13.0335 740.911 13.3644L740.886 13.4323L740.886 13.4326C740.854 13.5189 740.823 13.6044 740.793 13.6912C740.791 13.6987 740.79 13.7073 740.789 13.7165ZM735.17 9.46864L735.179 9.48473C735.184 9.49464 735.189 9.50396 735.193 9.51329C735.364 9.97201 735.534 10.4307 735.702 10.8894C735.703 10.8922 735.703 10.8949 735.702 10.8976C735.702 10.8989 735.702 10.9003 735.702 10.9016C735.702 10.9041 735.701 10.9066 735.7 10.9101C735.699 10.9123 735.698 10.9148 735.698 10.9179C735.689 10.9189 735.681 10.9204 735.672 10.9219L735.672 10.9219C735.664 10.9234 735.656 10.925 735.647 10.926C735.618 10.9273 735.588 10.9269 735.559 10.9264C735.544 10.9262 735.529 10.926 735.515 10.926H726.682C726.63 10.926 726.575 10.926 726.522 10.924C726.493 10.924 726.476 10.9057 726.474 10.8732C726.472 10.8428 726.472 10.8143 726.472 10.7839V9.6026C726.472 9.5681 726.474 9.53359 726.476 9.50111C726.478 9.48488 726.493 9.46661 726.51 9.46661C726.522 9.46458 726.537 9.46458 726.55 9.46458H726.669H734.996L735.016 9.46379C735.067 9.46178 735.118 9.45971 735.17 9.46864ZM741.825 10.9024C741.826 10.9074 741.827 10.9128 741.827 10.9184C741.875 10.9302 741.923 10.928 741.971 10.9258L742.001 10.9245H750.718H750.838C750.851 10.9245 750.865 10.9225 750.878 10.9204C750.895 10.9204 750.911 10.9042 750.911 10.888L750.911 10.8877C750.914 10.8452 750.916 10.8026 750.916 10.7601C750.916 10.638 750.916 10.5156 750.916 10.3932V10.393V10.3928V10.3926V10.3923V10.3921V10.3919V10.3917V10.3915V10.3912V10.391V10.3908V10.3906V10.3904V10.3901V10.3899V10.3897V10.3895V10.3892V10.389V10.3888V10.3886V10.3883C750.917 10.14 750.917 9.89144 750.916 9.64373C750.915 9.61925 750.916 9.59802 750.916 9.57962V9.57951V9.57941V9.57932V9.57923V9.57915V9.57907V9.579V9.57893V9.57887V9.57881V9.57875V9.5787V9.57865V9.5786V9.57855V9.57851V9.57847V9.57844V9.5784V9.57837V9.57835V9.57832V9.5783V9.57828V9.57826V9.57824V9.57822V9.57819V9.57817V9.57815V9.57813V9.57811V9.57809V9.57807V9.57805V9.57803V9.57801V9.57799V9.57797V9.57795V9.57794C750.916 9.51929 750.917 9.48973 750.902 9.47512C750.887 9.46027 750.857 9.46089 750.795 9.46216C750.775 9.46259 750.751 9.46309 750.722 9.46309H742.524H742.444H742.404C742.352 9.46512 742.341 9.47121 742.325 9.51383C742.314 9.53819 742.306 9.56254 742.297 9.5869C742.163 9.95036 742.03 10.3158 741.896 10.6813L741.896 10.6814L741.894 10.687L741.824 10.8819C741.822 10.888 741.823 10.8948 741.825 10.9024ZM733.679 16.5727H729.727C729.68 16.5727 729.634 16.5709 729.586 16.5689L729.58 16.5687C729.563 16.5687 729.548 16.5504 729.548 16.5342C729.546 16.5037 729.546 16.4753 729.546 16.4449V15.2128C729.546 15.1783 729.548 15.1438 729.552 15.1113C729.552 15.1052 729.563 15.0971 729.571 15.0931C729.584 15.089 729.596 15.087 729.611 15.087H729.743H737.087L737.112 15.0872L737.131 15.0874C737.16 15.0879 737.19 15.0883 737.219 15.087C737.25 15.087 737.267 15.1032 737.278 15.1296C737.303 15.1945 737.326 15.2575 737.349 15.3224C737.49 15.6999 737.631 16.0795 737.769 16.457C737.78 16.4855 737.788 16.5139 737.797 16.5423C737.801 16.5524 737.786 16.5687 737.776 16.5687C737.727 16.5707 737.679 16.5707 737.629 16.5707C736.313 16.5727 734.996 16.5727 733.679 16.5727ZM739.754 16.5553L739.755 16.5603C739.756 16.5623 739.757 16.5645 739.757 16.5666C739.789 16.573 739.823 16.5737 739.856 16.5744C739.875 16.5749 739.894 16.5753 739.913 16.5767H747.733H747.8L747.816 16.5765C747.922 16.575 747.924 16.575 747.924 16.4549V15.2107V15.2106C747.924 15.1843 747.924 15.1599 747.922 15.1336C747.922 15.1092 747.905 15.091 747.882 15.091C747.831 15.0889 747.783 15.0889 747.735 15.0889H740.459H740.339L740.333 15.0889C740.312 15.0888 740.293 15.0886 740.274 15.1072C740.269 15.1202 740.264 15.1337 740.258 15.1478L740.258 15.1479L740.258 15.148C740.253 15.1604 740.247 15.1731 740.242 15.1864C740.089 15.6086 739.934 16.0328 739.778 16.4549C739.768 16.4834 739.759 16.5118 739.751 16.5402C739.749 16.544 739.751 16.5493 739.754 16.5553ZM747.152 27.871H743.494C743.45 27.871 743.406 27.871 743.362 27.869C743.328 27.869 743.311 27.8528 743.309 27.8243C743.309 27.8162 743.309 27.8076 743.308 27.799L743.308 27.7934C743.307 27.7866 743.307 27.78 743.307 27.7736V26.4766C743.307 26.4685 743.308 26.4598 743.308 26.4512C743.309 26.4426 743.309 26.434 743.309 26.4258C743.311 26.4035 743.328 26.3853 743.353 26.3853C743.402 26.3832 743.45 26.3832 743.5 26.3832H746.375H750.791C750.82 26.3832 750.844 26.3828 750.866 26.3824C750.934 26.3812 750.968 26.3806 750.984 26.397C751 26.413 750.999 26.445 750.998 26.508L750.997 26.543L750.997 26.5781C750.998 26.8297 750.998 27.0804 750.997 27.3314C750.997 27.457 750.997 27.5827 750.997 27.7086C750.997 27.7513 750.995 27.7939 750.993 27.8365C750.993 27.8528 750.974 27.867 750.957 27.869C750.951 27.869 750.944 27.8695 750.937 27.87C750.93 27.8705 750.923 27.871 750.917 27.871H750.797H747.152ZM726.748 27.8701H730.366C731.576 27.8701 732.788 27.8701 733.996 27.8721C734.022 27.8721 734.047 27.8716 734.071 27.8711L734.071 27.8711C734.096 27.8706 734.119 27.8701 734.143 27.8701C734.166 27.8701 734.185 27.8519 734.187 27.8316L734.188 27.8262C734.19 27.8018 734.192 27.779 734.192 27.7544V26.496C734.192 26.4714 734.19 26.4486 734.188 26.4242L734.187 26.4189C734.185 26.4047 734.168 26.3864 734.152 26.3864C734.103 26.3844 734.055 26.3823 734.007 26.3823H726.745C726.706 26.3823 726.666 26.3823 726.626 26.3844C726.575 26.3864 726.561 26.3986 726.558 26.4432C726.556 26.4818 726.556 26.5203 726.556 26.5589C726.556 26.684 726.556 26.8093 726.556 26.9347C726.555 27.1857 726.555 27.437 726.556 27.6874L726.556 27.7207L726.556 27.7459V27.7461V27.7462C726.555 27.8091 726.554 27.8408 726.57 27.8565C726.586 27.8723 726.618 27.8718 726.683 27.8708C726.702 27.8705 726.723 27.8701 726.748 27.8701ZM747.146 30.6776H743.514L743.474 30.6779L743.438 30.6784C743.369 30.6797 743.336 30.6803 743.32 30.6638C743.305 30.6481 743.305 30.6169 743.307 30.5559C743.307 30.5352 743.308 30.511 743.308 30.4828C743.306 30.2259 743.307 29.969 743.307 29.7127V29.7116V29.7112V29.7107V29.7103L743.308 29.5677L743.308 29.3278C743.308 29.2081 743.308 29.2061 743.432 29.2061H743.524H750.777L750.817 29.2058L750.857 29.2052L750.857 29.2052C750.931 29.2039 750.966 29.2033 750.983 29.2207C750.999 29.2373 750.999 29.2701 750.998 29.3341C750.998 29.3569 750.997 29.3837 750.998 29.4151C750.999 29.6694 750.998 29.9229 750.998 30.1766C750.998 30.3035 750.998 30.4306 750.998 30.5579V30.5637V30.5638C750.998 30.6201 750.998 30.6485 750.983 30.6629C750.969 30.6776 750.939 30.6776 750.88 30.6776H750.874H750.766H747.146ZM726.762 30.6778H730.368H730.371C731.58 30.6778 732.789 30.6778 734 30.6757C734.051 30.6757 734.099 30.6757 734.147 30.6737C734.171 30.6717 734.192 30.6534 734.192 30.6331C734.192 30.6138 734.192 30.5946 734.193 30.5753C734.193 30.556 734.194 30.5367 734.194 30.5174C734.194 30.3915 734.194 30.2656 734.194 30.1397C734.195 29.8883 734.195 29.6371 734.194 29.3869C734.193 29.3642 734.194 29.3443 734.194 29.3269C734.194 29.2667 734.194 29.2352 734.179 29.2189C734.162 29.2011 734.126 29.2013 734.05 29.2019L734 29.2022H726.75C726.71 29.2022 726.67 29.2022 726.63 29.2042C726.573 29.2062 726.561 29.2204 726.558 29.2732C726.556 29.3118 726.556 29.3503 726.556 29.3889C726.556 29.51 726.556 29.6309 726.556 29.7516L726.556 29.7541C726.555 29.9968 726.555 30.2388 726.556 30.4809C726.557 30.5077 726.556 30.5309 726.556 30.551V30.5511C726.556 30.6146 726.555 30.647 726.571 30.6633C726.588 30.6801 726.622 30.6796 726.692 30.6785H726.692L726.713 30.6781L726.748 30.6778L726.762 30.6778ZM735.567 22.2179C735.55 22.1793 735.538 22.1469 735.525 22.1144C735.366 21.6933 735.209 21.2723 735.052 20.8513L735.052 20.851L735.052 20.8508L735.051 20.8506L735.051 20.8504L735.051 20.8502L735.051 20.85L735.051 20.8498L735.051 20.8495L735.051 20.8493L735.051 20.8491L735.051 20.8489L735.051 20.8487L735.051 20.8485L735.051 20.8483L735.05 20.848L735.05 20.8478L735.025 20.7748C735.017 20.7504 735.031 20.7321 735.057 20.7321C735.092 20.7301 735.128 20.7301 735.164 20.7301H735.164H742.345C742.385 20.7301 742.425 20.7321 742.465 20.7342C742.482 20.7342 742.494 20.7545 742.488 20.7707C742.484 20.7829 742.48 20.795 742.476 20.8072L742.47 20.8285L742.465 20.8438C742.386 21.0568 742.307 21.2704 742.229 21.484C742.15 21.6977 742.071 21.9114 741.992 22.1245C741.984 22.1489 741.973 22.1732 741.963 22.1956C741.956 22.2057 741.944 22.2138 741.933 22.2179C741.921 22.222 741.908 22.222 741.893 22.222H741.786H735.735C735.722 22.222 735.708 22.2222 735.695 22.2225L735.695 22.2225C735.654 22.2232 735.613 22.224 735.567 22.2179ZM736.587 24.9415C736.599 24.9765 736.61 25.0117 736.64 25.0432C736.675 25.0432 736.715 25.0452 736.755 25.0472L736.755 25.0472H740.787C740.817 25.0472 740.848 25.0472 740.88 25.0452C740.901 25.0432 740.913 25.033 740.922 25.0168C740.932 24.9944 740.943 24.9701 740.951 24.9457C741.03 24.7327 741.109 24.5191 741.187 24.3055C741.266 24.0918 741.345 23.8781 741.424 23.665C741.432 23.6406 741.441 23.6163 741.447 23.5919C741.451 23.5757 741.436 23.5574 741.417 23.5574L741.417 23.5574C741.373 23.5554 741.329 23.5533 741.285 23.5533H736.255H736.148C736.135 23.5533 736.121 23.5554 736.108 23.5574C736.098 23.5574 736.083 23.5736 736.085 23.5838C736.091 23.6081 736.098 23.6325 736.106 23.6569C736.122 23.6996 736.138 23.7418 736.153 23.784C736.169 23.826 736.185 23.8681 736.201 23.9106C736.264 24.077 736.326 24.244 736.389 24.4109C736.451 24.5778 736.514 24.7448 736.577 24.9112L736.582 24.9253L736.587 24.9415ZM725.037 16.565C725.029 16.5657 725.021 16.5668 725.014 16.5678C725.003 16.5695 724.992 16.571 724.98 16.571C724.956 16.5724 724.932 16.5719 724.909 16.5715L724.892 16.5712L724.873 16.571H720.589C720.545 16.571 720.501 16.569 720.456 16.567C720.44 16.567 720.425 16.5487 720.423 16.5325L720.422 16.5272C720.42 16.5028 720.419 16.48 720.419 16.4553V15.1969C720.419 15.1665 720.421 15.1381 720.425 15.1076C720.425 15.1015 720.435 15.0934 720.442 15.0893C720.45 15.0853 720.459 15.0833 720.467 15.0833C720.487 15.0833 720.507 15.0827 720.527 15.0822C720.547 15.0817 720.567 15.0812 720.587 15.0812H725.163H725.27C725.316 15.0833 725.331 15.0954 725.329 15.1441C725.329 15.2091 725.327 15.272 725.32 15.337C725.283 15.7226 725.194 16.0961 725.068 16.4635C725.062 16.502 725.049 16.5345 725.037 16.565ZM725.05 23.6076L725.035 23.5674C724.979 23.5485 724.933 23.5507 724.89 23.5527L724.88 23.5532H720.594C720.579 23.5532 720.564 23.5537 720.549 23.5542L720.527 23.5548L720.511 23.5551L720.501 23.5552C720.487 23.5552 720.474 23.5572 720.461 23.5593C720.447 23.5613 720.426 23.5796 720.426 23.5938L720.426 23.5939C720.424 23.6324 720.421 23.6709 720.421 23.7095C720.421 23.8372 720.421 23.9651 720.421 24.0932C720.421 24.3499 720.42 24.6071 720.421 24.8644C720.421 24.887 720.421 24.9068 720.421 24.9242C720.42 24.988 720.42 25.0196 720.435 25.0349C720.45 25.0499 720.481 25.0492 720.541 25.048C720.562 25.0475 720.585 25.0471 720.613 25.0471H725.138H725.271C725.275 25.0464 725.28 25.046 725.284 25.0456L725.284 25.0456C725.293 25.0446 725.302 25.0438 725.311 25.041C725.317 25.0369 725.325 25.0288 725.327 25.0227C725.332 25.0024 725.334 24.9801 725.334 24.9598C725.336 24.8299 725.317 24.702 725.298 24.5762C725.256 24.2839 725.182 23.9977 725.09 23.7155C725.078 23.6798 725.064 23.6441 725.05 23.6076ZM699.091 15.0931C699.099 15.0923 699.107 15.0911 699.114 15.0901L699.114 15.0901C699.125 15.0885 699.135 15.087 699.146 15.087H699.253H703.549C703.571 15.087 703.593 15.0875 703.616 15.088L703.616 15.088C703.638 15.0885 703.66 15.089 703.682 15.089C703.705 15.089 703.722 15.1073 703.722 15.1316C703.724 15.1539 703.724 15.1742 703.724 15.1966V16.4672C703.724 16.4936 703.722 16.5179 703.717 16.5443C703.715 16.5545 703.703 16.5646 703.692 16.5707C703.684 16.5756 703.673 16.5752 703.661 16.5749L703.652 16.5748H703.545H699.249H699.248C699.209 16.5748 699.169 16.5748 699.129 16.5727C699.093 16.5707 699.076 16.5646 699.074 16.5159C699.072 16.4773 699.072 16.4388 699.072 16.4002V16.4002V15.2575V15.2575C699.072 15.2189 699.072 15.1803 699.074 15.1418C699.076 15.1337 699.079 15.1255 699.083 15.1174C699.086 15.1093 699.089 15.1012 699.091 15.0931ZM699.252 19.3978H701.407C701.947 19.3978 702.489 19.3978 703.036 19.3957H703.607C703.639 19.3957 703.668 19.3957 703.699 19.3917C703.712 19.3896 703.723 19.3795 703.725 19.3653L703.725 19.36C703.727 19.3356 703.729 19.3128 703.729 19.2881V18.0175C703.729 17.9929 703.727 17.9701 703.725 17.9457L703.725 17.9404C703.725 17.9262 703.706 17.91 703.689 17.91L703.689 17.91C703.645 17.9079 703.601 17.9059 703.557 17.9059H699.258C699.222 17.9059 699.186 17.9059 699.151 17.9079C699.141 17.9079 699.131 17.9099 699.123 17.9117C699.119 17.9126 699.115 17.9134 699.111 17.914C699.094 17.916 699.088 17.9282 699.086 17.9404C699.081 17.9668 699.079 17.9911 699.079 18.0175V19.2881C699.079 19.3128 699.081 19.3356 699.083 19.36L699.084 19.3653C699.084 19.3795 699.102 19.3957 699.119 19.3957C699.163 19.3978 699.207 19.3978 699.252 19.3978ZM701.401 22.2219H699.247C699.225 22.2219 699.203 22.2214 699.181 22.2209C699.159 22.2204 699.137 22.2199 699.115 22.2199C699.098 22.2199 699.083 22.2037 699.081 22.1854L699.081 22.1801C699.079 22.1558 699.077 22.1329 699.077 22.1083V20.8519C699.077 20.7917 699.077 20.7612 699.092 20.7459C699.108 20.7301 699.139 20.7301 699.203 20.7301H699.27H703.537C703.586 20.7301 703.634 20.7321 703.682 20.7342L703.682 20.7342C703.705 20.7342 703.722 20.7524 703.722 20.7768C703.724 20.8072 703.724 20.8356 703.724 20.8661V22.0981C703.724 22.1326 703.72 22.1671 703.716 22.1996C703.716 22.2057 703.705 22.2138 703.699 22.2179C703.691 22.2219 703.682 22.2219 703.674 22.2219C703.652 22.2219 703.63 22.2225 703.608 22.223C703.586 22.2235 703.564 22.224 703.542 22.224C702.827 22.2219 702.113 22.2219 701.401 22.2219ZM729.714 22.2219H731.87C732.584 22.2219 733.296 22.2219 734.019 22.224C734.041 22.224 734.063 22.2235 734.085 22.223C734.107 22.2225 734.129 22.2219 734.151 22.2219C734.174 22.2219 734.193 22.2037 734.195 22.1834C734.195 22.1702 734.196 22.1575 734.196 22.1448C734.197 22.1321 734.197 22.1194 734.197 22.1063V20.8478C734.197 20.8232 734.196 20.8004 734.194 20.776L734.193 20.7707C734.191 20.7565 734.174 20.7382 734.16 20.7362C734.146 20.7355 734.133 20.7346 734.12 20.7337C734.093 20.7319 734.066 20.7301 734.04 20.7301H729.701H729.701C729.666 20.7301 729.63 20.7301 729.594 20.7321C729.571 20.7342 729.55 20.7524 729.55 20.7727C729.55 20.7879 729.549 20.8027 729.549 20.8174C729.548 20.8321 729.548 20.8468 729.548 20.862V22.0941C729.548 22.1245 729.548 22.1529 729.55 22.1834C729.55 22.2016 729.565 22.2179 729.581 22.2179C729.626 22.2199 729.67 22.2219 729.714 22.2219ZM701.392 25.0449H699.251H699.251C699.211 25.0449 699.172 25.0449 699.132 25.0429C699.096 25.0408 699.079 25.0348 699.077 24.986C699.075 24.9475 699.075 24.9089 699.075 24.8704V23.7296C699.075 23.6911 699.075 23.6525 699.077 23.6139C699.077 23.6018 699.081 23.5896 699.088 23.5774C699.092 23.5713 699.098 23.5632 699.106 23.5612C699.119 23.5571 699.132 23.5531 699.144 23.5531C699.184 23.551 699.224 23.551 699.264 23.551H703.531C703.551 23.551 703.569 23.5509 703.585 23.5507C703.658 23.55 703.693 23.5497 703.71 23.5672C703.726 23.5838 703.726 23.6166 703.725 23.6805C703.725 23.6963 703.725 23.7139 703.725 23.7337V24.8744C703.725 24.913 703.725 24.9515 703.722 24.9901C703.72 25.0287 703.706 25.0429 703.664 25.0429H703.544C702.828 25.0449 702.112 25.0449 701.393 25.0449H701.392ZM729.714 25.0445H731.857H731.858C732.576 25.0445 733.294 25.0445 734.012 25.0424H734.132C734.172 25.0424 734.187 25.0282 734.189 24.9897V24.9511V23.6541C734.189 23.6318 734.187 23.6094 734.185 23.5891C734.185 23.5749 734.166 23.5546 734.151 23.5546C734.132 23.5539 734.114 23.553 734.095 23.5521C734.06 23.5503 734.026 23.5485 733.991 23.5485H729.747H729.667C729.546 23.5506 729.544 23.5526 729.544 23.6724V24.673V24.9308C729.544 24.9554 729.545 24.9782 729.547 25.0025L729.548 25.0079C729.548 25.0242 729.565 25.0404 729.581 25.0404C729.625 25.0424 729.67 25.0445 729.714 25.0445ZM713.612 15.0871H715.753L715.79 15.0869C715.848 15.0864 715.877 15.0862 715.892 15.1006C715.906 15.1151 715.906 15.1442 715.906 15.2026L715.906 15.2292V16.4348C715.906 16.4693 715.904 16.5038 715.902 16.5363C715.902 16.5525 715.885 16.5668 715.866 16.5688C715.853 16.5708 715.839 16.5708 715.826 16.5708H715.719H711.464C711.441 16.5708 711.421 16.5711 711.404 16.5714C711.343 16.5724 711.313 16.5728 711.299 16.558C711.284 16.5435 711.284 16.5141 711.285 16.4558L711.286 16.4321L711.286 16.4023V15.2474C711.286 15.2048 711.288 15.1622 711.29 15.1196C711.29 15.1033 711.307 15.0891 711.324 15.0871C711.336 15.0851 711.351 15.0851 711.364 15.0851H711.483C712.193 15.0871 712.901 15.0871 713.612 15.0871ZM743.481 22.2214H745.61C746.316 22.2214 747.02 22.2214 747.728 22.2254H747.847C747.86 22.2254 747.875 22.2254 747.887 22.2234C747.906 22.2214 747.921 22.2071 747.923 22.1909C747.925 22.1645 747.927 22.1402 747.927 22.1138V20.8553V20.8552C747.927 20.8289 747.927 20.8046 747.925 20.7782C747.923 20.7559 747.904 20.7356 747.883 20.7356L747.877 20.7353C747.829 20.7334 747.782 20.7315 747.736 20.7315H743.505H743.385C743.372 20.7315 743.358 20.7336 743.345 20.7356C743.33 20.7376 743.311 20.7518 743.311 20.7681C743.309 20.8005 743.307 20.8351 743.307 20.8696V22.0894V22.1666C743.307 22.2071 743.32 22.2193 743.362 22.2214H743.481ZM713.599 25.0448H711.458C711.414 25.0448 711.37 25.0428 711.326 25.0408C711.309 25.0408 711.292 25.0245 711.292 25.0083L711.292 25.003C711.29 24.9786 711.288 24.9558 711.288 24.9312V24.6754V23.6748C711.288 23.555 711.29 23.553 711.412 23.5509H711.492H715.708C715.743 23.5509 715.777 23.5527 715.812 23.5545H715.812H715.812H715.812C715.831 23.5554 715.849 23.5563 715.868 23.557C715.883 23.557 715.902 23.5773 715.902 23.5915L715.902 23.5969C715.904 23.6212 715.906 23.6441 715.906 23.6687V24.9393C715.906 24.9657 715.904 24.99 715.9 25.0164C715.898 25.0286 715.889 25.0408 715.872 25.0408C715.837 25.0428 715.801 25.0448 715.767 25.0448H714.742H713.599ZM743.464 25.0445H745.62H747.748H747.748C747.792 25.0445 747.836 25.0445 747.88 25.0424C747.901 25.0404 747.92 25.0221 747.92 24.9998C747.92 24.9724 747.921 24.9445 747.921 24.9166C747.922 24.8887 747.922 24.8608 747.922 24.8334V23.7028C747.922 23.6643 747.92 23.6258 747.918 23.5873L747.918 23.5871C747.918 23.5749 747.895 23.5526 747.882 23.5526C747.83 23.5506 747.775 23.5485 747.723 23.5485H743.506H743.426C743.365 23.5496 743.335 23.5501 743.32 23.5656C743.304 23.5812 743.304 23.6122 743.304 23.6744V24.9328V24.9329C743.304 24.9552 743.304 24.9755 743.306 24.9978C743.307 25.0005 743.307 25.0034 743.308 25.0063C743.309 25.0122 743.31 25.0181 743.313 25.0221C743.317 25.0282 743.325 25.0384 743.331 25.0384C743.376 25.0424 743.42 25.0445 743.464 25.0445ZM739.862 27.8661L739.852 27.8669C739.831 27.8686 739.813 27.8701 739.793 27.8701H737.772C737.755 27.8701 737.736 27.8701 737.719 27.8681C737.7 27.8661 737.688 27.8539 737.679 27.8397C737.664 27.8092 737.652 27.7767 737.639 27.7443C737.598 27.6352 737.557 27.5259 737.516 27.4164L737.515 27.4154C737.451 27.2439 737.386 27.0719 737.322 26.8999C737.297 26.8339 737.272 26.7675 737.247 26.701C737.223 26.6345 737.198 26.568 737.173 26.5021C737.168 26.488 737.163 26.4739 737.158 26.4598L737.158 26.4595C737.153 26.4452 737.149 26.431 737.143 26.4168C737.139 26.4067 737.152 26.3884 737.162 26.3864C737.175 26.3844 737.188 26.3823 737.202 26.3823H737.295H740.234C740.278 26.3823 740.322 26.3844 740.366 26.3864C740.389 26.3864 740.404 26.4087 740.396 26.4331C740.393 26.4409 740.39 26.4487 740.388 26.4565C740.386 26.4609 740.385 26.4653 740.384 26.4697C740.376 26.494 740.368 26.5183 740.358 26.5427C740.303 26.6895 740.249 26.8358 740.196 26.9821L740.195 26.983C740.141 27.1297 740.087 27.2764 740.032 27.4236C740.009 27.4855 739.986 27.5479 739.963 27.6103C739.94 27.6727 739.917 27.7351 739.894 27.797C739.888 27.8161 739.878 27.8352 739.868 27.8556L739.868 27.8556L739.862 27.8661ZM739.349 29.2811C739.356 29.2608 739.362 29.2405 739.354 29.2182C739.331 29.2047 739.305 29.2052 739.278 29.2058C739.272 29.2059 739.267 29.206 739.261 29.206H738.291C738.276 29.206 738.261 29.2079 738.246 29.2098C738.239 29.2106 738.232 29.2115 738.225 29.2121C738.215 29.2141 738.202 29.2304 738.204 29.2405C738.21 29.2547 738.214 29.2689 738.219 29.2831C738.224 29.2974 738.229 29.3116 738.234 29.3258C738.389 29.7378 738.545 30.1519 738.7 30.5659C738.711 30.5944 738.721 30.6207 738.734 30.6492C738.735 30.6537 738.741 30.6583 738.746 30.6629C738.747 30.6644 738.749 30.6659 738.751 30.6674C738.776 30.6857 738.83 30.6735 738.843 30.6451C738.853 30.6237 738.862 30.6014 738.87 30.5787C738.874 30.5691 738.877 30.5594 738.881 30.5497C738.93 30.4168 738.979 30.2838 739.028 30.1509C739.077 30.0179 739.126 29.885 739.175 29.752C739.204 29.6739 739.233 29.5953 739.262 29.5167C739.291 29.438 739.32 29.3593 739.349 29.2811Z" fill="#898D9A"/>
<path d="M792.001 10.4047C792.001 10.4047 795.124 23.2002 795.622 25.2771C796.204 27.7013 797.252 28.5935 800.273 27.9918L802.223 20.0586C802.717 18.0881 803.049 16.6832 803.367 14.6786H803.422C803.646 16.7029 803.964 18.0939 804.37 20.0655C804.37 20.0655 805.164 23.6669 805.57 25.5585C805.978 27.4495 807.112 28.6413 810.072 27.9924L814.718 10.406H810.967L809.381 18.0095C808.954 20.2227 808.567 21.9521 808.269 23.9768H808.216C807.945 21.9723 807.6 20.3114 807.167 18.155L805.515 10.406H801.607L799.84 17.9598C799.34 20.2552 798.872 22.1088 798.574 24.0648H798.52C798.215 22.2227 797.809 19.8932 797.369 17.6712C797.369 17.6712 796.32 12.2683 795.952 10.406L792.001 10.4065L792.001 10.4047ZM827.76 10.4047V27.9911H831.331V24.2567V10.4038H827.76V10.4047ZM878.058 10.4047V23.3785C878.058 25.1672 878.395 26.4205 879.115 27.1861C879.744 27.8557 880.781 28.2893 882.023 28.2893C883.079 28.2893 884.117 28.089 884.607 27.9067L884.561 25.1158C884.197 25.2055 883.778 25.2772 883.204 25.2772C881.988 25.2772 881.58 24.498 881.58 22.8919V17.9282H884.69V14.5634H881.58V10.4047H878.058L878.058 10.4047ZM819.778 14.4816C817.559 14.4816 815.797 15.1047 814.837 15.6597L815.54 18.0663C816.419 17.5122 817.818 17.0535 819.143 17.0535C821.337 17.0479 821.696 18.294 821.696 19.0933V19.2823C816.915 19.2751 813.896 20.9293 813.896 24.3012C813.896 26.3599 815.433 28.2892 818.106 28.2892C819.751 28.2892 821.127 27.633 821.952 26.5816H822.033C822.033 26.5816 822.579 28.865 825.587 27.9918C825.429 27.0415 825.378 26.0282 825.378 24.8078V20.1096C825.378 17.1153 824.1 14.4816 819.778 14.4816L819.778 14.4816ZM841.142 14.4816C838.907 14.4816 837.903 15.6141 837.294 16.575H837.241V14.7798H833.833V27.9919H837.423V20.2436C837.423 19.8803 837.464 19.4962 837.591 19.1621C837.889 18.3819 838.614 17.4694 839.773 17.4694C841.222 17.4694 841.9 18.6942 841.9 20.4617V27.9918H845.486V20.1497C845.486 19.8029 845.534 19.3853 845.636 19.0787C845.931 18.1913 846.713 17.4693 847.79 17.4693C849.259 17.4693 849.964 18.6727 849.964 20.7526V27.9918H853.553V20.2103C853.553 16.1065 851.469 14.4816 849.117 14.4816C848.075 14.4816 847.253 14.7428 846.509 15.1992C845.885 15.5827 845.325 16.1275 844.836 16.8448H844.783C844.214 15.421 842.88 14.4816 841.141 14.4816L841.142 14.4816ZM860.857 14.4816C858.638 14.4816 856.877 15.1047 855.916 15.6597L856.619 18.0663C857.497 17.5122 858.898 17.0535 860.222 17.0535C862.415 17.0479 862.774 18.294 862.774 19.0933V19.2823C857.994 19.2751 854.974 20.9293 854.974 24.3012C854.974 26.3599 856.512 28.2892 859.187 28.2892C860.831 28.2892 862.207 27.633 863.03 26.5816H863.112C863.112 26.5816 863.658 28.865 866.667 27.9918C866.508 27.0415 866.458 26.0282 866.458 24.8078V20.1096C866.458 17.1153 865.179 14.4816 860.857 14.4816L860.857 14.4816ZM875.767 14.4816C874.392 14.4816 872.828 15.369 872.171 17.2714H872.071V14.7796H868.839V27.9918H872.524V21.2263C872.524 20.8613 872.546 20.5431 872.603 20.2513C872.876 18.8341 873.96 17.9282 875.516 17.9282C875.943 17.9282 876.248 17.9744 876.579 18.0222V14.5633C876.302 14.5073 876.112 14.4814 875.767 14.4814L875.767 14.4816ZM821.811 21.6235V23.2718C821.811 23.5156 821.79 23.7671 821.722 23.9871C821.446 24.9025 820.497 25.676 819.312 25.676C818.324 25.676 817.539 25.1151 817.539 23.9285C817.539 22.1135 819.537 21.6117 821.811 21.6235H821.811ZM862.89 21.6235V23.2718C862.89 23.5156 862.868 23.7671 862.801 23.9871C862.525 24.9025 861.577 25.676 860.391 25.676C859.403 25.676 858.617 25.1151 858.617 23.9285C858.617 22.1135 860.615 21.6117 862.89 21.6235H862.89Z" fill="#898D9A"/>
<path d="M903.999 4.04492C902.846 4.04492 901.93 4.68878 901.93 5.4726L902.63 13.4012C902.707 13.8789 903.293 14.2474 904 14.2474C904.709 14.2464 905.292 13.8783 905.371 13.4012L906.074 5.4726C906.074 4.68884 905.155 4.04499 904.001 4.04499L903.999 4.04492ZM892.589 10.4049C891.99 10.4191 891.31 10.8723 890.878 11.6222C890.299 12.6207 890.402 13.7367 891.078 14.1281L898.294 17.4885C898.745 17.6561 899.357 17.336 899.712 16.7248C899.712 16.7247 899.712 16.7246 899.712 16.7245C900.068 16.1103 900.04 15.4197 899.665 15.1134L893.148 10.5424C892.979 10.4444 892.789 10.4002 892.589 10.405L892.589 10.4049ZM915.41 10.4049C915.21 10.4001 915.02 10.4443 914.851 10.5423L908.334 15.1133C907.961 15.4196 907.933 16.1102 908.288 16.7244L908.288 16.7247C908.644 17.3359 909.254 17.656 909.705 17.4884L916.924 14.1282C917.603 13.7367 917.701 12.6209 917.126 11.6222C916.692 10.8723 916.01 10.4192 915.412 10.4049L915.41 10.4049ZM898.564 20.8656C898.47 20.8643 898.38 20.8787 898.295 20.9106L891.079 24.2669C890.403 24.6601 890.3 25.7764 890.879 26.7761C891.455 27.7727 892.472 28.2465 893.149 27.8556L899.666 23.2882C900.041 22.9781 900.069 22.2877 899.713 21.6741L899.716 21.6754C899.428 21.1756 898.968 20.871 898.564 20.8655L898.564 20.8656ZM909.438 20.8656C909.034 20.8711 908.576 21.1758 908.287 21.6756L908.289 21.6742C907.935 22.2878 907.962 22.9782 908.335 23.2883L914.853 27.8557C915.529 28.2466 916.546 27.7728 917.126 26.7762C917.7 25.7765 917.603 24.6602 916.923 24.267L909.706 20.9107C909.622 20.8788 909.531 20.8644 909.438 20.8657L909.438 20.8656ZM903.998 24.1515C903.292 24.1523 902.708 24.5192 902.631 24.9957L901.931 32.9239C901.931 33.7091 902.847 34.3516 904 34.3516C905.155 34.3516 906.074 33.7091 906.074 32.9239L905.372 24.9957C905.293 24.5192 904.71 24.1524 904.001 24.1515H903.998H903.998Z" fill="#898D9A"/>
</svg>
