<svg width="133" height="130" viewBox="0 0 133 130" fill="none" xmlns="http://www.w3.org/2000/svg">
<g clip-path="url(#clip0)">
<path d="M74.8867 129.697C74.8867 129.697 67.7677 121.028 51.145 118.21C34.9655 114.434 15.3905 98.6484 10.3726 76.4813C4.55685 54.5269 14.3443 31.571 26.8624 20.8375C39.2918 9.57228 50.9411 7.82621 50.7106 7.67554C50.9943 8.01234 39.4425 10.0243 27.3234 21.3339C15.1068 32.1294 5.80688 54.784 11.7024 76.1534C16.8267 97.7355 35.985 112.847 51.6414 116.357C55.3915 116.933 58.7338 117.829 61.6594 118.874C72.7058 122.792 76.9524 127.844 76.9524 127.844L74.8867 129.697Z" fill="#EFC43A"/>
<path d="M57.475 129.697C57.475 129.697 64.5939 121.028 81.2167 118.21C97.3962 114.434 116.962 98.6484 121.989 76.4813C127.805 54.5269 118.017 31.571 105.499 20.8375C93.0699 9.57228 81.4206 7.82621 81.66 7.67554C81.3763 8.01234 92.928 10.0243 105.038 21.3339C117.255 32.1294 126.555 54.784 120.659 76.1534C115.535 97.7355 96.3678 112.847 80.7203 116.357C76.9702 116.933 73.6279 117.829 70.7023 118.874C59.6559 122.792 55.4093 127.844 55.4093 127.844L57.475 129.697Z" fill="#EFC43A"/>
<path d="M46.3576 104.498C46.3576 104.498 50.8878 106.058 52.3861 109.666C54.2656 114.177 53.45 117.962 53.45 117.962C53.45 117.962 48.9108 115.604 47.3948 113.158C45.2583 109.719 46.3576 104.498 46.3576 104.498Z" fill="#EFC43A"/>
<path d="M38.4053 124.334C38.4053 124.334 42.9887 125.743 46.331 123.705C50.5067 121.161 52.0759 117.625 52.0759 117.625C52.0759 117.625 47.0137 116.862 44.3451 117.944C40.595 119.468 38.4053 124.334 38.4053 124.334Z" fill="#EFC43A"/>
<path d="M39.3007 100.607C39.3007 100.607 43.4054 102.885 44.2387 106.625C45.2849 111.305 43.8575 114.815 43.8575 114.815C43.8575 114.815 39.8769 111.766 38.8308 109.143C37.3591 105.455 39.3007 100.607 39.3007 100.607Z" fill="#EFC43A"/>
<path d="M28.2543 118.396C28.2543 118.396 32.4388 120.532 36.0116 119.132C40.4709 117.385 42.5898 114.239 42.5898 114.239C42.5898 114.239 37.8379 112.644 35.0718 113.237C31.1887 114.071 28.2543 118.396 28.2543 118.396Z" fill="#EFC43A"/>
<path d="M32.9707 95.5552C32.9707 95.5552 36.5435 98.4535 36.712 102.203C36.9247 106.891 34.9477 110.038 34.9477 110.038C34.9477 110.038 31.6232 106.422 31.0646 103.709C30.2667 99.9071 32.9707 95.5552 32.9707 95.5552Z" fill="#EFC43A"/>
<path d="M19.2825 110.844C19.2825 110.844 22.9528 113.618 26.6408 112.874C31.242 111.943 33.8219 109.275 33.8219 109.275C33.8219 109.275 29.5044 106.927 26.7383 107.024C22.8553 107.175 19.2825 110.844 19.2825 110.844Z" fill="#EFC43A"/>
<path d="M27.5983 89.4307C27.5983 89.4307 30.5594 92.8342 30.0807 96.4859C29.4867 101.05 27.0487 103.745 27.0487 103.745C27.0487 103.745 24.4599 99.6855 24.3713 96.9733C24.2472 93.171 27.5983 89.4307 27.5983 89.4307Z" fill="#EFC43A"/>
<path d="M11.7822 101.857C11.7822 101.857 14.8585 105.154 18.5377 105.065C23.1389 104.95 26.0822 102.814 26.0822 102.814C26.0822 102.814 22.3144 99.8095 19.6282 99.4373C15.8515 98.9143 11.7822 101.857 11.7822 101.857Z" fill="#EFC43A"/>
<path d="M23.334 82.4819C23.334 82.4819 25.6124 86.2666 24.5308 89.7144C23.1833 94.0131 20.364 96.2112 20.364 96.2112C20.364 96.2112 18.5555 91.8593 18.9367 89.2269C19.4598 85.522 23.334 82.4819 23.334 82.4819Z" fill="#EFC43A"/>
<path d="M5.95764 91.7883C5.95764 91.7883 8.36019 95.4932 11.933 96.0338C16.3923 96.7075 19.5928 95.1386 19.5928 95.1386C19.5928 95.1386 16.4721 91.6022 13.9366 90.7868C10.3815 89.6434 5.95764 91.7883 5.95764 91.7883Z" fill="#EFC43A"/>
<path d="M20.3906 74.9392C20.3906 74.9392 21.9421 78.9809 20.3108 82.1185C18.2806 86.0449 15.1866 87.6758 15.1866 87.6758C15.1866 87.6758 14.1848 83.1643 14.9915 80.6915C16.1352 77.2171 20.3906 74.9392 20.3906 74.9392Z" fill="#EFC43A"/>
<path d="M2.03857 80.9575C2.03857 80.9575 3.72302 84.946 7.07417 86.0716C11.2587 87.4809 14.6187 86.5148 14.6187 86.5148C14.6187 86.5148 12.2073 82.5706 9.90226 81.3475C6.67522 79.6457 2.03857 80.9575 2.03857 80.9575Z" fill="#EFC43A"/>
<path d="M18.7682 67.0242C18.7682 67.0242 19.575 71.1899 17.4739 73.9375C14.8408 77.3765 11.5783 78.4312 11.5783 78.4312C11.5783 78.4312 11.3744 73.9021 12.589 71.6508C14.2734 68.4955 18.7682 67.0242 18.7682 67.0242Z" fill="#EFC43A"/>
<path d="M0.0354004 69.7106C0.0354004 69.7106 0.984007 73.8497 4.02487 75.5071C7.82816 77.5812 11.2325 77.2178 11.2325 77.2178C11.2325 77.2178 9.57466 72.9988 7.5622 71.43C4.73411 69.2319 0.0354004 69.7106 0.0354004 69.7106Z" fill="#EFC43A"/>
<path d="M18.5466 58.9055C18.5466 58.9055 18.6175 63.0624 16.1174 65.358C12.9879 68.2297 9.67224 68.6906 9.67224 68.6906C9.67224 68.6906 10.2485 64.2944 11.8 62.3179C13.9543 59.5614 18.5466 58.9055 18.5466 58.9055Z" fill="#EFC43A"/>
<path d="M0 58.3115C0 58.3115 0.212772 62.4684 2.87242 64.5867C6.18811 67.2369 9.53926 67.4673 9.53926 67.4673C9.53926 67.4673 8.66158 63.1154 6.986 61.263C4.61892 58.6483 0 58.3115 0 58.3115Z" fill="#EFC43A"/>
<path d="M19.7079 50.6095C19.7079 50.6095 19.0696 54.6334 16.2681 56.4238C12.7663 58.6662 9.47717 58.5421 9.47717 58.5421C9.47717 58.5421 10.7804 54.3941 12.6156 52.7544C15.1688 50.4588 19.7079 50.6095 19.7079 50.6095Z" fill="#EFC43A"/>
<path d="M1.91446 46.8779C1.91446 46.8779 1.40913 50.9196 3.61664 53.4191C6.36494 56.5389 9.55651 57.3366 9.55651 57.3366C9.55651 57.3366 9.45012 52.9847 8.1469 50.9107C6.31174 47.9947 1.91446 46.8779 1.91446 46.8779Z" fill="#EFC43A"/>
<path d="M22.3055 42.5173C22.3055 42.5173 21.0111 46.293 17.9969 47.5427C14.229 49.1115 11.0818 48.4291 11.0818 48.4291C11.0818 48.4291 13.0499 44.6444 15.089 43.377C17.9525 41.6043 22.3055 42.5173 22.3055 42.5173Z" fill="#EFC43A"/>
<path d="M5.77139 35.8875C5.77139 35.8875 4.60115 39.7075 6.30332 42.4906C8.43104 45.965 11.3744 47.2768 11.3744 47.2768C11.3744 47.2768 12.0127 43.0579 11.1084 40.8332C9.83178 37.7133 5.77139 35.8875 5.77139 35.8875Z" fill="#EFC43A"/>
<path d="M26.3216 35.0099C26.3216 35.0099 24.4244 38.4312 21.3037 39.1314C17.4029 40 14.4773 38.8123 14.4773 38.8123C14.4773 38.8123 17.0217 35.4974 19.2026 34.6199C22.2701 33.3879 26.3216 35.0099 26.3216 35.0099Z" fill="#EFC43A"/>
<path d="M11.4896 25.801C11.4896 25.801 9.70765 29.2843 10.8779 32.2624C12.3318 35.985 14.956 37.7488 14.956 37.7488C14.956 37.7488 16.2858 33.7869 15.7894 31.4824C15.0979 28.2473 11.4896 25.801 11.4896 25.801Z" fill="#EFC43A"/>
<path d="M31.6226 28.327C31.6226 28.327 29.2112 31.3051 26.0728 31.4469C22.1631 31.6241 19.5389 29.9756 19.5389 29.9756C19.5389 29.9756 22.5621 27.2102 24.8139 26.7316C27.9877 26.0757 31.6226 28.327 31.6226 28.327Z" fill="#EFC43A"/>
<path d="M18.8746 16.9199C18.8746 16.9199 16.5607 19.9778 17.1813 23.0533C17.9526 26.8911 20.1867 29.0361 20.1867 29.0361C20.1867 29.0361 22.146 25.4376 22.0573 23.1331C21.9332 19.898 18.8746 16.9199 18.8746 16.9199Z" fill="#EFC43A"/>
<path d="M37.9528 22.7255C37.9528 22.7255 35.1158 25.1895 32.0661 24.7907C28.2628 24.2943 26.011 22.2646 26.011 22.2646C26.011 22.2646 29.3976 20.1108 31.6583 20.0311C34.8233 19.9336 37.9528 22.7255 37.9528 22.7255Z" fill="#EFC43A"/>
<path d="M27.5894 9.54565C27.5894 9.54565 24.8322 12.1071 24.912 15.1739C25.0006 19.0117 26.7915 21.4579 26.7915 21.4579C26.7915 21.4579 29.3004 18.3203 29.6107 16.0779C30.0362 12.9403 27.5894 9.54565 27.5894 9.54565Z" fill="#EFC43A"/>
<path d="M45.1164 18.338C45.1164 18.338 41.9603 20.2347 39.0878 19.3307C35.4973 18.205 33.671 15.8651 33.671 15.8651C33.671 15.8651 37.3059 14.3583 39.5045 14.6774C42.572 15.1206 45.1164 18.338 45.1164 18.338Z" fill="#EFC43A"/>
<path d="M37.3591 3.85547C37.3591 3.85547 34.265 5.85858 33.8129 8.83664C33.2455 12.5504 34.5576 15.2271 34.5576 15.2271C34.5576 15.2271 37.5098 12.6213 38.1836 10.5118C39.141 7.55146 37.3591 3.85547 37.3591 3.85547Z" fill="#EFC43A"/>
<path d="M52.8028 15.2979C52.8028 15.2979 49.4339 16.592 46.8097 15.2359C43.5384 13.543 42.1731 10.9638 42.1731 10.9638C42.1731 10.9638 45.9321 10.1306 48.0066 10.8042C50.9056 11.7526 52.8028 15.2979 52.8028 15.2979Z" fill="#EFC43A"/>
<path d="M47.7849 0C47.7849 0 44.4603 1.40926 43.5206 4.2012C42.3415 7.69334 43.1482 10.4941 43.1482 10.4941C43.1482 10.4941 46.4462 8.48218 47.4568 6.56771C48.8753 3.87326 47.7849 0 47.7849 0Z" fill="#EFC43A"/>
<path d="M47.9268 8.61518C47.9268 8.61518 50.418 10.0244 52.6255 9.2622C55.3826 8.31382 56.7479 6.45253 56.7479 6.45253C56.7479 6.45253 53.9021 5.36234 52.1999 5.64597C49.8328 6.06254 47.9268 8.61518 47.9268 8.61518Z" fill="#EFC43A"/>
<path d="M86.0041 104.498C86.0041 104.498 81.4738 106.058 79.9755 109.666C78.0961 114.177 78.9117 117.962 78.9117 117.962C78.9117 117.962 83.4508 115.604 84.9668 113.158C87.1034 109.719 86.0041 104.498 86.0041 104.498Z" fill="#EFC43A"/>
<path d="M93.956 124.334C93.956 124.334 89.3725 125.743 86.0302 123.705C81.8635 121.161 80.2854 117.625 80.2854 117.625C80.2854 117.625 85.3476 116.862 88.0161 117.944C91.7662 119.468 93.956 124.334 93.956 124.334Z" fill="#EFC43A"/>
<path d="M93.061 100.607C93.061 100.607 88.9474 102.885 88.114 106.625C87.0679 111.305 88.4953 114.815 88.4953 114.815C88.4953 114.815 92.4759 111.766 93.522 109.143C95.0025 105.455 93.061 100.607 93.061 100.607Z" fill="#EFC43A"/>
<path d="M104.107 118.396C104.107 118.396 99.9223 120.532 96.3496 119.132C91.8902 117.385 89.7714 114.239 89.7714 114.239C89.7714 114.239 94.5233 112.644 97.2893 113.237C101.164 114.071 104.107 118.396 104.107 118.396Z" fill="#EFC43A"/>
<path d="M99.3909 95.5552C99.3909 95.5552 95.8181 98.4535 95.6497 102.203C95.4369 106.891 97.4139 110.038 97.4139 110.038C97.4139 110.038 100.738 106.422 101.306 103.709C102.095 99.9071 99.3909 95.5552 99.3909 95.5552Z" fill="#EFC43A"/>
<path d="M113.079 110.844C113.079 110.844 109.408 113.618 105.72 112.874C101.119 111.943 98.5392 109.275 98.5392 109.275C98.5392 109.275 102.857 106.927 105.623 107.024C109.506 107.175 113.079 110.844 113.079 110.844Z" fill="#EFC43A"/>
<path d="M104.763 89.4309C104.763 89.4309 101.802 92.8344 102.281 96.4861C102.875 101.051 105.313 103.745 105.313 103.745C105.313 103.745 107.902 99.6858 107.99 96.9736C108.114 93.1712 104.763 89.4309 104.763 89.4309Z" fill="#EFC43A"/>
<path d="M120.579 101.857C120.579 101.857 117.503 105.154 113.824 105.065C109.223 104.95 106.279 102.814 106.279 102.814C106.279 102.814 110.047 99.8095 112.733 99.4373C116.501 98.9143 120.579 101.857 120.579 101.857Z" fill="#EFC43A"/>
<path d="M109.028 82.4817C109.028 82.4817 106.749 86.2663 107.831 89.7141C109.178 94.0128 111.998 96.2109 111.998 96.2109C111.998 96.2109 113.806 91.8591 113.425 89.2267C112.902 85.5218 109.028 82.4817 109.028 82.4817Z" fill="#EFC43A"/>
<path d="M126.404 91.7881C126.404 91.7881 124.001 95.4929 120.429 96.0336C115.969 96.7072 112.769 95.1384 112.769 95.1384C112.769 95.1384 115.89 91.602 118.425 90.7865C121.98 89.6432 126.404 91.7881 126.404 91.7881Z" fill="#EFC43A"/>
<path d="M111.971 74.9392C111.971 74.9392 110.42 78.9809 112.051 82.1185C114.081 86.0449 117.175 87.6758 117.175 87.6758C117.175 87.6758 118.177 83.1643 117.37 80.6915C116.226 77.2171 111.971 74.9392 111.971 74.9392Z" fill="#EFC43A"/>
<path d="M130.323 80.9575C130.323 80.9575 128.638 84.946 125.278 86.0716C121.085 87.4809 117.734 86.5148 117.734 86.5148C117.734 86.5148 120.145 82.5706 122.441 81.3475C125.686 79.6457 130.323 80.9575 130.323 80.9575Z" fill="#EFC43A"/>
<path d="M113.593 67.0242C113.593 67.0242 112.787 71.1899 114.888 73.9375C117.521 77.3765 120.783 78.4312 120.783 78.4312C120.783 78.4312 120.987 73.9021 119.781 71.6508C118.088 68.4955 113.593 67.0242 113.593 67.0242Z" fill="#EFC43A"/>
<path d="M132.335 69.7098C132.335 69.7098 131.386 73.849 128.337 75.5064C124.533 77.5804 121.129 77.217 121.129 77.217C121.129 77.217 122.787 72.9981 124.799 71.4293C127.627 69.2312 132.335 69.7098 132.335 69.7098Z" fill="#EFC43A"/>
<path d="M113.815 58.9055C113.815 58.9055 113.744 63.0624 116.244 65.358C119.365 68.2297 122.689 68.6906 122.689 68.6906C122.689 68.6906 122.113 64.2944 120.562 62.3179C118.398 59.5614 113.815 58.9055 113.815 58.9055Z" fill="#EFC43A"/>
<path d="M132.362 58.3115C132.362 58.3115 132.149 62.4684 129.498 64.5867C126.182 67.2369 122.831 67.4673 122.831 67.4673C122.831 67.4673 123.709 63.1154 125.384 61.263C127.743 58.6483 132.362 58.3115 132.362 58.3115Z" fill="#EFC43A"/>
<path d="M112.654 50.6095C112.654 50.6095 113.292 54.6334 116.093 56.4238C119.595 58.6662 122.884 58.5421 122.884 58.5421C122.884 58.5421 121.581 54.3941 119.746 52.7544C117.193 50.4588 112.654 50.6095 112.654 50.6095Z" fill="#EFC43A"/>
<path d="M130.447 46.8779C130.447 46.8779 130.952 50.9196 128.745 53.4191C125.996 56.5389 122.805 57.3366 122.805 57.3366C122.805 57.3366 122.911 52.9847 124.214 50.9107C126.049 47.9947 130.447 46.8779 130.447 46.8779Z" fill="#EFC43A"/>
<path d="M110.056 42.5173C110.056 42.5173 111.359 46.293 114.374 47.5427C118.141 49.1115 121.289 48.4291 121.289 48.4291C121.289 48.4291 119.321 44.6444 117.282 43.377C114.409 41.6043 110.056 42.5173 110.056 42.5173Z" fill="#EFC43A"/>
<path d="M126.59 35.8875C126.59 35.8875 127.761 39.7075 126.058 42.4906C123.931 45.965 120.987 47.2768 120.987 47.2768C120.987 47.2768 120.349 43.0579 121.253 40.8332C122.53 37.7133 126.59 35.8875 126.59 35.8875Z" fill="#EFC43A"/>
<path d="M106.04 35.0099C106.04 35.0099 107.937 38.4312 111.058 39.1314C114.959 40 117.884 38.8123 117.884 38.8123C117.884 38.8123 115.34 35.4974 113.159 34.6199C110.083 33.3879 106.04 35.0099 106.04 35.0099Z" fill="#EFC43A"/>
<path d="M120.872 25.801C120.872 25.801 122.654 29.2843 121.493 32.2624C120.039 35.985 117.414 37.7488 117.414 37.7488C117.414 37.7488 116.085 33.7869 116.581 31.4824C117.264 28.2473 120.872 25.801 120.872 25.801Z" fill="#EFC43A"/>
<path d="M100.739 28.327C100.739 28.327 103.15 31.3051 106.279 31.4469C110.189 31.6241 112.813 29.9756 112.813 29.9756C112.813 29.9756 109.79 27.2102 107.538 26.7316C104.373 26.0757 100.739 28.327 100.739 28.327Z" fill="#EFC43A"/>
<path d="M113.487 16.9199C113.487 16.9199 115.801 19.9778 115.18 23.0533C114.409 26.8911 112.175 29.0361 112.175 29.0361C112.175 29.0361 110.216 25.4376 110.296 23.1331C110.429 19.898 113.487 16.9199 113.487 16.9199Z" fill="#EFC43A"/>
<path d="M94.4086 22.7255C94.4086 22.7255 97.2455 25.1895 100.295 24.7907C104.099 24.2943 106.35 22.2646 106.35 22.2646C106.35 22.2646 102.964 20.1108 100.703 20.0311C97.5292 19.9336 94.4086 22.7255 94.4086 22.7255Z" fill="#EFC43A"/>
<path d="M104.772 9.54565C104.772 9.54565 107.529 12.1071 107.45 15.1739C107.361 19.0117 105.57 21.4579 105.57 21.4579C105.57 21.4579 103.061 18.3203 102.76 16.0779C102.325 12.9403 104.772 9.54565 104.772 9.54565Z" fill="#EFC43A"/>
<path d="M87.2452 18.338C87.2452 18.338 90.4013 20.2347 93.2738 19.3307C96.8643 18.205 98.6906 15.8651 98.6906 15.8651C98.6906 15.8651 95.0557 14.3583 92.8571 14.6774C89.7808 15.1206 87.2452 18.338 87.2452 18.338Z" fill="#EFC43A"/>
<path d="M95.0025 3.85547C95.0025 3.85547 98.0966 5.85858 98.5487 8.83664C99.1161 12.5504 97.804 15.2271 97.804 15.2271C97.804 15.2271 94.8518 12.6213 94.1781 10.5118C93.2206 7.55146 95.0025 3.85547 95.0025 3.85547Z" fill="#EFC43A"/>
<path d="M79.5588 15.2979C79.5588 15.2979 82.9366 16.592 85.5519 15.2359C88.8233 13.543 90.1886 10.9638 90.1886 10.9638C90.1886 10.9638 86.4296 10.1306 84.3639 10.8042C81.4561 11.7526 79.5588 15.2979 79.5588 15.2979Z" fill="#EFC43A"/>
<path d="M84.5767 0C84.5767 0 87.9101 1.40926 88.8499 4.2012C90.0201 7.69334 89.2222 10.4941 89.2222 10.4941C89.2222 10.4941 85.9331 8.48218 84.9136 6.56771C83.4863 3.87326 84.5767 0 84.5767 0Z" fill="#EFC43A"/>
<path d="M84.426 8.61518C84.426 8.61518 81.9348 10.0244 79.7273 9.2622C76.9701 8.31382 75.6049 6.45253 75.6049 6.45253C75.6049 6.45253 78.4595 5.36234 80.1529 5.64597C82.5288 6.06254 84.426 8.61518 84.426 8.61518Z" fill="#EFC43A"/>
<path d="M24.8234 44.1128H26.8442V54.217H24.8234V44.1128Z" fill="url(#paint0_linear)"/>
<path d="M36.1711 44.1125V54.2167H33.9902L30.2667 47.3211V54.2167H28.3695V44.1125H30.5504L34.2739 51.0082V44.1125H36.1711Z" fill="url(#paint1_linear)"/>
<path d="M41.987 45.9916V54.2167H39.9656V45.9916H37.3237V44.1125H44.6289V45.9916H41.987Z" fill="url(#paint2_linear)"/>
<path d="M52.3861 44.1126V46.0182H47.7938V48.0922H51.5173V49.9979H47.7938V52.3023H52.3861V54.2079H45.7725V44.1038H52.3861V44.1126Z" fill="url(#paint3_linear)"/>
<path d="M58.9732 54.2167L57.3419 50.4675H55.7107V54.2167H53.6893V44.1125H58.8402C60.0193 44.1125 60.8349 44.928 60.8349 46.1068V48.4822C60.8349 49.4394 60.303 50.1485 59.4608 50.3878L61.1452 54.2167H58.9732ZM58.8224 46.4968C58.8224 46.1866 58.654 46.0182 58.3437 46.0182H55.7195V48.5885H58.3437C58.654 48.5885 58.8224 48.4201 58.8224 48.1099V46.4968Z" fill="url(#paint4_linear)"/>
<path d="M64.062 54.2167H61.9697L65.2234 44.1125H67.5816L70.8352 54.2167H68.6543L67.9983 51.9388H64.7269L64.062 54.2167ZM65.3031 50.0332H67.4663L66.4025 46.3284L65.3031 50.0332Z" fill="url(#paint5_linear)"/>
<path d="M76.7839 46.4437C76.7839 46.1335 76.6155 45.9651 76.3052 45.9651H74.1154C73.8051 45.9651 73.6367 46.1335 73.6367 46.4437V51.8946C73.6367 52.2049 73.8051 52.3733 74.1154 52.3733H76.3052C76.6155 52.3733 76.7839 52.2049 76.7839 51.8946V50.6626H78.8053V52.2935C78.8053 53.4723 77.9896 54.2877 76.8105 54.2877H73.6101C72.431 54.2877 71.6154 53.4723 71.6154 52.2935V46.0626C71.6154 44.8838 72.431 44.0684 73.6101 44.0684H76.8105C77.9896 44.0684 78.8053 44.8838 78.8053 46.0626V47.6934H76.7839V46.4437Z" fill="url(#paint6_linear)"/>
<path d="M84.4172 45.9916V54.2167H82.3958V45.9916H79.7539V44.1125H87.0591V45.9916H84.4172Z" fill="url(#paint7_linear)"/>
<path d="M88.2026 44.1125H90.2235V54.2167H88.2026V44.1125Z" fill="url(#paint8_linear)"/>
<path d="M96.7402 54.2167H94.382L91.3057 44.1125H93.6107L95.5611 51.7882L97.5735 44.1125H99.8165L96.7402 54.2167Z" fill="url(#paint9_linear)"/>
<path d="M107.538 44.1126V46.0182H102.946V48.0922H106.669V49.9979H102.946V52.3023H107.538V54.2079H100.925V44.1038H107.538V44.1126Z" fill="url(#paint10_linear)"/>
<path d="M38.4497 66.3595H36.5436V59.6234L34.3538 64.7464H32.891L30.7012 59.6234V66.3595H28.7952V56.2554H31.0115L33.6269 62.1761L36.2422 56.2554H38.4585V66.3595H38.4497Z" fill="#333333"/>
<path d="M41.6323 66.3595H39.54L42.7937 56.2554H45.1519L48.4055 66.3595H46.2246L45.5686 64.0817H42.2972L41.6323 66.3595ZM42.8735 62.1761H45.0366L43.9728 58.4712L42.8735 62.1761Z" fill="#333333"/>
<path d="M54.7887 66.3595L53.1575 62.6104H51.5262V66.3595H49.5049V56.2554H54.6557C55.8348 56.2554 56.6505 57.0708 56.6505 58.2496V60.625C56.6505 61.5822 56.1185 62.2913 55.2763 62.5306L56.9608 66.3595H54.7887ZM54.638 58.6396C54.638 58.3294 54.4696 58.161 54.1593 58.161H51.5351V60.7313H54.1593C54.4696 60.7313 54.638 60.5629 54.638 60.2527V58.6396Z" fill="#333333"/>
<path d="M60.2232 63.7803V66.3595H58.2285V56.2554H60.2232V60.9972L63.7163 56.2554H66.0922L62.9893 60.2439L66.2429 66.3684H63.9645L61.6329 61.9722L60.2232 63.7803Z" fill="#333333"/>
<path d="M73.947 56.2554V58.1611H69.3547V60.2351H73.0782V62.1407H69.3547V64.4451H73.947V66.3507H67.3334V56.2466H73.947V56.2554Z" fill="#333333"/>
<path d="M79.5412 58.1344V66.3595H77.5198V58.1344H74.8779V56.2554H82.1831V58.1344H79.5412Z" fill="#333333"/>
<path d="M83.3267 56.2554H85.3475V66.3595H83.3267V56.2554Z" fill="#333333"/>
<path d="M94.6745 56.2554V66.3595H92.4936L88.7701 59.4639V66.3595H86.8817V56.2554H89.0626L92.7861 63.151V56.2554H94.6745Z" fill="#333333"/>
<path d="M101.394 58.5864C101.394 58.2762 101.226 58.1078 100.916 58.1078H98.6019C98.2916 58.1078 98.1231 58.2762 98.1231 58.5864V64.0373C98.1231 64.3475 98.2916 64.5159 98.6019 64.5159H100.916C101.226 64.5159 101.394 64.3475 101.394 64.0373V62.5305H99.5416V60.7047H103.416V64.4273C103.416 65.6061 102.6 66.4215 101.421 66.4215H98.0965C96.9174 66.4215 96.1018 65.6061 96.1018 64.4273V58.1964C96.1018 57.0176 96.9174 56.2021 98.0965 56.2021H101.421C102.6 56.2021 103.416 57.0176 103.416 58.1964V59.517H101.394V58.5864Z" fill="#333333"/>
<path d="M40.5862 78.5024H38.4939L41.7475 68.3982H44.1057L47.3594 78.5024H45.1785L44.5224 76.2245H41.2511L40.5862 78.5024ZM41.8273 74.3189H43.9905L42.9266 70.614L41.8273 74.3189Z" fill="#333333"/>
<path d="M54.6203 78.5024L52.9624 71.846L51.3046 78.5024H49.3098L46.8009 68.3982H48.9641L50.3382 75.7813L52.1645 68.3982H53.7603L55.5866 75.7813L56.9608 68.3982H59.0353L56.5263 78.5024H54.6203Z" fill="#333333"/>
<path d="M60.5778 78.5024H58.4856L61.7392 68.3982H64.0974L67.3511 78.5024H65.1702L64.5141 76.2245H61.2428L60.5778 78.5024ZM61.819 74.3189H63.9822L62.9183 70.614L61.819 74.3189Z" fill="#333333"/>
<path d="M73.7343 78.5024L72.1031 74.7532H70.4807V78.5024H68.4594V68.3982H73.6102C74.7893 68.3982 75.6049 69.2136 75.6049 70.3924V72.7678C75.6049 73.725 75.073 74.4341 74.2308 74.6734L75.9152 78.5024H73.7343ZM73.5836 70.7824C73.5836 70.4722 73.4151 70.3038 73.1049 70.3038H70.4807V72.8742H73.1049C73.4151 72.8742 73.5836 72.7058 73.5836 72.3955V70.7824Z" fill="#333333"/>
<path d="M82.4402 68.3982C83.6193 68.3982 84.4349 69.2136 84.4349 70.3924V76.517C84.4349 77.6958 83.6193 78.5112 82.4402 78.5112H77.1741V68.4071H82.4402V68.3982ZM81.9348 76.5968C82.2451 76.5968 82.4136 76.4284 82.4136 76.1181V70.7824C82.4136 70.4722 82.2451 70.3038 81.9348 70.3038H79.1954V76.5968H81.9348V76.5968Z" fill="#333333"/>
<path d="M90.7028 70.7292C90.7028 70.419 90.5343 70.2506 90.224 70.2506H88.2027C87.8924 70.2506 87.724 70.419 87.724 70.7292V71.6864C87.724 71.9966 87.8924 72.0941 88.2027 72.165L90.818 72.7234C91.9174 72.9627 92.8394 73.6186 92.8394 74.7443V76.5701C92.8394 77.7489 92.0238 78.5643 90.8446 78.5643H87.6974C86.5183 78.5643 85.7026 77.7489 85.7026 76.5701V75.2761H87.6708V76.1713C87.6708 76.4815 87.8392 76.6499 88.1495 76.6499H90.3393C90.6496 76.6499 90.818 76.4815 90.818 76.1713V75.1077C90.818 74.7974 90.6496 74.6999 90.3393 74.629L87.724 74.0707C86.6246 73.8313 85.7026 73.1755 85.7026 72.0498V70.3392C85.7026 69.1604 86.5183 68.345 87.6974 68.345H90.6762C91.8553 68.345 92.6709 69.1604 92.6709 70.3392V71.518H90.7028V70.7292Z" fill="#333333"/>
<path d="M54.7798 90.645H51.4198V87.2503C51.4198 86.1247 52.3773 85.5929 53.4411 85.2295L55.8525 84.3875C56.216 84.2634 56.4111 84.1925 56.4111 83.8291V82.9605C56.4111 82.5971 56.216 82.4021 55.8525 82.4021H55.1876V80.4788H56.4111C57.537 80.4788 58.4324 81.374 58.4324 82.4996V84.2723C58.4324 85.3979 57.4749 85.9297 56.4111 86.2931L53.9997 87.1351C53.6362 87.2592 53.4411 87.3301 53.4411 87.6935V88.7305H54.771V90.645H54.7798ZM51.5351 82.4996C51.5351 81.374 52.4305 80.4788 53.5564 80.4788H54.7798V82.3844H54.0617C53.6982 82.3844 53.5032 82.5794 53.5032 82.9428V83.5898H51.5351V82.4996ZM55.2054 90.645V88.7394H58.4767V90.645H55.2054Z" fill="url(#paint11_linear)"/>
<path d="M62.147 82.3932C61.8367 82.3932 61.6683 82.5616 61.6683 82.8718V88.3228C61.6683 88.633 61.8367 88.8014 62.147 88.8014H63.007V90.707H61.6417C60.4626 90.707 59.647 89.8916 59.647 88.7128V82.4819C59.647 81.303 60.4626 80.4876 61.6417 80.4876H63.007V82.3932H62.147V82.3932ZM64.8067 80.4788C65.9858 80.4788 66.8014 81.2942 66.8014 82.473V88.7039C66.8014 89.8827 65.9858 90.6981 64.8067 90.6981H63.4325V88.7925H64.3014C64.6117 88.7925 64.7801 88.6241 64.7801 88.3139V82.8718C64.7801 82.5616 64.6117 82.3932 64.3014 82.3932H63.4325V80.4788H64.8067Z" fill="url(#paint12_linear)"/>
<path d="M69.7891 82.6414L67.9451 83.2884V81.6044L70.2058 80.5408H71.8104V90.6449H69.7891V82.6414Z" fill="url(#paint13_linear)"/>
<path d="M77.8389 88.7925C78.2024 88.7925 78.3974 88.5975 78.3974 88.2341V85.7879L78.1137 86.0538C77.8034 86.3463 77.2715 86.8249 76.5091 86.8249H75.3122C74.1863 86.8249 73.2909 85.9297 73.2909 84.804V82.4996C73.2909 81.374 74.1863 80.4788 75.3122 80.4788H76.6332V82.3844H75.8885C75.525 82.3844 75.33 82.5794 75.33 82.9428V84.4584C75.33 84.8218 75.525 85.0168 75.8885 85.0168H76.713C77.1031 85.0168 77.6261 84.9281 78.1137 84.6356L78.3974 84.4672V82.9339C78.3974 82.5705 78.2024 82.3755 77.8389 82.3755H77.0676V80.4788H78.3974C79.5233 80.4788 80.4187 81.374 80.4187 82.4996V88.6773C80.4187 89.8029 79.5233 90.6981 78.3974 90.6981H77.1297V88.7925H77.8389V88.7925ZM75.4452 90.6981C74.3193 90.6981 73.4239 89.8029 73.4239 88.6773V87.7555H75.4452V88.2341C75.4452 88.5975 75.6403 88.7925 76.0037 88.7925H76.7041V90.6981H75.4452Z" fill="url(#paint14_linear)"/>
</g>
<defs>
<linearGradient id="paint0_linear" x1="72.5511" y1="1.88255" x2="17.1555" y2="57.9429" gradientUnits="userSpaceOnUse">
<stop offset="0.000661376" stop-color="#92CAA7"/>
<stop offset="0.1143" stop-color="#95C6A8"/>
<stop offset="0.2321" stop-color="#9EB9AA"/>
<stop offset="0.3517" stop-color="#AEA5AF"/>
<stop offset="0.472" stop-color="#C388B4"/>
<stop offset="0.5" stop-color="#C980B6"/>
<stop offset="0.5495" stop-color="#BA7AB3"/>
<stop offset="0.6644" stop-color="#9D6EAE"/>
<stop offset="0.7788" stop-color="#8966AA"/>
<stop offset="0.8914" stop-color="#7C61A8"/>
<stop offset="1" stop-color="#785FA7"/>
</linearGradient>
<linearGradient id="paint1_linear" x1="75.8223" y1="5.10244" x2="20.4268" y2="61.1765" gradientUnits="userSpaceOnUse">
<stop offset="0.000661376" stop-color="#92CAA7"/>
<stop offset="0.1143" stop-color="#95C6A8"/>
<stop offset="0.2321" stop-color="#9EB9AA"/>
<stop offset="0.3517" stop-color="#AEA5AF"/>
<stop offset="0.472" stop-color="#C388B4"/>
<stop offset="0.5" stop-color="#C980B6"/>
<stop offset="0.5495" stop-color="#BA7AB3"/>
<stop offset="0.6644" stop-color="#9D6EAE"/>
<stop offset="0.7788" stop-color="#8966AA"/>
<stop offset="0.8914" stop-color="#7C61A8"/>
<stop offset="1" stop-color="#785FA7"/>
</linearGradient>
<linearGradient id="paint2_linear" x1="79.5574" y1="8.79223" x2="24.1619" y2="64.8662" gradientUnits="userSpaceOnUse">
<stop offset="0.000661376" stop-color="#92CAA7"/>
<stop offset="0.1143" stop-color="#95C6A8"/>
<stop offset="0.2321" stop-color="#9EB9AA"/>
<stop offset="0.3517" stop-color="#AEA5AF"/>
<stop offset="0.472" stop-color="#C388B4"/>
<stop offset="0.5" stop-color="#C980B6"/>
<stop offset="0.5495" stop-color="#BA7AB3"/>
<stop offset="0.6644" stop-color="#9D6EAE"/>
<stop offset="0.7788" stop-color="#8966AA"/>
<stop offset="0.8914" stop-color="#7C61A8"/>
<stop offset="1" stop-color="#785FA7"/>
</linearGradient>
<linearGradient id="paint3_linear" x1="84.3263" y1="13.5037" x2="28.9308" y2="69.5777" gradientUnits="userSpaceOnUse">
<stop offset="0.000661376" stop-color="#92CAA7"/>
<stop offset="0.1143" stop-color="#95C6A8"/>
<stop offset="0.2321" stop-color="#9EB9AA"/>
<stop offset="0.3517" stop-color="#AEA5AF"/>
<stop offset="0.472" stop-color="#C388B4"/>
<stop offset="0.5" stop-color="#C980B6"/>
<stop offset="0.5495" stop-color="#BA7AB3"/>
<stop offset="0.6644" stop-color="#9D6EAE"/>
<stop offset="0.7788" stop-color="#8966AA"/>
<stop offset="0.8914" stop-color="#7C61A8"/>
<stop offset="1" stop-color="#785FA7"/>
</linearGradient>
<linearGradient id="paint4_linear" x1="88.5481" y1="17.6741" x2="33.1527" y2="73.7482" gradientUnits="userSpaceOnUse">
<stop offset="0.000661376" stop-color="#92CAA7"/>
<stop offset="0.1143" stop-color="#95C6A8"/>
<stop offset="0.2321" stop-color="#9EB9AA"/>
<stop offset="0.3517" stop-color="#AEA5AF"/>
<stop offset="0.472" stop-color="#C388B4"/>
<stop offset="0.5" stop-color="#C980B6"/>
<stop offset="0.5495" stop-color="#BA7AB3"/>
<stop offset="0.6644" stop-color="#9D6EAE"/>
<stop offset="0.7788" stop-color="#8966AA"/>
<stop offset="0.8914" stop-color="#7C61A8"/>
<stop offset="1" stop-color="#785FA7"/>
</linearGradient>
<linearGradient id="paint5_linear" x1="93.919" y1="22.9801" x2="38.5235" y2="79.0541" gradientUnits="userSpaceOnUse">
<stop offset="0.000661376" stop-color="#92CAA7"/>
<stop offset="0.1143" stop-color="#95C6A8"/>
<stop offset="0.2321" stop-color="#9EB9AA"/>
<stop offset="0.3517" stop-color="#AEA5AF"/>
<stop offset="0.472" stop-color="#C388B4"/>
<stop offset="0.5" stop-color="#C980B6"/>
<stop offset="0.5495" stop-color="#BA7AB3"/>
<stop offset="0.6644" stop-color="#9D6EAE"/>
<stop offset="0.7788" stop-color="#8966AA"/>
<stop offset="0.8914" stop-color="#7C61A8"/>
<stop offset="1" stop-color="#785FA7"/>
</linearGradient>
<linearGradient id="paint6_linear" x1="97.5475" y1="26.5649" x2="42.1521" y2="82.6388" gradientUnits="userSpaceOnUse">
<stop offset="0.000661376" stop-color="#92CAA7"/>
<stop offset="0.1143" stop-color="#95C6A8"/>
<stop offset="0.2321" stop-color="#9EB9AA"/>
<stop offset="0.3517" stop-color="#AEA5AF"/>
<stop offset="0.472" stop-color="#C388B4"/>
<stop offset="0.5" stop-color="#C980B6"/>
<stop offset="0.5495" stop-color="#BA7AB3"/>
<stop offset="0.6644" stop-color="#9D6EAE"/>
<stop offset="0.7788" stop-color="#8966AA"/>
<stop offset="0.8914" stop-color="#7C61A8"/>
<stop offset="1" stop-color="#785FA7"/>
</linearGradient>
<linearGradient id="paint7_linear" x1="101.024" y1="29.999" x2="45.6285" y2="86.0731" gradientUnits="userSpaceOnUse">
<stop offset="0.000661376" stop-color="#92CAA7"/>
<stop offset="0.1143" stop-color="#95C6A8"/>
<stop offset="0.2321" stop-color="#9EB9AA"/>
<stop offset="0.3517" stop-color="#AEA5AF"/>
<stop offset="0.472" stop-color="#C388B4"/>
<stop offset="0.5" stop-color="#C980B6"/>
<stop offset="0.5495" stop-color="#BA7AB3"/>
<stop offset="0.6644" stop-color="#9D6EAE"/>
<stop offset="0.7788" stop-color="#8966AA"/>
<stop offset="0.8914" stop-color="#7C61A8"/>
<stop offset="1" stop-color="#785FA7"/>
</linearGradient>
<linearGradient id="paint8_linear" x1="104.627" y1="33.5629" x2="49.2317" y2="89.6233" gradientUnits="userSpaceOnUse">
<stop offset="0.000661376" stop-color="#92CAA7"/>
<stop offset="0.1143" stop-color="#95C6A8"/>
<stop offset="0.2321" stop-color="#9EB9AA"/>
<stop offset="0.3517" stop-color="#AEA5AF"/>
<stop offset="0.472" stop-color="#C388B4"/>
<stop offset="0.5" stop-color="#C980B6"/>
<stop offset="0.5495" stop-color="#BA7AB3"/>
<stop offset="0.6644" stop-color="#9D6EAE"/>
<stop offset="0.7788" stop-color="#8966AA"/>
<stop offset="0.8914" stop-color="#7C61A8"/>
<stop offset="1" stop-color="#785FA7"/>
</linearGradient>
<linearGradient id="paint9_linear" x1="107.068" y1="35.9697" x2="51.6722" y2="92.0436" gradientUnits="userSpaceOnUse">
<stop offset="0.000661376" stop-color="#92CAA7"/>
<stop offset="0.1143" stop-color="#95C6A8"/>
<stop offset="0.2321" stop-color="#9EB9AA"/>
<stop offset="0.3517" stop-color="#AEA5AF"/>
<stop offset="0.472" stop-color="#C388B4"/>
<stop offset="0.5" stop-color="#C980B6"/>
<stop offset="0.5495" stop-color="#BA7AB3"/>
<stop offset="0.6644" stop-color="#9D6EAE"/>
<stop offset="0.7788" stop-color="#8966AA"/>
<stop offset="0.8914" stop-color="#7C61A8"/>
<stop offset="1" stop-color="#785FA7"/>
</linearGradient>
<linearGradient id="paint10_linear" x1="112.231" y1="41.0709" x2="56.8359" y2="97.1448" gradientUnits="userSpaceOnUse">
<stop offset="0.000661376" stop-color="#92CAA7"/>
<stop offset="0.1143" stop-color="#95C6A8"/>
<stop offset="0.2321" stop-color="#9EB9AA"/>
<stop offset="0.3517" stop-color="#AEA5AF"/>
<stop offset="0.472" stop-color="#C388B4"/>
<stop offset="0.5" stop-color="#C980B6"/>
<stop offset="0.5495" stop-color="#BA7AB3"/>
<stop offset="0.6644" stop-color="#9D6EAE"/>
<stop offset="0.7788" stop-color="#8966AA"/>
<stop offset="0.8914" stop-color="#7C61A8"/>
<stop offset="1" stop-color="#785FA7"/>
</linearGradient>
<linearGradient id="paint11_linear" x1="105.825" y1="34.7418" x2="50.4293" y2="90.8159" gradientUnits="userSpaceOnUse">
<stop offset="0.000661376" stop-color="#92CAA7"/>
<stop offset="0.1143" stop-color="#95C6A8"/>
<stop offset="0.2321" stop-color="#9EB9AA"/>
<stop offset="0.3517" stop-color="#AEA5AF"/>
<stop offset="0.472" stop-color="#C388B4"/>
<stop offset="0.5" stop-color="#C980B6"/>
<stop offset="0.5495" stop-color="#BA7AB3"/>
<stop offset="0.6644" stop-color="#9D6EAE"/>
<stop offset="0.7788" stop-color="#8966AA"/>
<stop offset="0.8914" stop-color="#7C61A8"/>
<stop offset="1" stop-color="#785FA7"/>
</linearGradient>
<linearGradient id="paint12_linear" x1="109.7" y1="38.5704" x2="54.3048" y2="94.6445" gradientUnits="userSpaceOnUse">
<stop offset="0.000661376" stop-color="#92CAA7"/>
<stop offset="0.1143" stop-color="#95C6A8"/>
<stop offset="0.2321" stop-color="#9EB9AA"/>
<stop offset="0.3517" stop-color="#AEA5AF"/>
<stop offset="0.472" stop-color="#C388B4"/>
<stop offset="0.5" stop-color="#C980B6"/>
<stop offset="0.5495" stop-color="#BA7AB3"/>
<stop offset="0.6644" stop-color="#9D6EAE"/>
<stop offset="0.7788" stop-color="#8966AA"/>
<stop offset="0.8914" stop-color="#7C61A8"/>
<stop offset="1" stop-color="#785FA7"/>
</linearGradient>
<linearGradient id="paint13_linear" x1="113.333" y1="42.159" x2="57.9373" y2="98.233" gradientUnits="userSpaceOnUse">
<stop offset="0.000661376" stop-color="#92CAA7"/>
<stop offset="0.1143" stop-color="#95C6A8"/>
<stop offset="0.2321" stop-color="#9EB9AA"/>
<stop offset="0.3517" stop-color="#AEA5AF"/>
<stop offset="0.472" stop-color="#C388B4"/>
<stop offset="0.5" stop-color="#C980B6"/>
<stop offset="0.5495" stop-color="#BA7AB3"/>
<stop offset="0.6644" stop-color="#9D6EAE"/>
<stop offset="0.7788" stop-color="#8966AA"/>
<stop offset="0.8914" stop-color="#7C61A8"/>
<stop offset="1" stop-color="#785FA7"/>
</linearGradient>
<linearGradient id="paint14_linear" x1="116.602" y1="45.3889" x2="61.2068" y2="101.463" gradientUnits="userSpaceOnUse">
<stop offset="0.000661376" stop-color="#92CAA7"/>
<stop offset="0.1143" stop-color="#95C6A8"/>
<stop offset="0.2321" stop-color="#9EB9AA"/>
<stop offset="0.3517" stop-color="#AEA5AF"/>
<stop offset="0.472" stop-color="#C388B4"/>
<stop offset="0.5" stop-color="#C980B6"/>
<stop offset="0.5495" stop-color="#BA7AB3"/>
<stop offset="0.6644" stop-color="#9D6EAE"/>
<stop offset="0.7788" stop-color="#8966AA"/>
<stop offset="0.8914" stop-color="#7C61A8"/>
<stop offset="1" stop-color="#785FA7"/>
</linearGradient>
<clipPath id="clip0">
<path d="M0 0H132.362V129.697H0V0Z" fill="white"/>
</clipPath>
</defs>
</svg>
