<svg width="133" height="130" viewBox="0 0 133 130" fill="none" xmlns="http://www.w3.org/2000/svg">
<g clip-path="url(#clip0)">
<path d="M74.8867 129.42C74.8867 129.42 67.7677 120.752 51.145 117.933C34.9655 114.157 15.3905 98.3723 10.3726 76.2052C4.55686 54.2508 14.3443 31.2949 26.8624 20.5614C39.2918 9.29615 50.9411 7.55008 50.7106 7.39941C50.9943 7.73621 39.4425 9.74819 27.3234 21.0578C15.1068 31.8533 5.80689 54.5079 11.7024 75.8773C16.8267 97.4594 35.985 112.571 51.6414 116.081C55.3915 116.657 58.7338 117.552 61.6594 118.598C72.7058 122.515 76.9524 127.568 76.9524 127.568L74.8867 129.42Z" fill="#EFC43A"/>
<path d="M57.475 129.42C57.475 129.42 64.5939 120.752 81.2167 117.933C97.3962 114.157 116.962 98.3723 121.989 76.2052C127.805 54.2508 118.017 31.2949 105.499 20.5614C93.0699 9.29615 81.4206 7.55008 81.66 7.39941C81.3763 7.73621 92.928 9.74819 105.038 21.0578C117.255 31.8533 126.555 54.5079 120.659 75.8773C115.535 97.4594 96.3678 112.571 80.7203 116.081C76.9702 116.657 73.6279 117.552 70.7023 118.598C59.6559 122.515 55.4093 127.568 55.4093 127.568L57.475 129.42Z" fill="#EFC43A"/>
<path d="M46.3576 104.223C46.3576 104.223 50.8878 105.783 52.3861 109.39C54.2656 113.901 53.45 117.686 53.45 117.686C53.45 117.686 48.9108 115.328 47.3948 112.882C45.2583 109.443 46.3576 104.223 46.3576 104.223Z" fill="#EFC43A"/>
<path d="M38.4053 124.059C38.4053 124.059 42.9887 125.468 46.331 123.429C50.5067 120.886 52.0759 117.349 52.0759 117.349C52.0759 117.349 47.0137 116.587 44.3451 117.668C40.595 119.193 38.4053 124.059 38.4053 124.059Z" fill="#EFC43A"/>
<path d="M39.3007 100.331C39.3007 100.331 43.4054 102.608 44.2387 106.349C45.2849 111.029 43.8575 114.538 43.8575 114.538C43.8575 114.538 39.8769 111.489 38.8308 108.866C37.3591 105.179 39.3007 100.331 39.3007 100.331Z" fill="#EFC43A"/>
<path d="M28.2544 118.12C28.2544 118.12 32.4389 120.256 36.0117 118.856C40.471 117.11 42.5899 113.963 42.5899 113.963C42.5899 113.963 37.838 112.368 35.0719 112.962C31.1888 113.795 28.2544 118.12 28.2544 118.12Z" fill="#EFC43A"/>
<path d="M32.9706 95.2793C32.9706 95.2793 36.5434 98.1776 36.7119 101.927C36.9246 106.616 34.9476 109.762 34.9476 109.762C34.9476 109.762 31.6231 106.146 31.0645 103.434C30.2666 99.6311 32.9706 95.2793 32.9706 95.2793Z" fill="#EFC43A"/>
<path d="M19.2825 110.568C19.2825 110.568 22.9528 113.342 26.6408 112.597C31.242 111.667 33.8219 108.999 33.8219 108.999C33.8219 108.999 29.5044 106.65 26.7383 106.748C22.8553 106.898 19.2825 110.568 19.2825 110.568Z" fill="#EFC43A"/>
<path d="M27.5983 89.1543C27.5983 89.1543 30.5594 92.5578 30.0806 96.2094C29.4866 100.774 27.0486 103.468 27.0486 103.468C27.0486 103.468 24.4599 99.4091 24.3713 96.6969C24.2471 92.8946 27.5983 89.1543 27.5983 89.1543Z" fill="#EFC43A"/>
<path d="M11.7822 101.58C11.7822 101.58 14.8585 104.877 18.5377 104.789C23.1389 104.674 26.0823 102.538 26.0823 102.538C26.0823 102.538 22.3144 99.5331 19.6282 99.1609C15.8515 98.6379 11.7822 101.58 11.7822 101.58Z" fill="#EFC43A"/>
<path d="M23.3341 82.2051C23.3341 82.2051 25.6125 85.9898 24.5309 89.4376C23.1834 93.7363 20.3641 95.9344 20.3641 95.9344C20.3641 95.9344 18.5556 91.5825 18.9368 88.9501C19.4599 85.2452 23.3341 82.2051 23.3341 82.2051Z" fill="#EFC43A"/>
<path d="M5.95752 91.512C5.95752 91.512 8.36007 95.2168 11.9329 95.7575C16.3922 96.4311 19.5927 94.8623 19.5927 94.8623C19.5927 94.8623 16.472 91.3258 13.9365 90.5104C10.3814 89.367 5.95752 91.512 5.95752 91.512Z" fill="#EFC43A"/>
<path d="M20.3907 74.6631C20.3907 74.6631 21.9422 78.7048 20.3109 81.8424C18.2807 85.7688 15.1867 87.3997 15.1867 87.3997C15.1867 87.3997 14.1849 82.8882 14.9916 80.4154C16.1353 76.941 20.3907 74.6631 20.3907 74.6631Z" fill="#EFC43A"/>
<path d="M2.03906 80.6809C2.03906 80.6809 3.7235 84.6693 7.07466 85.795C11.2592 87.2043 14.6192 86.2382 14.6192 86.2382C14.6192 86.2382 12.2078 82.294 9.90275 81.0708C6.67571 79.3691 2.03906 80.6809 2.03906 80.6809Z" fill="#EFC43A"/>
<path d="M18.7682 66.748C18.7682 66.748 19.575 70.9137 17.4739 73.6613C14.8408 77.1003 11.5783 78.1551 11.5783 78.1551C11.5783 78.1551 11.3744 73.6259 12.589 71.3746C14.2734 68.2193 18.7682 66.748 18.7682 66.748Z" fill="#EFC43A"/>
<path d="M0.0356445 69.4337C0.0356445 69.4337 0.984251 73.5729 4.02511 75.2303C7.8284 77.3043 11.2327 76.9409 11.2327 76.9409C11.2327 76.9409 9.5749 72.722 7.56244 71.1532C4.73435 68.9551 0.0356445 69.4337 0.0356445 69.4337Z" fill="#EFC43A"/>
<path d="M18.5465 58.6289C18.5465 58.6289 18.6174 62.7858 16.1173 65.0814C12.9878 67.9531 9.67212 68.414 9.67212 68.414C9.67212 68.414 10.2484 64.0178 11.7999 62.0413C13.9542 59.2848 18.5465 58.6289 18.5465 58.6289Z" fill="#EFC43A"/>
<path d="M0 58.0352C0 58.0352 0.212772 62.1921 2.87242 64.3104C6.18811 66.9606 9.53926 67.191 9.53926 67.191C9.53926 67.191 8.66158 62.8391 6.986 60.9867C4.61892 58.372 0 58.0352 0 58.0352Z" fill="#EFC43A"/>
<path d="M19.7078 50.3331C19.7078 50.3331 19.0695 54.3571 16.268 56.1475C12.7662 58.3899 9.47705 58.2658 9.47705 58.2658C9.47705 58.2658 10.7803 54.1178 12.6155 52.4781C15.1687 50.1825 19.7078 50.3331 19.7078 50.3331Z" fill="#EFC43A"/>
<path d="M1.91483 46.6016C1.91483 46.6016 1.4095 50.6433 3.617 53.1427C6.3653 56.2626 9.55688 57.0603 9.55688 57.0603C9.55688 57.0603 9.45049 52.7084 8.14727 50.6344C6.31211 47.7184 1.91483 46.6016 1.91483 46.6016Z" fill="#EFC43A"/>
<path d="M22.3055 42.2409C22.3055 42.2409 21.0111 46.0167 17.9969 47.2664C14.229 48.8352 11.0818 48.1528 11.0818 48.1528C11.0818 48.1528 13.0499 44.3681 15.089 43.1007C17.9525 41.328 22.3055 42.2409 22.3055 42.2409Z" fill="#EFC43A"/>
<path d="M5.77139 35.6113C5.77139 35.6113 4.60115 39.4314 6.30332 42.2145C8.43104 45.6889 11.3744 47.0007 11.3744 47.0007C11.3744 47.0007 12.0127 42.7817 11.1084 40.5571C9.83178 37.4372 5.77139 35.6113 5.77139 35.6113Z" fill="#EFC43A"/>
<path d="M26.3216 34.7338C26.3216 34.7338 24.4244 38.1551 21.3037 38.8553C17.4029 39.7239 14.4773 38.5362 14.4773 38.5362C14.4773 38.5362 17.0217 35.2213 19.2026 34.3438C22.2701 33.1118 26.3216 34.7338 26.3216 34.7338Z" fill="#EFC43A"/>
<path d="M11.4896 25.5244C11.4896 25.5244 9.70765 29.0077 10.8779 31.9858C12.3318 35.7083 14.956 37.4721 14.956 37.4721C14.956 37.4721 16.2858 33.5102 15.7894 31.2058C15.0979 27.9707 11.4896 25.5244 11.4896 25.5244Z" fill="#EFC43A"/>
<path d="M31.6231 28.0511C31.6231 28.0511 29.2118 31.0292 26.0734 31.171C22.1637 31.3482 19.5396 29.6997 19.5396 29.6997C19.5396 29.6997 22.5627 26.9343 24.8145 26.4557C27.9884 25.7998 31.6231 28.0511 31.6231 28.0511Z" fill="#EFC43A"/>
<path d="M18.8747 16.6436C18.8747 16.6436 16.5608 19.7014 17.1814 22.777C17.9527 26.6148 20.1868 28.7597 20.1868 28.7597C20.1868 28.7597 22.1461 25.1612 22.0574 22.8568C21.9333 19.6217 18.8747 16.6436 18.8747 16.6436Z" fill="#EFC43A"/>
<path d="M37.9533 22.4489C37.9533 22.4489 35.1163 24.9129 32.0666 24.514C28.2633 24.0177 26.0115 21.988 26.0115 21.988C26.0115 21.988 29.3981 19.8342 31.6588 19.7544C34.8237 19.657 37.9533 22.4489 37.9533 22.4489Z" fill="#EFC43A"/>
<path d="M27.5895 9.26953C27.5895 9.26953 24.8323 11.831 24.9121 14.8977C25.0007 18.7355 26.7916 21.1818 26.7916 21.1818C26.7916 21.1818 29.3005 18.0442 29.6108 15.8018C30.0363 12.6642 27.5895 9.26953 27.5895 9.26953Z" fill="#EFC43A"/>
<path d="M45.1165 18.0614C45.1165 18.0614 41.9604 19.9581 39.088 19.054C35.4974 17.9284 33.6711 15.5885 33.6711 15.5885C33.6711 15.5885 37.306 14.0817 39.5046 14.4008C42.5721 14.844 45.1165 18.0614 45.1165 18.0614Z" fill="#EFC43A"/>
<path d="M37.3592 3.5791C37.3592 3.5791 34.2651 5.5822 33.813 8.56027C33.2456 12.274 34.5577 14.9507 34.5577 14.9507C34.5577 14.9507 37.5099 12.3449 38.1837 10.2354C39.1411 7.27509 37.3592 3.5791 37.3592 3.5791Z" fill="#EFC43A"/>
<path d="M52.8028 15.0213C52.8028 15.0213 49.4339 16.3153 46.8097 14.9593C43.5384 13.2664 42.1731 10.6872 42.1731 10.6872C42.1731 10.6872 45.9321 9.854 48.0066 10.5276C50.9056 11.476 52.8028 15.0213 52.8028 15.0213Z" fill="#EFC43A"/>
<path d="M47.785 -0.276367C47.785 -0.276367 44.4604 1.13289 43.5207 3.92483C42.3416 7.41697 43.1483 10.2177 43.1483 10.2177C43.1483 10.2177 46.4463 8.20581 47.457 6.29133C48.8754 3.59689 47.785 -0.276367 47.785 -0.276367Z" fill="#EFC43A"/>
<path d="M47.9268 8.33856C47.9268 8.33856 50.418 9.74783 52.6255 8.98558C55.3826 8.03721 56.7479 6.17592 56.7479 6.17592C56.7479 6.17592 53.9021 5.08573 52.1999 5.36936C49.8328 5.78593 47.9268 8.33856 47.9268 8.33856Z" fill="#EFC43A"/>
<path d="M86.0041 104.223C86.0041 104.223 81.4738 105.783 79.9755 109.39C78.0961 113.901 78.9117 117.686 78.9117 117.686C78.9117 117.686 83.4508 115.328 84.9668 112.882C87.1034 109.443 86.0041 104.223 86.0041 104.223Z" fill="#EFC43A"/>
<path d="M93.9565 124.059C93.9565 124.059 89.373 125.468 86.0307 123.429C81.8639 120.886 80.2859 117.349 80.2859 117.349C80.2859 117.349 85.3481 116.587 88.0166 117.668C91.7667 119.193 93.9565 124.059 93.9565 124.059Z" fill="#EFC43A"/>
<path d="M93.061 100.331C93.061 100.331 88.9474 102.608 88.114 106.349C87.0679 111.029 88.4953 114.538 88.4953 114.538C88.4953 114.538 92.4759 111.489 93.522 108.866C95.0025 105.179 93.061 100.331 93.061 100.331Z" fill="#EFC43A"/>
<path d="M104.107 118.12C104.107 118.12 99.9228 120.256 96.35 118.856C91.8907 117.11 89.7719 113.963 89.7719 113.963C89.7719 113.963 94.5237 112.368 97.2898 112.962C101.164 113.795 104.107 118.12 104.107 118.12Z" fill="#EFC43A"/>
<path d="M99.3909 95.2793C99.3909 95.2793 95.8181 98.1776 95.6497 101.927C95.4369 106.616 97.4139 109.762 97.4139 109.762C97.4139 109.762 100.738 106.146 101.306 103.434C102.095 99.6311 99.3909 95.2793 99.3909 95.2793Z" fill="#EFC43A"/>
<path d="M113.079 110.568C113.079 110.568 109.409 113.342 105.721 112.597C101.12 111.667 98.5398 108.999 98.5398 108.999C98.5398 108.999 102.857 106.65 105.623 106.748C109.506 106.898 113.079 110.568 113.079 110.568Z" fill="#EFC43A"/>
<path d="M104.763 89.1543C104.763 89.1543 101.802 92.5578 102.281 96.2094C102.875 100.774 105.313 103.468 105.313 103.468C105.313 103.468 107.902 99.4091 107.99 96.6969C108.115 92.8946 104.763 89.1543 104.763 89.1543Z" fill="#EFC43A"/>
<path d="M120.579 101.58C120.579 101.58 117.503 104.877 113.824 104.789C109.223 104.674 106.279 102.538 106.279 102.538C106.279 102.538 110.047 99.5331 112.733 99.1609C116.501 98.6379 120.579 101.58 120.579 101.58Z" fill="#EFC43A"/>
<path d="M109.028 82.2051C109.028 82.2051 106.749 85.9897 107.831 89.4375C109.178 93.7362 111.998 95.9343 111.998 95.9343C111.998 95.9343 113.806 91.5825 113.425 88.9501C112.902 85.2452 109.028 82.2051 109.028 82.2051Z" fill="#EFC43A"/>
<path d="M126.404 91.5119C126.404 91.5119 124.001 95.2168 120.429 95.7574C115.969 96.431 112.769 94.8622 112.769 94.8622C112.769 94.8622 115.89 91.3258 118.425 90.5104C121.98 89.367 126.404 91.5119 126.404 91.5119Z" fill="#EFC43A"/>
<path d="M111.971 74.6631C111.971 74.6631 110.42 78.7048 112.051 81.8424C114.081 85.7688 117.175 87.3997 117.175 87.3997C117.175 87.3997 118.177 82.8882 117.37 80.4154C116.226 76.941 111.971 74.6631 111.971 74.6631Z" fill="#EFC43A"/>
<path d="M130.323 80.6809C130.323 80.6809 128.638 84.6693 125.278 85.795C121.085 87.2043 117.734 86.2382 117.734 86.2382C117.734 86.2382 120.145 82.294 122.441 81.0708C125.686 79.3691 130.323 80.6809 130.323 80.6809Z" fill="#EFC43A"/>
<path d="M113.593 66.748C113.593 66.748 112.787 70.9137 114.888 73.6613C117.521 77.1003 120.783 78.1551 120.783 78.1551C120.783 78.1551 120.987 73.6259 119.781 71.3746C118.088 68.2193 113.593 66.748 113.593 66.748Z" fill="#EFC43A"/>
<path d="M132.335 69.4337C132.335 69.4337 131.386 73.5729 128.337 75.2303C124.533 77.3043 121.129 76.9409 121.129 76.9409C121.129 76.9409 122.787 72.722 124.799 71.1532C127.627 68.9551 132.335 69.4337 132.335 69.4337Z" fill="#EFC43A"/>
<path d="M113.815 58.6289C113.815 58.6289 113.744 62.7858 116.244 65.0814C119.365 67.9531 122.689 68.414 122.689 68.414C122.689 68.414 122.113 64.0178 120.562 62.0413C118.398 59.2848 113.815 58.6289 113.815 58.6289Z" fill="#EFC43A"/>
<path d="M132.362 58.0352C132.362 58.0352 132.149 62.1921 129.498 64.3104C126.182 66.9606 122.831 67.191 122.831 67.191C122.831 67.191 123.709 62.8391 125.384 60.9867C127.743 58.372 132.362 58.0352 132.362 58.0352Z" fill="#EFC43A"/>
<path d="M112.654 50.3331C112.654 50.3331 113.292 54.3571 116.093 56.1475C119.595 58.3899 122.884 58.2658 122.884 58.2658C122.884 58.2658 121.581 54.1178 119.746 52.4781C117.193 50.1825 112.654 50.3331 112.654 50.3331Z" fill="#EFC43A"/>
<path d="M130.447 46.6016C130.447 46.6016 130.952 50.6433 128.745 53.1427C125.996 56.2626 122.805 57.0603 122.805 57.0603C122.805 57.0603 122.911 52.7084 124.214 50.6344C126.049 47.7184 130.447 46.6016 130.447 46.6016Z" fill="#EFC43A"/>
<path d="M110.056 42.2409C110.056 42.2409 111.359 46.0167 114.374 47.2664C118.141 48.8352 121.289 48.1528 121.289 48.1528C121.289 48.1528 119.321 44.3681 117.282 43.1007C114.409 41.328 110.056 42.2409 110.056 42.2409Z" fill="#EFC43A"/>
<path d="M126.59 35.6113C126.59 35.6113 127.761 39.4314 126.058 42.2145C123.931 45.6889 120.987 47.0007 120.987 47.0007C120.987 47.0007 120.349 42.7817 121.253 40.5571C122.53 37.4372 126.59 35.6113 126.59 35.6113Z" fill="#EFC43A"/>
<path d="M106.04 34.7338C106.04 34.7338 107.937 38.1551 111.058 38.8553C114.959 39.7239 117.884 38.5362 117.884 38.5362C117.884 38.5362 115.34 35.2213 113.159 34.3438C110.083 33.1118 106.04 34.7338 106.04 34.7338Z" fill="#EFC43A"/>
<path d="M120.872 25.5244C120.872 25.5244 122.654 29.0077 121.493 31.9858C120.039 35.7083 117.414 37.4721 117.414 37.4721C117.414 37.4721 116.085 33.5102 116.581 31.2058C117.264 27.9707 120.872 25.5244 120.872 25.5244Z" fill="#EFC43A"/>
<path d="M100.739 28.0511C100.739 28.0511 103.15 31.0292 106.279 31.171C110.189 31.3482 112.813 29.6997 112.813 29.6997C112.813 29.6997 109.79 26.9343 107.538 26.4557C104.373 25.7998 100.739 28.0511 100.739 28.0511Z" fill="#EFC43A"/>
<path d="M113.487 16.6436C113.487 16.6436 115.801 19.7014 115.18 22.777C114.409 26.6148 112.175 28.7597 112.175 28.7597C112.175 28.7597 110.216 25.1612 110.296 22.8568C110.429 19.6217 113.487 16.6436 113.487 16.6436Z" fill="#EFC43A"/>
<path d="M94.4086 22.4489C94.4086 22.4489 97.2455 24.9129 100.295 24.514C104.099 24.0177 106.35 21.988 106.35 21.988C106.35 21.988 102.964 19.8342 100.703 19.7544C97.5292 19.657 94.4086 22.4489 94.4086 22.4489Z" fill="#EFC43A"/>
<path d="M104.772 9.26953C104.772 9.26953 107.529 11.831 107.45 14.8977C107.361 18.7355 105.57 21.1818 105.57 21.1818C105.57 21.1818 103.061 18.0442 102.76 15.8018C102.325 12.6642 104.772 9.26953 104.772 9.26953Z" fill="#EFC43A"/>
<path d="M87.2452 18.0614C87.2452 18.0614 90.4013 19.9581 93.2738 19.054C96.8643 17.9284 98.6906 15.5885 98.6906 15.5885C98.6906 15.5885 95.0557 14.0817 92.8571 14.4008C89.7808 14.844 87.2452 18.0614 87.2452 18.0614Z" fill="#EFC43A"/>
<path d="M95.0025 3.5791C95.0025 3.5791 98.0966 5.5822 98.5487 8.56027C99.1161 12.274 97.804 14.9507 97.804 14.9507C97.804 14.9507 94.8518 12.3449 94.1781 10.2354C93.2206 7.27509 95.0025 3.5791 95.0025 3.5791Z" fill="#EFC43A"/>
<path d="M79.5588 15.0213C79.5588 15.0213 82.9366 16.3153 85.5519 14.9593C88.8233 13.2664 90.1886 10.6872 90.1886 10.6872C90.1886 10.6872 86.4296 9.854 84.3639 10.5276C81.4561 11.476 79.5588 15.0213 79.5588 15.0213Z" fill="#EFC43A"/>
<path d="M84.5767 -0.276367C84.5767 -0.276367 87.9101 1.13289 88.8499 3.92483C90.0201 7.41697 89.2222 10.2177 89.2222 10.2177C89.2222 10.2177 85.9331 8.20581 84.9136 6.29133C83.4863 3.59689 84.5767 -0.276367 84.5767 -0.276367Z" fill="#EFC43A"/>
<path d="M84.426 8.33856C84.426 8.33856 81.9348 9.74783 79.7273 8.98558C76.9701 8.03721 75.6049 6.17592 75.6049 6.17592C75.6049 6.17592 78.4595 5.08573 80.1529 5.36936C82.5288 5.78593 84.426 8.33856 84.426 8.33856Z" fill="#EFC43A"/>
<path d="M29.8501 50.7848V40.1045H31.9867V50.7848H29.8501ZM36.8361 42.1254H32.43V40.1045H36.8361V42.1254ZM35.9141 46.3354H32.43V44.3146H35.9141V46.3354ZM36.8361 50.7848H32.43V48.764H36.8361V50.7848Z" fill="#EFC43A"/>
<path d="M40.2494 50.8469C38.9994 50.8469 38.1394 49.9871 38.1394 48.7374V40.1045H40.276V48.3208C40.276 48.6488 40.4533 48.826 40.7813 48.826H41.7299V50.8469H40.2494ZM43.1218 48.826C43.4498 48.826 43.6271 48.6488 43.6271 48.3208V40.1045H45.7637V48.7374C45.7637 49.9871 44.9038 50.8469 43.6537 50.8469H42.1732V48.826H43.1218Z" fill="#EFC43A"/>
<path d="M49.4606 40.1045V50.7848H47.324V40.1045H49.4606ZM52.9004 50.7848L51.1805 46.8229H49.9038V44.8375H52.2354C52.5635 44.8375 52.7408 44.6603 52.7408 44.3323V42.6306C52.7408 42.3026 52.5635 42.1254 52.2354 42.1254H49.9038V40.1045H52.7674C54.0174 40.1045 54.8774 40.9643 54.8774 42.214V44.7223C54.8774 45.7327 54.31 46.4861 53.4234 46.7431L55.2054 50.7937H52.9004V50.7848Z" fill="#EFC43A"/>
<path d="M58.8845 42.0638C58.5565 42.0638 58.3792 42.241 58.3792 42.569V48.3301C58.3792 48.6581 58.5565 48.8353 58.8845 48.8353H59.9218V50.8562H58.3437C57.0937 50.8562 56.2338 49.9964 56.2338 48.7467V42.1613C56.2338 40.9116 57.0937 40.0518 58.3437 40.0518H59.9218V42.0726H58.8845V42.0638ZM61.9254 40.0518C63.1666 40.0518 64.0354 40.9116 64.0354 42.1613V48.7467C64.0354 49.9964 63.1754 50.8562 61.9254 50.8562H60.3739V48.8265H61.3935C61.7215 48.8265 61.8988 48.6492 61.8988 48.3213V42.5601C61.8988 42.2322 61.7215 42.0549 61.3935 42.0549H60.3739V40.0518H61.9254Z" fill="#EFC43A"/>
<path d="M65.5425 50.7848V40.1045H67.6791V50.7848H65.5425ZM71.0036 40.1045C72.2536 40.1045 73.1136 40.9643 73.1136 42.214V44.9173C73.1136 46.167 72.2536 47.0268 71.0036 47.0268H68.1223V45.0059H70.4628C70.7909 45.0059 70.9682 44.8287 70.9682 44.5007V42.6306C70.9682 42.3026 70.7909 42.1254 70.4628 42.1254H68.1223V40.1045H71.0036Z" fill="#EFC43A"/>
<path d="M74.4169 50.7848V40.1045H76.5534V50.7848H74.4169ZM81.4029 42.1254H76.9967V40.1045H81.4029V42.1254ZM80.4897 46.3354H77.0056V44.3146H80.4897V46.3354ZM81.4029 50.7848H76.9967V48.764H81.4029V50.7848Z" fill="#EFC43A"/>
<path d="M85.7647 40.1045H85.8711L86.7931 43.2687L84.5412 50.7937H82.3337L85.7647 40.1045ZM88.708 48.3829H85.6672L86.2612 46.362H88.1318L86.3232 40.1045H88.2647L91.7046 50.7848H89.4084L88.708 48.3829Z" fill="#EFC43A"/>
<path d="M94.8607 50.7848H92.8571V40.6275L94.8607 44.3501V50.7848ZM93.0344 40.1045H95.1532L100.907 50.7848H98.7881L93.0344 40.1045ZM99.0895 46.5482V40.1134H101.093V50.2796L99.0895 46.5482Z" fill="#EFC43A"/>
<path d="M53.0688 55.4029C53.0688 55.0749 52.8915 54.8977 52.5635 54.8977H50.4269C50.0989 54.8977 49.9216 55.0749 49.9216 55.4029V56.4133C49.9216 56.7412 50.0989 56.8476 50.4269 56.9185L53.1841 57.5123C54.3366 57.7605 55.3207 58.4607 55.3207 59.6484V61.5806C55.3207 62.8303 54.4607 63.6901 53.2107 63.6901H49.8861C48.6361 63.6901 47.7761 62.8303 47.7761 61.5806V60.2156H49.8506V61.164C49.8506 61.492 50.028 61.6692 50.356 61.6692H52.6699C52.9979 61.6692 53.1752 61.492 53.1752 61.164V60.0384C53.1752 59.7104 52.9979 59.6041 52.6699 59.5332L49.9127 58.9393C48.7602 58.6823 47.785 57.991 47.785 56.8033V54.9952C47.785 53.7454 48.6449 52.8857 49.895 52.8857H53.0422C54.2923 52.8857 55.1522 53.7454 55.1522 54.9952V56.2449H53.0777V55.4029H53.0688Z" fill="#333333"/>
<path d="M63.7784 52.9473V54.9681H58.9289V57.1662H62.8652V59.1871H58.9289V61.6245H63.7784V63.6453H56.7924V52.9473H63.7784Z" fill="#333333"/>
<path d="M66.8989 63.6276H64.6914L68.1312 52.9473H70.6224L74.0622 63.6276H71.7572L71.0568 61.2256H67.5993L66.8989 63.6276ZM68.211 59.2048H70.4983L69.3724 55.2872L68.211 59.2048Z" fill="#333333"/>
<path d="M80.8 63.6276L79.0801 59.6657H77.3602V63.6276H75.2236V52.9473H80.667C81.9171 52.9473 82.777 53.8071 82.777 55.0568V57.5651C82.777 58.5755 82.2096 59.3289 81.3231 59.5859L83.105 63.6364H80.8V63.6276ZM80.6404 55.4645C80.6404 55.1365 80.4631 54.9593 80.1351 54.9593H77.3602V57.6714H80.1351C80.4631 57.6714 80.6404 57.4942 80.6404 57.1662V55.4645Z" fill="#333333"/>
<path d="M89.6034 55.4029C89.6034 55.0749 89.4261 54.8977 89.0981 54.8977H86.7842C86.4562 54.8977 86.2789 55.0749 86.2789 55.4029V61.164C86.2789 61.492 86.4562 61.6692 86.7842 61.6692H89.0981C89.4261 61.6692 89.6034 61.492 89.6034 61.164V59.8611H91.74V61.5806C91.74 62.8303 90.8801 63.6901 89.63 63.6901H86.2434C84.9934 63.6901 84.1334 62.8303 84.1334 61.5806V54.9952C84.1334 53.7454 84.9934 52.8857 86.2434 52.8857H89.63C90.8801 52.8857 91.74 53.7454 91.74 54.9952V56.7146H89.6034V55.4029Z" fill="#333333"/>
<path d="M93.1407 52.9473H95.2773V57.1574H98.9565V52.9473H101.093V63.6276H98.9565V59.1782H95.2773V63.6276H93.1407V52.9473Z" fill="#333333"/>
<path d="M46.1981 76.4625H43.9906L47.4304 65.7822H49.9216L53.3614 76.4625H51.0653L50.3649 74.0606H46.9073L46.1981 76.4625ZM47.5013 72.0397H49.7886L48.6627 68.1221L47.5013 72.0397Z" fill="#333333"/>
<path d="M61.0212 76.4625L59.2747 69.4339L57.5282 76.4625H55.4182L52.7585 65.7822H55.0458L56.4998 73.5819L58.4325 65.7822H60.1258L62.0584 73.5819L63.5124 65.7822H65.711L63.0514 76.4625H61.0212Z" fill="#333333"/>
<path d="M67.3157 76.4625H65.1082L68.548 65.7822H71.0392L74.479 76.4625H72.1739L71.4736 74.0606H68.016L67.3157 76.4625ZM68.6278 72.0397H70.915L69.7891 68.1221L68.6278 72.0397Z" fill="#333333"/>
<path d="M81.2168 76.4625L79.4969 72.5006H77.777V76.4625H75.6404V65.7822H81.0838C82.3338 65.7822 83.1938 66.642 83.1938 67.8917V70.4C83.1938 71.4104 82.6264 72.1638 81.7398 72.4208L83.5218 76.4714H81.2168V76.4625ZM81.0572 68.2994C81.0572 67.9715 80.8799 67.7942 80.5519 67.7942H77.777V70.5064H80.5519C80.8799 70.5064 81.0572 70.3291 81.0572 70.0012V68.2994Z" fill="#333333"/>
<path d="M90.4102 65.7822C91.6602 65.7822 92.5202 66.642 92.5202 67.8917V74.3619C92.5202 75.6116 91.6602 76.4714 90.4102 76.4714H84.8427V65.7822H90.4102ZM89.8782 74.4417C90.2063 74.4417 90.3836 74.2644 90.3836 73.9365V68.2994C90.3836 67.9715 90.2063 67.7942 89.8782 67.7942H86.9881V74.4417H89.8782Z" fill="#333333"/>
<path d="M99.1427 68.2457C99.1427 67.9177 98.9654 67.7405 98.6373 67.7405H96.5008C96.1727 67.7405 95.9954 67.9177 95.9954 68.2457V69.2561C95.9954 69.584 96.1727 69.6904 96.5008 69.7613L99.2579 70.3552C100.419 70.6033 101.394 71.3035 101.394 72.4912V74.4234C101.394 75.6731 100.535 76.5329 99.2845 76.5329H95.96C94.7099 76.5329 93.85 75.6731 93.85 74.4234V73.0585H95.9245V74.0068C95.9245 74.3348 96.1018 74.512 96.4298 74.512H98.7437C99.0717 74.512 99.249 74.3348 99.249 74.0068V72.8812C99.249 72.5533 99.0717 72.4469 98.7437 72.376L95.9866 71.7821C94.834 71.5251 93.85 70.8338 93.85 69.6461V67.838C93.85 66.5883 94.7099 65.7285 95.96 65.7285H99.1072C100.357 65.7285 101.217 66.5883 101.217 67.838V69.0877H99.1427V68.2457Z" fill="#333333"/>
<path d="M70.5462 89.296H67V85.7064C67 84.5187 68.0106 83.9515 69.1366 83.5703L71.6898 82.684C72.0799 82.5511 72.2838 82.4801 72.2838 82.0902V81.1684C72.2838 80.7784 72.0799 80.5745 71.6898 80.5745H70.9894V78.5537H72.2838C73.4718 78.5537 74.4204 79.5021 74.4204 80.6898V82.5599C74.4204 83.7476 73.4097 84.3149 72.2838 84.696L69.7305 85.5823C69.3405 85.7153 69.1366 85.7862 69.1366 86.1761V87.2752H70.5462V89.296ZM67.1152 80.6898C67.1152 79.5021 68.0638 78.5537 69.2518 78.5537H70.5462V80.5745H69.7926C69.4114 80.5745 69.1986 80.7784 69.1986 81.1684V81.8509H67.1241V80.6898H67.1152ZM70.9894 89.296V87.2752H74.447V89.296H70.9894Z" fill="#EFC43A"/>
<path d="M78.33 80.5746C78.002 80.5746 77.8247 80.7518 77.8247 81.0798V86.8409C77.8247 87.1689 78.002 87.3461 78.33 87.3461H79.2343V89.367H77.7981C76.548 89.367 75.6881 88.5072 75.6881 87.2575V80.6721C75.6881 79.4223 76.548 78.5626 77.7981 78.5626H79.2343V80.5834H78.33V80.5746ZM81.1315 78.5537C82.3815 78.5537 83.2415 79.4135 83.2415 80.6632V87.2486C83.2415 88.4984 82.3815 89.3581 81.1315 89.3581H79.6775V87.3373H80.5996C80.9276 87.3373 81.1049 87.16 81.1049 86.8321V81.0709C81.1049 80.743 80.9276 80.5657 80.5996 80.5657H79.6775V78.5449H81.1315V78.5537Z" fill="#EFC43A"/>
<path d="M87.8439 89.296H84.2977V85.7064C84.2977 84.5187 85.3083 83.9515 86.4343 83.5703L88.9875 82.684C89.3776 82.5511 89.5815 82.4801 89.5815 82.0902V81.1684C89.5815 80.7784 89.3776 80.5745 88.9875 80.5745H88.2871V78.5537H89.5815C90.7695 78.5537 91.7181 79.5021 91.7181 80.6898V82.5599C91.7181 83.7476 90.7074 84.3149 89.5815 84.696L87.0282 85.5823C86.6382 85.7153 86.4343 85.7862 86.4343 86.1761V87.2752H87.8439V89.296ZM84.4129 80.6898C84.4129 79.5021 85.3615 78.5537 86.5495 78.5537H87.8439V80.5745H87.0903C86.7091 80.5745 86.4963 80.7784 86.4963 81.1684V81.8509H84.4218V80.6898H84.4129ZM88.2871 89.296V87.2752H91.7447V89.296H88.2871Z" fill="#EFC43A"/>
<path d="M95.6277 80.5746C95.2997 80.5746 95.1224 80.7518 95.1224 81.0798V86.8409C95.1224 87.1689 95.2997 87.3461 95.6277 87.3461H96.532V89.367H95.0958C93.8457 89.367 92.9858 88.5072 92.9858 87.2575V80.6721C92.9858 79.4223 93.8457 78.5626 95.0958 78.5626H96.532V80.5834H95.6277V80.5746ZM98.4292 78.5537C99.6792 78.5537 100.539 79.4135 100.539 80.6632V87.2486C100.539 88.4984 99.6792 89.3581 98.4292 89.3581H96.9752V87.3373H97.8973C98.2253 87.3373 98.4026 87.16 98.4026 86.8321V81.0709C98.4026 80.743 98.2253 80.5657 97.8973 80.5657H96.9752V78.5449H98.4292V78.5537Z" fill="#EFC43A"/>
</g>
<defs>
<clipPath id="clip0">
<rect width="133" height="130" fill="white"/>
</clipPath>
</defs>
</svg>
