<svg width="133" height="130" viewBox="0 0 133 130" fill="none" xmlns="http://www.w3.org/2000/svg">
<g clip-path="url(#clip0)">
<path d="M74.8867 129.697C74.8867 129.697 67.7677 121.028 51.145 118.21C34.9655 114.434 15.3905 98.6484 10.3726 76.4813C4.55685 54.5269 14.3443 31.571 26.8624 20.8375C39.2918 9.57228 50.9411 7.82621 50.7106 7.67554C50.9943 8.01234 39.4425 10.0243 27.3234 21.3339C15.1068 32.1294 5.80688 54.784 11.7024 76.1534C16.8267 97.7355 35.985 112.847 51.6414 116.357C55.3915 116.933 58.7338 117.829 61.6594 118.874C72.7058 122.792 76.9524 127.844 76.9524 127.844L74.8867 129.697Z" fill="#EFC43A"/>
<path d="M57.475 129.697C57.475 129.697 64.5939 121.028 81.2167 118.21C97.3962 114.434 116.962 98.6484 121.989 76.4813C127.805 54.5269 118.017 31.571 105.499 20.8375C93.0699 9.57228 81.4206 7.82621 81.66 7.67554C81.3763 8.01234 92.928 10.0243 105.038 21.3339C117.255 32.1294 126.555 54.784 120.659 76.1534C115.535 97.7355 96.3678 112.847 80.7203 116.357C76.9702 116.933 73.6279 117.829 70.7023 118.874C59.6559 122.792 55.4093 127.844 55.4093 127.844L57.475 129.697Z" fill="#EFC43A"/>
<path d="M46.3576 104.498C46.3576 104.498 50.8878 106.058 52.3861 109.666C54.2656 114.177 53.45 117.962 53.45 117.962C53.45 117.962 48.9108 115.604 47.3948 113.158C45.2583 109.719 46.3576 104.498 46.3576 104.498Z" fill="#EFC43A"/>
<path d="M38.4053 124.334C38.4053 124.334 42.9887 125.743 46.331 123.705C50.5067 121.161 52.0759 117.625 52.0759 117.625C52.0759 117.625 47.0137 116.862 44.3451 117.944C40.595 119.468 38.4053 124.334 38.4053 124.334Z" fill="#EFC43A"/>
<path d="M39.3007 100.607C39.3007 100.607 43.4054 102.885 44.2387 106.625C45.2849 111.305 43.8575 114.815 43.8575 114.815C43.8575 114.815 39.8769 111.766 38.8308 109.143C37.3591 105.455 39.3007 100.607 39.3007 100.607Z" fill="#EFC43A"/>
<path d="M28.2543 118.396C28.2543 118.396 32.4388 120.532 36.0116 119.132C40.4709 117.385 42.5898 114.239 42.5898 114.239C42.5898 114.239 37.8379 112.644 35.0718 113.237C31.1887 114.071 28.2543 118.396 28.2543 118.396Z" fill="#EFC43A"/>
<path d="M32.9707 95.5552C32.9707 95.5552 36.5435 98.4535 36.712 102.203C36.9247 106.891 34.9477 110.038 34.9477 110.038C34.9477 110.038 31.6232 106.422 31.0646 103.709C30.2667 99.9071 32.9707 95.5552 32.9707 95.5552Z" fill="#EFC43A"/>
<path d="M19.2825 110.844C19.2825 110.844 22.9528 113.618 26.6408 112.874C31.242 111.943 33.8219 109.275 33.8219 109.275C33.8219 109.275 29.5044 106.927 26.7383 107.024C22.8553 107.175 19.2825 110.844 19.2825 110.844Z" fill="#EFC43A"/>
<path d="M27.5982 89.4307C27.5982 89.4307 30.5593 92.8342 30.0805 96.4858C29.4865 101.05 27.0485 103.745 27.0485 103.745C27.0485 103.745 24.4598 99.6855 24.3712 96.9733C24.247 93.171 27.5982 89.4307 27.5982 89.4307Z" fill="#EFC43A"/>
<path d="M11.7822 101.857C11.7822 101.857 14.8585 105.154 18.5377 105.065C23.1389 104.95 26.0823 102.814 26.0823 102.814C26.0823 102.814 22.3144 99.8095 19.6282 99.4373C15.8515 98.9143 11.7822 101.857 11.7822 101.857Z" fill="#EFC43A"/>
<path d="M23.334 82.4819C23.334 82.4819 25.6124 86.2666 24.5308 89.7144C23.1833 94.0131 20.364 96.2112 20.364 96.2112C20.364 96.2112 18.5555 91.8593 18.9367 89.2269C19.4598 85.522 23.334 82.4819 23.334 82.4819Z" fill="#EFC43A"/>
<path d="M5.95764 91.7886C5.95764 91.7886 8.36019 95.4934 11.933 96.0341C16.3923 96.7077 19.5928 95.1389 19.5928 95.1389C19.5928 95.1389 16.4721 91.6024 13.9366 90.787C10.3815 89.6436 5.95764 91.7886 5.95764 91.7886Z" fill="#EFC43A"/>
<path d="M20.3906 74.9392C20.3906 74.9392 21.9421 78.9809 20.3108 82.1185C18.2806 86.0449 15.1866 87.6758 15.1866 87.6758C15.1866 87.6758 14.1848 83.1644 14.9915 80.6915C16.1352 77.2171 20.3906 74.9392 20.3906 74.9392Z" fill="#EFC43A"/>
<path d="M2.03906 80.9575C2.03906 80.9575 3.7235 84.946 7.07466 86.0716C11.2592 87.4809 14.6192 86.5148 14.6192 86.5148C14.6192 86.5148 12.2078 82.5706 9.90275 81.3475C6.67571 79.6457 2.03906 80.9575 2.03906 80.9575Z" fill="#EFC43A"/>
<path d="M18.7682 67.0242C18.7682 67.0242 19.575 71.1899 17.4739 73.9375C14.8408 77.3765 11.5783 78.4312 11.5783 78.4312C11.5783 78.4312 11.3744 73.9021 12.589 71.6508C14.2734 68.4955 18.7682 67.0242 18.7682 67.0242Z" fill="#EFC43A"/>
<path d="M0.0355225 69.7098C0.0355225 69.7098 0.984129 73.849 4.02499 75.5064C7.82828 77.5804 11.2326 77.217 11.2326 77.217C11.2326 77.217 9.57478 72.9981 7.56232 71.4293C4.73423 69.2312 0.0355225 69.7098 0.0355225 69.7098Z" fill="#EFC43A"/>
<path d="M18.5466 58.9055C18.5466 58.9055 18.6175 63.0624 16.1174 65.358C12.9879 68.2297 9.67224 68.6906 9.67224 68.6906C9.67224 68.6906 10.2485 64.2944 11.8 62.3179C13.9543 59.5614 18.5466 58.9055 18.5466 58.9055Z" fill="#EFC43A"/>
<path d="M0 58.3115C0 58.3115 0.212772 62.4684 2.87242 64.5867C6.18811 67.2369 9.53926 67.4673 9.53926 67.4673C9.53926 67.4673 8.66158 63.1154 6.986 61.263C4.61892 58.6483 0 58.3115 0 58.3115Z" fill="#EFC43A"/>
<path d="M19.7079 50.6095C19.7079 50.6095 19.0696 54.6334 16.2681 56.4238C12.7663 58.6662 9.47717 58.5421 9.47717 58.5421C9.47717 58.5421 10.7804 54.3941 12.6156 52.7544C15.1688 50.4588 19.7079 50.6095 19.7079 50.6095Z" fill="#EFC43A"/>
<path d="M1.91495 46.8779C1.91495 46.8779 1.40962 50.9196 3.61712 53.419C6.36542 56.5389 9.557 57.3366 9.557 57.3366C9.557 57.3366 9.45061 52.9847 8.14739 50.9107C6.31223 47.9947 1.91495 46.8779 1.91495 46.8779Z" fill="#EFC43A"/>
<path d="M22.3055 42.5173C22.3055 42.5173 21.0111 46.293 17.9969 47.5427C14.229 49.1115 11.0818 48.4291 11.0818 48.4291C11.0818 48.4291 13.0499 44.6444 15.089 43.377C17.9525 41.6043 22.3055 42.5173 22.3055 42.5173Z" fill="#EFC43A"/>
<path d="M5.77139 35.8875C5.77139 35.8875 4.60115 39.7075 6.30332 42.4906C8.43104 45.965 11.3744 47.2768 11.3744 47.2768C11.3744 47.2768 12.0127 43.0579 11.1084 40.8332C9.83178 37.7133 5.77139 35.8875 5.77139 35.8875Z" fill="#EFC43A"/>
<path d="M26.3217 35.0099C26.3217 35.0099 24.4245 38.4312 21.3038 39.1314C17.403 40 14.4774 38.8123 14.4774 38.8123C14.4774 38.8123 17.0218 35.4974 19.2027 34.6199C22.2702 33.3879 26.3217 35.0099 26.3217 35.0099Z" fill="#EFC43A"/>
<path d="M11.4897 25.801C11.4897 25.801 9.70777 29.2843 10.878 32.2624C12.332 35.985 14.9561 37.7488 14.9561 37.7488C14.9561 37.7488 16.286 33.7869 15.7895 31.4824C15.098 28.2473 11.4897 25.801 11.4897 25.801Z" fill="#EFC43A"/>
<path d="M31.6232 28.327C31.6232 28.327 29.2118 31.3051 26.0734 31.4469C22.1637 31.6241 19.5396 29.9756 19.5396 29.9756C19.5396 29.9756 22.5627 27.2102 24.8145 26.7316C27.9884 26.0757 31.6232 28.327 31.6232 28.327Z" fill="#EFC43A"/>
<path d="M18.8746 16.9199C18.8746 16.9199 16.5607 19.9778 17.1813 23.0533C17.9526 26.8911 20.1867 29.0361 20.1867 29.0361C20.1867 29.0361 22.146 25.4376 22.0573 23.1331C21.9332 19.898 18.8746 16.9199 18.8746 16.9199Z" fill="#EFC43A"/>
<path d="M37.9532 22.7255C37.9532 22.7255 35.1162 25.1895 32.0665 24.7907C28.2632 24.2943 26.0114 22.2646 26.0114 22.2646C26.0114 22.2646 29.398 20.1108 31.6587 20.0311C34.8236 19.9336 37.9532 22.7255 37.9532 22.7255Z" fill="#EFC43A"/>
<path d="M27.5894 9.54565C27.5894 9.54565 24.8322 12.1071 24.912 15.1739C25.0006 19.0117 26.7915 21.4579 26.7915 21.4579C26.7915 21.4579 29.3004 18.3203 29.6107 16.0779C30.0362 12.9403 27.5894 9.54565 27.5894 9.54565Z" fill="#EFC43A"/>
<path d="M45.1165 18.338C45.1165 18.338 41.9604 20.2347 39.088 19.3307C35.4974 18.205 33.6711 15.8651 33.6711 15.8651C33.6711 15.8651 37.306 14.3583 39.5046 14.6774C42.5721 15.1206 45.1165 18.338 45.1165 18.338Z" fill="#EFC43A"/>
<path d="M37.3592 3.85547C37.3592 3.85547 34.2651 5.85857 33.813 8.83664C33.2456 12.5504 34.5577 15.2271 34.5577 15.2271C34.5577 15.2271 37.5099 12.6213 38.1837 10.5118C39.1412 7.55146 37.3592 3.85547 37.3592 3.85547Z" fill="#EFC43A"/>
<path d="M52.8028 15.2979C52.8028 15.2979 49.4339 16.592 46.8097 15.2359C43.5384 13.543 42.1731 10.9638 42.1731 10.9638C42.1731 10.9638 45.9321 10.1306 48.0066 10.8042C50.9056 11.7526 52.8028 15.2979 52.8028 15.2979Z" fill="#EFC43A"/>
<path d="M47.785 0C47.785 0 44.4604 1.40926 43.5207 4.2012C42.3416 7.69334 43.1483 10.4941 43.1483 10.4941C43.1483 10.4941 46.4463 8.48218 47.457 6.56771C48.8754 3.87326 47.785 0 47.785 0Z" fill="#EFC43A"/>
<path d="M47.9268 8.61518C47.9268 8.61518 50.418 10.0244 52.6255 9.2622C55.3826 8.31382 56.7479 6.45253 56.7479 6.45253C56.7479 6.45253 53.9021 5.36234 52.1999 5.64597C49.8328 6.06254 47.9268 8.61518 47.9268 8.61518Z" fill="#EFC43A"/>
<path d="M86.0041 104.498C86.0041 104.498 81.4738 106.058 79.9755 109.666C78.0961 114.177 78.9117 117.962 78.9117 117.962C78.9117 117.962 83.4508 115.604 84.9668 113.158C87.1034 109.719 86.0041 104.498 86.0041 104.498Z" fill="#EFC43A"/>
<path d="M93.9565 124.334C93.9565 124.334 89.373 125.743 86.0307 123.705C81.8639 121.161 80.2859 117.625 80.2859 117.625C80.2859 117.625 85.3481 116.862 88.0166 117.944C91.7667 119.468 93.9565 124.334 93.9565 124.334Z" fill="#EFC43A"/>
<path d="M93.061 100.607C93.061 100.607 88.9474 102.885 88.114 106.625C87.0679 111.305 88.4953 114.815 88.4953 114.815C88.4953 114.815 92.4759 111.766 93.522 109.143C95.0025 105.455 93.061 100.607 93.061 100.607Z" fill="#EFC43A"/>
<path d="M104.107 118.396C104.107 118.396 99.9228 120.532 96.35 119.132C91.8907 117.385 89.7719 114.239 89.7719 114.239C89.7719 114.239 94.5237 112.644 97.2898 113.237C101.164 114.071 104.107 118.396 104.107 118.396Z" fill="#EFC43A"/>
<path d="M99.3909 95.5552C99.3909 95.5552 95.8181 98.4535 95.6497 102.203C95.4369 106.891 97.4139 110.038 97.4139 110.038C97.4139 110.038 100.738 106.422 101.306 103.709C102.095 99.9071 99.3909 95.5552 99.3909 95.5552Z" fill="#EFC43A"/>
<path d="M113.079 110.844C113.079 110.844 109.409 113.618 105.721 112.874C101.12 111.943 98.5398 109.275 98.5398 109.275C98.5398 109.275 102.857 106.927 105.623 107.024C109.506 107.175 113.079 110.844 113.079 110.844Z" fill="#EFC43A"/>
<path d="M104.763 89.4307C104.763 89.4307 101.802 92.8342 102.281 96.4858C102.875 101.05 105.313 103.745 105.313 103.745C105.313 103.745 107.902 99.6855 107.99 96.9733C108.115 93.171 104.763 89.4307 104.763 89.4307Z" fill="#EFC43A"/>
<path d="M120.579 101.857C120.579 101.857 117.503 105.154 113.824 105.065C109.223 104.95 106.279 102.814 106.279 102.814C106.279 102.814 110.047 99.8095 112.733 99.4373C116.501 98.9143 120.579 101.857 120.579 101.857Z" fill="#EFC43A"/>
<path d="M109.028 82.4817C109.028 82.4817 106.749 86.2663 107.831 89.7141C109.178 94.0128 111.998 96.2109 111.998 96.2109C111.998 96.2109 113.806 91.8591 113.425 89.2267C112.902 85.5218 109.028 82.4817 109.028 82.4817Z" fill="#EFC43A"/>
<path d="M126.404 91.7883C126.404 91.7883 124.001 95.4932 120.429 96.0338C115.969 96.7075 112.769 95.1386 112.769 95.1386C112.769 95.1386 115.89 91.6022 118.425 90.7868C121.98 89.6434 126.404 91.7883 126.404 91.7883Z" fill="#EFC43A"/>
<path d="M111.971 74.9392C111.971 74.9392 110.42 78.9809 112.051 82.1185C114.081 86.0449 117.175 87.6758 117.175 87.6758C117.175 87.6758 118.177 83.1644 117.37 80.6915C116.226 77.2171 111.971 74.9392 111.971 74.9392Z" fill="#EFC43A"/>
<path d="M130.323 80.9575C130.323 80.9575 128.638 84.946 125.278 86.0716C121.085 87.4809 117.734 86.5148 117.734 86.5148C117.734 86.5148 120.145 82.5706 122.441 81.3475C125.686 79.6457 130.323 80.9575 130.323 80.9575Z" fill="#EFC43A"/>
<path d="M113.593 67.0242C113.593 67.0242 112.787 71.1899 114.888 73.9375C117.521 77.3765 120.783 78.4312 120.783 78.4312C120.783 78.4312 120.987 73.9021 119.781 71.6508C118.088 68.4955 113.593 67.0242 113.593 67.0242Z" fill="#EFC43A"/>
<path d="M132.335 69.7098C132.335 69.7098 131.386 73.849 128.337 75.5064C124.533 77.5804 121.129 77.217 121.129 77.217C121.129 77.217 122.787 72.9981 124.799 71.4293C127.627 69.2312 132.335 69.7098 132.335 69.7098Z" fill="#EFC43A"/>
<path d="M113.815 58.9055C113.815 58.9055 113.744 63.0624 116.244 65.358C119.365 68.2297 122.689 68.6906 122.689 68.6906C122.689 68.6906 122.113 64.2944 120.562 62.3179C118.399 59.5614 113.815 58.9055 113.815 58.9055Z" fill="#EFC43A"/>
<path d="M132.362 58.3115C132.362 58.3115 132.149 62.4684 129.498 64.5867C126.182 67.2369 122.831 67.4673 122.831 67.4673C122.831 67.4673 123.709 63.1154 125.385 61.263C127.743 58.6483 132.362 58.3115 132.362 58.3115Z" fill="#EFC43A"/>
<path d="M112.654 50.6095C112.654 50.6095 113.292 54.6334 116.093 56.4238C119.595 58.6662 122.884 58.5421 122.884 58.5421C122.884 58.5421 121.581 54.3941 119.746 52.7544C117.193 50.4588 112.654 50.6095 112.654 50.6095Z" fill="#EFC43A"/>
<path d="M130.447 46.8779C130.447 46.8779 130.952 50.9196 128.745 53.419C125.996 56.5389 122.805 57.3366 122.805 57.3366C122.805 57.3366 122.911 52.9847 124.214 50.9107C126.049 47.9947 130.447 46.8779 130.447 46.8779Z" fill="#EFC43A"/>
<path d="M110.056 42.5173C110.056 42.5173 111.359 46.293 114.374 47.5427C118.141 49.1115 121.289 48.4291 121.289 48.4291C121.289 48.4291 119.321 44.6444 117.282 43.377C114.409 41.6043 110.056 42.5173 110.056 42.5173Z" fill="#EFC43A"/>
<path d="M126.59 35.8875C126.59 35.8875 127.761 39.7075 126.058 42.4906C123.931 45.965 120.987 47.2768 120.987 47.2768C120.987 47.2768 120.349 43.0579 121.253 40.8332C122.53 37.7133 126.59 35.8875 126.59 35.8875Z" fill="#EFC43A"/>
<path d="M106.04 35.0099C106.04 35.0099 107.937 38.4312 111.058 39.1314C114.959 40 117.884 38.8123 117.884 38.8123C117.884 38.8123 115.34 35.4974 113.159 34.6199C110.083 33.3879 106.04 35.0099 106.04 35.0099Z" fill="#EFC43A"/>
<path d="M120.872 25.801C120.872 25.801 122.654 29.2843 121.493 32.2624C120.039 35.985 117.414 37.7488 117.414 37.7488C117.414 37.7488 116.085 33.7869 116.581 31.4824C117.264 28.2473 120.872 25.801 120.872 25.801Z" fill="#EFC43A"/>
<path d="M100.739 28.327C100.739 28.327 103.15 31.3051 106.279 31.4469C110.189 31.6241 112.813 29.9756 112.813 29.9756C112.813 29.9756 109.79 27.2102 107.538 26.7316C104.373 26.0757 100.739 28.327 100.739 28.327Z" fill="#EFC43A"/>
<path d="M113.487 16.9199C113.487 16.9199 115.801 19.9778 115.18 23.0533C114.409 26.8911 112.175 29.0361 112.175 29.0361C112.175 29.0361 110.216 25.4376 110.295 23.1331C110.428 19.898 113.487 16.9199 113.487 16.9199Z" fill="#EFC43A"/>
<path d="M94.4086 22.7255C94.4086 22.7255 97.2455 25.1895 100.295 24.7907C104.099 24.2943 106.35 22.2646 106.35 22.2646C106.35 22.2646 102.964 20.1108 100.703 20.0311C97.5292 19.9336 94.4086 22.7255 94.4086 22.7255Z" fill="#EFC43A"/>
<path d="M104.772 9.54565C104.772 9.54565 107.529 12.1071 107.45 15.1739C107.361 19.0117 105.57 21.4579 105.57 21.4579C105.57 21.4579 103.061 18.3203 102.76 16.0779C102.325 12.9403 104.772 9.54565 104.772 9.54565Z" fill="#EFC43A"/>
<path d="M87.2452 18.338C87.2452 18.338 90.4013 20.2347 93.2738 19.3307C96.8643 18.205 98.6906 15.8651 98.6906 15.8651C98.6906 15.8651 95.0557 14.3583 92.8571 14.6774C89.7808 15.1206 87.2452 18.338 87.2452 18.338Z" fill="#EFC43A"/>
<path d="M95.0025 3.85547C95.0025 3.85547 98.0966 5.85857 98.5487 8.83664C99.1161 12.5504 97.804 15.2271 97.804 15.2271C97.804 15.2271 94.8518 12.6213 94.1781 10.5118C93.2206 7.55146 95.0025 3.85547 95.0025 3.85547Z" fill="#EFC43A"/>
<path d="M79.5588 15.2979C79.5588 15.2979 82.9366 16.592 85.5519 15.2359C88.8233 13.543 90.1886 10.9638 90.1886 10.9638C90.1886 10.9638 86.4296 10.1306 84.3639 10.8042C81.4561 11.7526 79.5588 15.2979 79.5588 15.2979Z" fill="#EFC43A"/>
<path d="M84.5767 0C84.5767 0 87.9101 1.40926 88.8499 4.2012C90.0201 7.69334 89.2222 10.4941 89.2222 10.4941C89.2222 10.4941 85.9331 8.48218 84.9136 6.56771C83.4863 3.87326 84.5767 0 84.5767 0Z" fill="#EFC43A"/>
<path d="M84.426 8.61518C84.426 8.61518 81.9348 10.0244 79.7273 9.2622C76.9701 8.31382 75.6049 6.45253 75.6049 6.45253C75.6049 6.45253 78.4595 5.36234 80.1529 5.64597C82.5288 6.06254 84.426 8.61518 84.426 8.61518Z" fill="#EFC43A"/>
<path d="M81.8816 47.3479C80.472 47.3479 79.4968 46.373 79.4968 44.9637V35.1875H81.9171V44.494C81.9171 44.8662 82.121 45.0612 82.4845 45.0612H83.5572V47.3479H81.8816ZM85.1353 45.0612C85.5076 45.0612 85.7027 44.8574 85.7027 44.494V35.1875H88.1229V44.9637C88.1229 46.373 87.1477 47.3479 85.7381 47.3479H84.0537V45.0612H85.1353Z" fill="#29B6CB"/>
<path d="M95.233 45.0611C95.6054 45.0611 95.8004 44.8572 95.8004 44.4938V43.2175C95.8004 42.8453 95.5965 42.73 95.233 42.6503L92.1035 41.9767C90.7914 41.693 89.6832 40.9042 89.6832 39.557V37.5095C89.6832 36.1003 90.6584 35.1253 92.068 35.1253H93.6993V37.412H92.6709C92.2985 37.412 92.1035 37.6159 92.1035 37.9793V39.1227C92.1035 39.4949 92.3074 39.6101 92.6709 39.6899L95.8004 40.3635C97.1125 40.6472 98.2207 41.436 98.2207 42.7832V44.9636C98.2207 46.3728 97.2455 47.3478 95.8359 47.3478H94.2046V45.0611H95.233ZM92.0769 47.3478C90.6673 47.3478 89.6921 46.3728 89.6921 44.9636V43.4214H92.0414V44.4938C92.0414 44.8661 92.2453 45.0611 92.6088 45.0611H93.6993V47.3478H92.0769ZM95.632 35.1165C97.0416 35.1165 98.0168 36.0914 98.0168 37.5007V38.9099H95.6674V37.9704C95.6674 37.5982 95.4635 37.4032 95.1 37.4032H94.2135V35.1165H95.632Z" fill="#29B6CB"/>
<path d="M43.5562 52.5151C43.5562 52.1429 43.3523 51.9479 42.9888 51.9479H40.5686C40.1962 51.9479 40.0012 52.1517 40.0012 52.5151V53.6585C40.0012 54.0307 40.2051 54.146 40.5686 54.2257L43.6981 54.8993C45.0102 55.183 46.1183 55.9718 46.1183 57.319V59.4994C46.1183 60.9087 45.1431 61.8836 43.7335 61.8836H39.9657C38.5561 61.8836 37.5809 60.9087 37.5809 59.4994V57.9572H39.9302V59.0296C39.9302 59.4019 40.1341 59.5969 40.4976 59.5969H43.1218C43.4942 59.5969 43.6892 59.393 43.6892 59.0296V57.7533C43.6892 57.3811 43.4853 57.2658 43.1218 57.1861L39.9923 56.5125C38.6802 56.2288 37.572 55.44 37.572 54.0928V52.0454C37.572 50.6361 38.5472 49.6611 39.9568 49.6611H43.5208C44.9304 49.6611 45.9056 50.6361 45.9056 52.0454V53.4546H43.5562V52.5151Z" fill="#333333"/>
<path d="M55.6664 49.7231V52.0099H50.1698V54.4916H54.6203V56.7783H50.1698V59.5348H55.6664V61.8216H47.7495V49.7231H55.6664Z" fill="#333333"/>
<path d="M59.1949 61.8127H56.6948L60.5956 49.7231H63.4149L67.3157 61.8127H64.7092L63.9202 59.0917H60.0016L59.1949 61.8127ZM60.6754 56.8138H63.2641L61.9875 52.3821L60.6754 56.8138Z" fill="#333333"/>
<path d="M74.9223 61.8127L72.9719 57.3279H71.0215V61.8127H68.6012V49.7231H74.7716C76.1812 49.7231 77.1564 50.6981 77.1564 52.1074V54.9436C77.1564 56.087 76.5181 56.9379 75.5074 57.2304L77.5199 61.8127H74.9223V61.8127ZM74.7361 52.5771C74.7361 52.2049 74.5322 52.0099 74.1687 52.0099H71.0303V55.0854H74.1687C74.5411 55.0854 74.7361 54.8816 74.7361 54.5182V52.5771Z" fill="#333333"/>
<path d="M84.8782 52.5151C84.8782 52.1429 84.6743 51.9479 84.3108 51.9479H81.6866C81.3143 51.9479 81.1193 52.1517 81.1193 52.5151V59.0296C81.1193 59.4019 81.3232 59.5969 81.6866 59.5969H84.3108C84.6832 59.5969 84.8782 59.393 84.8782 59.0296V57.5495H87.2985V59.4994C87.2985 60.9087 86.3233 61.8836 84.9137 61.8836H81.0838C79.6742 61.8836 78.699 60.9087 78.699 59.4994V52.0454C78.699 50.6361 79.6742 49.6611 81.0838 49.6611H84.9137C86.3233 49.6611 87.2985 50.6361 87.2985 52.0454V53.9953H84.8782V52.5151Z" fill="#333333"/>
<path d="M88.8677 49.7231H91.288V54.4916H95.4547V49.7231H97.875V61.8127H95.4547V56.7695H91.288V61.8127H88.8677V49.7231Z" fill="#333333"/>
<path d="M35.7723 76.3486H33.2722L37.173 64.2502H39.9923L43.8931 76.3486H41.2866L40.4976 73.6276H36.579L35.7723 76.3486ZM37.2528 71.3497H39.8415L38.5649 66.9181L37.2528 71.3497Z" fill="#333333"/>
<path d="M52.5547 76.3486L50.5688 68.3893L48.583 76.3486H46.1981L43.1927 64.259H45.7815L47.4304 73.0957L49.6114 64.259H51.5263L53.7072 73.0957L55.3562 64.259H57.8474L54.842 76.3574H52.5547V76.3486Z" fill="#333333"/>
<path d="M59.6647 76.3486H57.1647L61.0655 64.2502H63.8847L67.7855 76.3486H65.1791L64.39 73.6276H60.4715L59.6647 76.3486ZM61.1453 71.3497H63.734L62.4574 66.9181L61.1453 71.3497Z" fill="#333333"/>
<path d="M75.3921 76.3486L73.4417 71.8637H71.4913V76.3486H69.071V64.259H75.2414C76.651 64.259 77.6262 65.234 77.6262 66.6433V69.4795C77.6262 70.6229 76.9879 71.4738 75.9773 71.7662L77.9897 76.3486H75.3921ZM75.206 67.113C75.206 66.7408 75.0021 66.5458 74.6386 66.5458H71.5002V69.6213H74.6386C75.0109 69.6213 75.206 69.4175 75.206 69.0541V67.113Z" fill="#333333"/>
<path d="M85.7914 64.259C87.201 64.259 88.1762 65.234 88.1762 66.6433V73.9643C88.1762 75.3736 87.201 76.3486 85.7914 76.3486H79.488V64.259H85.7914ZM85.1885 74.0707C85.5609 74.0707 85.7559 73.8668 85.7559 73.5034V67.1219C85.7559 66.7496 85.552 66.5546 85.1885 66.5546H81.9083V74.0796H85.1885V74.0707Z" fill="#333333"/>
<path d="M95.6674 67.0421C95.6674 66.6699 95.4635 66.4749 95.1 66.4749H92.6798C92.3074 66.4749 92.1124 66.6787 92.1124 67.0421V68.1855C92.1124 68.5578 92.3163 68.673 92.6798 68.7528L95.8093 69.4264C97.1214 69.71 98.2296 70.4988 98.2296 71.846V74.0264C98.2296 75.4357 97.2543 76.4106 95.8447 76.4106H92.0769C90.6673 76.4106 89.6921 75.4357 89.6921 74.0264V72.4842H92.0414V73.5655C92.0414 73.9378 92.2453 74.1328 92.6088 74.1328H95.233C95.6054 74.1328 95.8004 73.9289 95.8004 73.5655V72.2892C95.8004 71.917 95.5965 71.8017 95.233 71.722L92.1035 71.0484C90.7914 70.7647 89.6832 69.9759 89.6832 68.6287V66.5813C89.6832 65.172 90.6584 64.197 92.068 64.197H95.632C97.0416 64.197 98.0168 65.172 98.0168 66.5813V67.9905H95.6674V67.0421V67.0421Z" fill="#333333"/>
<path d="M67.5107 90.8842H63.4946V86.816C63.4946 85.4687 64.6383 84.8306 65.9149 84.3963L68.805 83.3859C69.2395 83.2352 69.4788 83.1466 69.4788 82.7123V81.6664C69.4788 81.2321 69.2395 80.9928 68.805 80.9928H68.016V78.7061H69.4788C70.8264 78.7061 71.8991 79.7785 71.8991 81.1257V83.2441C71.8991 84.5913 70.7555 85.2294 69.4788 85.6637L66.5887 86.6742C66.1543 86.8248 65.9149 86.9135 65.9149 87.3478V88.5886H67.5107V90.8842ZM63.6365 81.1435C63.6365 79.7962 64.7092 78.7238 66.0568 78.7238H67.5196V81.0105H66.6596C66.2252 81.0105 65.9858 81.2498 65.9858 81.6841V82.4552H63.6365V81.1435ZM68.016 90.8842V88.5975H71.9346V90.8842H68.016Z" fill="#29B6CB"/>
<path d="M76.3142 81.0106C75.9419 81.0106 75.7468 81.2145 75.7468 81.5779V88.0924C75.7468 88.4646 75.9507 88.6596 76.3142 88.6596H77.3426V90.9464H75.7114C74.3017 90.9464 73.3265 89.9714 73.3265 88.5621V81.1081C73.3265 79.6988 74.3017 78.7239 75.7114 78.7239H77.3426V81.0106H76.3142ZM79.4969 78.7239C80.9065 78.7239 81.8817 79.6988 81.8817 81.1081V88.5621C81.8817 89.9714 80.9065 90.9464 79.4969 90.9464H77.8479V88.6596H78.8941C79.2664 88.6596 79.4614 88.4558 79.4614 88.0924V81.5779C79.4614 81.2056 79.2575 81.0106 78.8941 81.0106H77.8479V78.7239H79.4969Z" fill="#29B6CB"/>
<path d="M85.4456 81.3121L83.2469 82.0832V80.0712L85.9509 78.7949H87.8659V90.8933H85.4456V81.3121V81.3121Z" fill="#29B6CB"/>
<path d="M95.0646 88.6686C95.499 88.6686 95.7384 88.4381 95.7384 87.995V85.0701L95.4015 85.3892C95.0291 85.7437 94.3908 86.3109 93.4865 86.3109H92.0592C90.7116 86.3109 89.6389 85.2385 89.6389 83.8913V81.1348C89.6389 79.7876 90.7116 78.7151 92.0592 78.7151H93.6373V81.0018H92.733C92.2986 81.0018 92.0592 81.2411 92.0592 81.6754V83.4924C92.0592 83.9267 92.2986 84.166 92.733 84.166H93.7259C94.1958 84.166 94.8164 84.0685 95.4104 83.714L95.7472 83.5101V81.6754C95.7472 81.2411 95.5079 81.0018 95.0735 81.0018H94.1514V78.7151H95.7472C97.0948 78.7151 98.1675 79.7876 98.1675 81.1348V88.5268C98.1675 89.874 97.0948 90.9465 95.7472 90.9465H94.2224V88.6597H95.0646V88.6686ZM92.1922 90.9553C90.8446 90.9553 89.7719 89.8829 89.7719 88.5356V87.4277H92.1922V87.995C92.1922 88.4293 92.4315 88.6686 92.866 88.6686H93.7082V90.9553H92.1922Z" fill="#29B6CB"/>
</g>
<defs>
<clipPath id="clip0">
<path d="M0 0H132.362V129.697H0V0Z" fill="white"/>
</clipPath>
</defs>
</svg>
