<svg width="132" height="130" viewBox="0 0 132 130" fill="none" xmlns="http://www.w3.org/2000/svg">
<path d="M74.3841 129.697C74.3841 129.697 67.3129 121.028 50.8017 118.21C34.7308 114.434 15.2871 98.6484 10.303 76.4813C4.52623 54.5269 14.248 31.571 26.6821 20.8375C39.0281 9.57228 50.5991 7.82621 50.3702 7.67554C50.652 8.01234 39.1778 10.0243 27.14 21.3339C15.0053 32.1294 5.76787 54.784 11.6239 76.1534C16.7137 97.7355 35.7434 112.847 51.2948 116.357C55.0197 116.933 58.3396 117.829 61.2456 118.874C72.2178 122.792 76.4359 127.844 76.4359 127.844L74.3841 129.697Z" fill="#EFC43A"/>
<path d="M57.0891 129.697C57.0891 129.697 64.1604 121.028 80.6716 118.21C96.7425 114.434 116.177 98.6484 121.17 76.4813C126.947 54.5269 117.225 31.571 104.791 20.8375C92.4452 9.57228 80.8741 7.82621 81.1119 7.67554C80.8301 8.01234 92.3043 10.0243 104.333 21.3339C116.468 32.1294 125.705 54.784 119.849 76.1534C114.76 97.7355 95.721 112.847 80.1784 116.357C76.4535 116.933 73.1336 117.829 70.2277 118.874C59.2554 122.792 55.0374 127.844 55.0374 127.844L57.0891 129.697Z" fill="#EFC43A"/>
<path d="M46.0465 104.498C46.0465 104.498 50.5463 106.058 52.0346 109.665C53.9014 114.177 53.0913 117.961 53.0913 117.961C53.0913 117.961 48.5826 115.604 47.0768 113.157C44.9545 109.719 46.0465 104.498 46.0465 104.498Z" fill="#EFC43A"/>
<path d="M38.1475 124.334C38.1475 124.334 42.7002 125.743 46.02 123.705C50.1676 121.161 51.7263 117.625 51.7263 117.625C51.7263 117.625 46.6981 116.862 44.0475 117.944C40.3225 119.468 38.1475 124.334 38.1475 124.334Z" fill="#EFC43A"/>
<path d="M39.037 100.607C39.037 100.607 43.1141 102.885 43.9419 106.625C44.981 111.305 43.5632 114.815 43.5632 114.815C43.5632 114.815 39.6094 111.766 38.5702 109.143C37.1085 105.455 39.037 100.607 39.037 100.607Z" fill="#EFC43A"/>
<path d="M28.0647 118.396C28.0647 118.396 32.2211 120.532 35.7699 119.132C40.1993 117.385 42.304 114.239 42.304 114.239C42.304 114.239 37.584 112.644 34.8365 113.237C30.9795 114.071 28.0647 118.396 28.0647 118.396Z" fill="#EFC43A"/>
<path d="M32.7494 95.5554C32.7494 95.5554 36.2982 98.4537 36.4655 102.203C36.6769 106.892 34.7132 110.038 34.7132 110.038C34.7132 110.038 31.4109 106.422 30.8561 103.71C30.0636 99.9073 32.7494 95.5554 32.7494 95.5554Z" fill="#EFC43A"/>
<path d="M19.153 110.845C19.153 110.845 22.7986 113.619 26.4619 112.874C31.0322 111.944 33.5948 109.276 33.5948 109.276C33.5948 109.276 29.3063 106.927 26.5588 107.024C22.7018 107.175 19.153 110.845 19.153 110.845Z" fill="#EFC43A"/>
<path d="M27.4131 89.4307C27.4131 89.4307 30.3543 92.8342 29.8787 96.4858C29.2887 101.05 26.8671 103.745 26.8671 103.745C26.8671 103.745 24.2957 99.6855 24.2077 96.9733C24.0844 93.171 27.4131 89.4307 27.4131 89.4307Z" fill="#EFC43A"/>
<path d="M11.7031 101.857C11.7031 101.857 14.7588 105.154 18.4133 105.065C22.9836 104.95 25.9072 102.814 25.9072 102.814C25.9072 102.814 22.1646 99.8095 19.4964 99.4373C15.7451 98.9143 11.7031 101.857 11.7031 101.857Z" fill="#EFC43A"/>
<path d="M23.1773 82.4819C23.1773 82.4819 25.4404 86.2666 24.3661 89.7144C23.0276 94.0131 20.2273 96.2112 20.2273 96.2112C20.2273 96.2112 18.4309 91.8593 18.8095 89.2269C19.3291 85.522 23.1773 82.4819 23.1773 82.4819Z" fill="#EFC43A"/>
<path d="M5.9176 91.7886C5.9176 91.7886 8.30402 95.4934 11.8528 96.0341C16.2822 96.7077 19.4612 95.1389 19.4612 95.1389C19.4612 95.1389 16.3615 91.6024 13.843 90.787C10.3118 89.6436 5.9176 91.7886 5.9176 91.7886Z" fill="#EFC43A"/>
<path d="M20.2537 74.9392C20.2537 74.9392 21.7948 78.9809 20.1745 82.1185C18.1579 86.0449 15.0846 87.6758 15.0846 87.6758C15.0846 87.6758 14.0896 83.1643 14.8909 80.6915C16.0269 77.2171 20.2537 74.9392 20.2537 74.9392Z" fill="#EFC43A"/>
<path d="M2.02539 80.9575C2.02539 80.9575 3.69853 84.946 7.02719 86.0716C11.1836 87.4809 14.5211 86.5148 14.5211 86.5148C14.5211 86.5148 12.1259 82.5706 9.8363 81.3475C6.63092 79.6457 2.02539 80.9575 2.02539 80.9575Z" fill="#EFC43A"/>
<path d="M18.6422 67.0244C18.6422 67.0244 19.4436 71.1902 17.3566 73.9378C14.7412 77.3767 11.5006 78.4315 11.5006 78.4315C11.5006 78.4315 11.2981 73.9023 12.5045 71.6511C14.1776 68.4957 18.6422 67.0244 18.6422 67.0244Z" fill="#EFC43A"/>
<path d="M0.0355225 69.7101C0.0355225 69.7101 0.977763 73.8492 3.99821 75.5067C7.77598 77.5807 11.1575 77.2173 11.1575 77.2173C11.1575 77.2173 9.51076 72.9983 7.5118 71.4295C4.70269 69.2314 0.0355225 69.7101 0.0355225 69.7101Z" fill="#EFC43A"/>
<path d="M18.4221 58.9053C18.4221 58.9053 18.4925 63.0622 16.0092 65.3578C12.9007 68.2295 9.6073 68.6904 9.6073 68.6904C9.6073 68.6904 10.1797 64.2942 11.7207 62.3176C13.8606 59.5612 18.4221 58.9053 18.4221 58.9053Z" fill="#EFC43A"/>
<path d="M0 58.3115C0 58.3115 0.211344 62.4684 2.85314 64.5867C6.14658 67.2369 9.47524 67.4673 9.47524 67.4673C9.47524 67.4673 8.60345 63.1154 6.93911 61.263C4.58792 58.6483 0 58.3115 0 58.3115Z" fill="#EFC43A"/>
<path d="M19.5757 50.6095C19.5757 50.6095 18.9416 54.6334 16.159 56.4238C12.6806 58.6662 9.41357 58.5421 9.41357 58.5421C9.41357 58.5421 10.7081 54.3941 12.5309 52.7544C15.067 50.4588 19.5757 50.6095 19.5757 50.6095Z" fill="#EFC43A"/>
<path d="M1.90204 46.8779C1.90204 46.8779 1.4001 50.9196 3.59279 53.419C6.32265 56.5389 9.4928 57.3366 9.4928 57.3366C9.4928 57.3366 9.38713 52.9847 8.09265 50.9107C6.26981 47.9947 1.90204 46.8779 1.90204 46.8779Z" fill="#EFC43A"/>
<path d="M22.1558 42.5173C22.1558 42.5173 20.8701 46.293 17.8761 47.5427C14.1336 49.1115 11.0074 48.4291 11.0074 48.4291C11.0074 48.4291 12.9624 44.6444 14.9878 43.377C17.8321 41.6043 22.1558 42.5173 22.1558 42.5173Z" fill="#EFC43A"/>
<path d="M5.73263 35.8875C5.73263 35.8875 4.57024 39.7075 6.26099 42.4906C8.37442 45.965 11.298 47.2768 11.298 47.2768C11.298 47.2768 11.932 43.0579 11.0338 40.8332C9.76577 37.7133 5.73263 35.8875 5.73263 35.8875Z" fill="#EFC43A"/>
<path d="M26.1449 35.0102C26.1449 35.0102 24.2604 38.4314 21.1607 39.1316C17.2861 40.0002 14.3801 38.8125 14.3801 38.8125C14.3801 38.8125 16.9074 35.4977 19.0737 34.6202C22.1206 33.3882 26.1449 35.0102 26.1449 35.0102Z" fill="#EFC43A"/>
<path d="M11.4125 25.8013C11.4125 25.8013 9.64252 29.2845 10.8049 32.2626C12.2491 35.9852 14.8557 37.749 14.8557 37.749C14.8557 37.749 16.1766 33.7871 15.6834 31.4826C14.9966 28.2475 11.4125 25.8013 11.4125 25.8013Z" fill="#EFC43A"/>
<path d="M31.4109 28.327C31.4109 28.327 29.0157 31.3051 25.8983 31.4469C22.0149 31.6241 19.4083 29.9756 19.4083 29.9756C19.4083 29.9756 22.4112 27.2102 24.6479 26.7316C27.8004 26.0757 31.4109 28.327 31.4109 28.327Z" fill="#EFC43A"/>
<path d="M18.7479 16.9199C18.7479 16.9199 16.4495 19.9778 17.066 23.0533C17.8321 26.8911 20.0512 29.0361 20.0512 29.0361C20.0512 29.0361 21.9973 25.4376 21.9093 23.1331C21.786 19.898 18.7479 16.9199 18.7479 16.9199Z" fill="#EFC43A"/>
<path d="M37.6984 22.7253C37.6984 22.7253 34.8805 25.1893 31.8513 24.7904C28.0735 24.2941 25.8368 22.2644 25.8368 22.2644C25.8368 22.2644 29.2007 20.1106 31.4462 20.0308C34.5899 19.9333 37.6984 22.7253 37.6984 22.7253Z" fill="#EFC43A"/>
<path d="M27.4043 9.54565C27.4043 9.54565 24.6656 12.1071 24.7449 15.1739C24.8329 19.0117 26.6117 21.4579 26.6117 21.4579C26.6117 21.4579 29.1038 18.3203 29.412 16.0779C29.8347 12.9403 27.4043 9.54565 27.4043 9.54565Z" fill="#EFC43A"/>
<path d="M44.8136 18.3382C44.8136 18.3382 41.6787 20.235 38.8255 19.3309C35.2591 18.2053 33.4451 15.8653 33.4451 15.8653C33.4451 15.8653 37.0555 14.3586 39.2394 14.6777C42.2863 15.1208 44.8136 18.3382 44.8136 18.3382Z" fill="#EFC43A"/>
<path d="M37.1084 3.85547C37.1084 3.85547 34.0351 5.85857 33.586 8.83664C33.0224 12.5504 34.3257 15.2271 34.3257 15.2271C34.3257 15.2271 37.2581 12.6213 37.9273 10.5118C38.8784 7.55146 37.1084 3.85547 37.1084 3.85547Z" fill="#EFC43A"/>
<path d="M52.4484 15.2982C52.4484 15.2982 49.1021 16.5922 46.4955 15.2361C43.2461 13.5432 41.89 10.964 41.89 10.964C41.89 10.964 45.6238 10.1309 47.6844 10.8045C50.5639 11.7528 52.4484 15.2982 52.4484 15.2982Z" fill="#EFC43A"/>
<path d="M47.4642 0C47.4642 0 44.162 1.40926 43.2285 4.2012C42.0574 7.69334 42.8587 10.4941 42.8587 10.4941C42.8587 10.4941 46.1345 8.48218 47.1384 6.56771C48.5474 3.87326 47.4642 0 47.4642 0Z" fill="#EFC43A"/>
<path d="M47.6051 8.61518C47.6051 8.61518 50.0796 10.0244 52.2723 9.2622C55.0109 8.31382 56.3671 6.45253 56.3671 6.45253C56.3671 6.45253 53.5403 5.36234 51.8496 5.64597C49.4984 6.06254 47.6051 8.61518 47.6051 8.61518Z" fill="#EFC43A"/>
<path d="M85.4268 104.498C85.4268 104.498 80.927 106.058 79.4388 109.666C77.5719 114.177 78.3821 117.962 78.3821 117.962C78.3821 117.962 82.8907 115.604 84.3965 113.158C86.5188 109.719 85.4268 104.498 85.4268 104.498Z" fill="#EFC43A"/>
<path d="M93.3258 124.334C93.3258 124.334 88.7731 125.743 85.4532 123.705C81.3144 121.161 79.7469 117.625 79.7469 117.625C79.7469 117.625 84.7752 116.862 87.4258 117.944C91.1507 119.468 93.3258 124.334 93.3258 124.334Z" fill="#EFC43A"/>
<path d="M92.4363 100.607C92.4363 100.607 88.3504 102.885 87.5226 106.625C86.4835 111.305 87.9013 114.815 87.9013 114.815C87.9013 114.815 91.8551 111.766 92.8943 109.143C94.3649 105.455 92.4363 100.607 92.4363 100.607Z" fill="#EFC43A"/>
<path d="M103.409 118.396C103.409 118.396 99.2523 120.532 95.7035 119.132C91.2741 117.385 89.1694 114.239 89.1694 114.239C89.1694 114.239 93.8894 112.644 96.6369 113.237C100.485 114.071 103.409 118.396 103.409 118.396Z" fill="#EFC43A"/>
<path d="M98.7239 95.5552C98.7239 95.5552 95.175 98.4535 95.0077 102.203C94.7964 106.891 96.7601 110.038 96.7601 110.038C96.7601 110.038 100.062 106.422 100.626 103.709C101.41 99.9071 98.7239 95.5552 98.7239 95.5552Z" fill="#EFC43A"/>
<path d="M112.32 110.845C112.32 110.845 108.675 113.619 105.011 112.874C100.441 111.944 97.8785 109.276 97.8785 109.276C97.8785 109.276 102.167 106.927 104.915 107.024C108.772 107.175 112.32 110.845 112.32 110.845Z" fill="#EFC43A"/>
<path d="M104.06 89.4307C104.06 89.4307 101.119 92.8342 101.595 96.4858C102.185 101.05 104.606 103.745 104.606 103.745C104.606 103.745 107.178 99.6855 107.266 96.9733C107.389 93.171 104.06 89.4307 104.06 89.4307Z" fill="#EFC43A"/>
<path d="M119.77 101.857C119.77 101.857 116.715 105.154 113.06 105.065C108.49 104.95 105.566 102.814 105.566 102.814C105.566 102.814 109.309 99.8095 111.977 99.4373C115.719 98.9143 119.77 101.857 119.77 101.857Z" fill="#EFC43A"/>
<path d="M108.296 82.4819C108.296 82.4819 106.033 86.2666 107.107 89.7144C108.446 94.0131 111.246 96.2112 111.246 96.2112C111.246 96.2112 113.042 91.8593 112.664 89.2269C112.144 85.522 108.296 82.4819 108.296 82.4819Z" fill="#EFC43A"/>
<path d="M125.556 91.7886C125.556 91.7886 123.169 95.4934 119.62 96.0341C115.191 96.7077 112.012 95.1389 112.012 95.1389C112.012 95.1389 115.112 91.6024 117.63 90.787C121.161 89.6436 125.556 91.7886 125.556 91.7886Z" fill="#EFC43A"/>
<path d="M111.22 74.9392C111.22 74.9392 109.678 78.9809 111.299 82.1185C113.315 86.0449 116.389 87.6758 116.389 87.6758C116.389 87.6758 117.384 83.1643 116.582 80.6915C115.446 77.2171 111.22 74.9392 111.22 74.9392Z" fill="#EFC43A"/>
<path d="M129.448 80.9575C129.448 80.9575 127.775 84.946 124.437 86.0716C120.272 87.4809 116.943 86.5148 116.943 86.5148C116.943 86.5148 119.339 82.5706 121.619 81.3475C124.842 79.6457 129.448 80.9575 129.448 80.9575Z" fill="#EFC43A"/>
<path d="M112.831 67.0244C112.831 67.0244 112.03 71.1902 114.117 73.9378C116.732 77.3767 119.973 78.4315 119.973 78.4315C119.973 78.4315 120.175 73.9023 118.978 71.6511C117.296 68.4957 112.831 67.0244 112.831 67.0244Z" fill="#EFC43A"/>
<path d="M131.447 69.7101C131.447 69.7101 130.505 73.8492 127.475 75.5067C123.698 77.5807 120.316 77.2173 120.316 77.2173C120.316 77.2173 121.963 72.9983 123.962 71.4295C126.771 69.2314 131.447 69.7101 131.447 69.7101Z" fill="#EFC43A"/>
<path d="M113.051 58.9055C113.051 58.9055 112.981 63.0624 115.464 65.358C118.564 68.2297 121.866 68.6906 121.866 68.6906C121.866 68.6906 121.294 64.2944 119.753 62.3179C117.604 59.5614 113.051 58.9055 113.051 58.9055Z" fill="#EFC43A"/>
<path d="M131.473 58.3118C131.473 58.3118 131.262 62.4687 128.629 64.587C125.336 67.2371 122.007 67.4676 122.007 67.4676C122.007 67.4676 122.879 63.1157 124.543 61.2632C126.885 58.6486 131.473 58.3118 131.473 58.3118Z" fill="#EFC43A"/>
<path d="M111.898 50.6097C111.898 50.6097 112.532 54.6336 115.314 56.424C118.793 58.6664 122.06 58.5424 122.06 58.5424C122.06 58.5424 120.765 54.3943 118.942 52.7546C116.406 50.459 111.898 50.6097 111.898 50.6097Z" fill="#EFC43A"/>
<path d="M129.571 46.8782C129.571 46.8782 130.073 50.9198 127.88 53.4193C125.151 56.5392 121.98 57.3369 121.98 57.3369C121.98 57.3369 122.086 52.985 123.381 50.911C125.203 47.9949 129.571 46.8782 129.571 46.8782Z" fill="#EFC43A"/>
<path d="M109.318 42.5173C109.318 42.5173 110.612 46.293 113.606 47.5427C117.349 49.1115 120.475 48.4291 120.475 48.4291C120.475 48.4291 118.52 44.6444 116.494 43.377C113.641 41.6043 109.318 42.5173 109.318 42.5173Z" fill="#EFC43A"/>
<path d="M125.741 35.8875C125.741 35.8875 126.903 39.7075 125.212 42.4906C123.099 45.965 120.175 47.2768 120.175 47.2768C120.175 47.2768 119.541 43.0579 120.439 40.8332C121.708 37.7133 125.741 35.8875 125.741 35.8875Z" fill="#EFC43A"/>
<path d="M105.328 35.0102C105.328 35.0102 107.213 38.4314 110.313 39.1316C114.187 40.0002 117.093 38.8125 117.093 38.8125C117.093 38.8125 114.566 35.4977 112.4 34.6202C109.344 33.3882 105.328 35.0102 105.328 35.0102Z" fill="#EFC43A"/>
<path d="M120.061 25.8013C120.061 25.8013 121.831 29.2845 120.677 32.2626C119.233 35.9852 116.626 37.749 116.626 37.749C116.626 37.749 115.306 33.7871 115.799 31.4826C116.477 28.2475 120.061 25.8013 120.061 25.8013Z" fill="#EFC43A"/>
<path d="M100.062 28.327C100.062 28.327 102.458 31.3051 105.566 31.4469C109.45 31.6241 112.056 29.9756 112.056 29.9756C112.056 29.9756 109.053 27.2102 106.817 26.7316C103.673 26.0757 100.062 28.327 100.062 28.327Z" fill="#EFC43A"/>
<path d="M112.725 16.9199C112.725 16.9199 115.024 19.9778 114.407 23.0533C113.641 26.8911 111.422 29.0361 111.422 29.0361C111.422 29.0361 109.476 25.4376 109.555 23.1331C109.687 19.898 112.725 16.9199 112.725 16.9199Z" fill="#EFC43A"/>
<path d="M93.7749 22.7253C93.7749 22.7253 96.5928 25.1893 99.6221 24.7904C103.4 24.2941 105.637 22.2644 105.637 22.2644C105.637 22.2644 102.273 20.1106 100.027 20.0308C96.8746 19.9333 93.7749 22.7253 93.7749 22.7253Z" fill="#EFC43A"/>
<path d="M104.069 9.54565C104.069 9.54565 106.808 12.1071 106.728 15.1739C106.64 19.0117 104.862 21.4579 104.862 21.4579C104.862 21.4579 102.37 18.3203 102.07 16.0779C101.639 12.9403 104.069 9.54565 104.069 9.54565Z" fill="#EFC43A"/>
<path d="M86.6597 18.3382C86.6597 18.3382 89.7946 20.235 92.6477 19.3309C96.2141 18.2053 98.0282 15.8653 98.0282 15.8653C98.0282 15.8653 94.4177 14.3586 92.2338 14.6777C89.1782 15.1208 86.6597 18.3382 86.6597 18.3382Z" fill="#EFC43A"/>
<path d="M94.3649 3.85547C94.3649 3.85547 97.4381 5.85857 97.8873 8.83664C98.4508 12.5504 97.1475 15.2271 97.1475 15.2271C97.1475 15.2271 94.2152 12.6213 93.5459 10.5118C92.5949 7.55146 94.3649 3.85547 94.3649 3.85547Z" fill="#EFC43A"/>
<path d="M79.0249 15.2982C79.0249 15.2982 82.38 16.5922 84.9777 15.2361C88.2272 13.5432 89.5833 10.964 89.5833 10.964C89.5833 10.964 85.8495 10.1309 83.7978 10.8045C80.9094 11.7528 79.0249 15.2982 79.0249 15.2982Z" fill="#EFC43A"/>
<path d="M84.0091 0C84.0091 0 87.3202 1.40926 88.2536 4.2012C89.416 7.69334 88.6234 10.4941 88.6234 10.4941C88.6234 10.4941 85.3564 8.48218 84.3437 6.56771C82.926 3.87326 84.0091 0 84.0091 0Z" fill="#EFC43A"/>
<path d="M83.8594 8.61518C83.8594 8.61518 81.3849 10.0244 79.1922 9.2622C76.4535 8.31382 75.0974 6.45253 75.0974 6.45253C75.0974 6.45253 77.9329 5.36234 79.6149 5.64597C81.9749 6.06254 83.8594 8.61518 83.8594 8.61518Z" fill="#EFC43A"/>
<path d="M43.2637 52.5151C43.2637 52.1429 43.0612 51.9479 42.7002 51.9479H40.2961C39.9263 51.9479 39.7325 52.1517 39.7325 52.5151V53.6585C39.7325 54.0307 39.9351 54.146 40.2961 54.2257L43.4046 54.8993C44.7079 55.183 45.8087 55.9718 45.8087 57.319V59.4994C45.8087 60.9087 44.84 61.8836 43.4399 61.8836H39.6973C38.2972 61.8836 37.3285 60.9087 37.3285 59.4994V57.9572H39.6621V59.0296C39.6621 59.4019 39.8646 59.5969 40.2257 59.5969H42.8322C43.2021 59.5969 43.3958 59.393 43.3958 59.0296V57.7533C43.3958 57.3811 43.1933 57.2658 42.8322 57.1861L39.7237 56.5125C38.4205 56.2288 37.3197 55.44 37.3197 54.0928V52.0454C37.3197 50.6361 38.2884 49.6611 39.6885 49.6611H43.2285C44.6287 49.6611 45.5973 50.6361 45.5973 52.0454V53.4546H43.2637V52.5151Z" fill="#333333"/>
<path d="M55.2927 49.7231V52.0099H49.833V54.4916H54.2536V56.7783H49.833V59.5348H55.2927V61.8216H47.429V49.7231H55.2927Z" fill="#333333"/>
<path d="M58.7975 61.8127H56.3142L60.1888 49.7231H62.9891L66.8638 61.8127H64.2748L63.4911 59.0917H59.5988L58.7975 61.8127ZM60.2681 56.8138H62.8394L61.5714 52.3821L60.2681 56.8138Z" fill="#333333"/>
<path d="M74.4193 61.8127L72.482 57.3279H70.5447V61.8127H68.1406V49.7231H74.2696C75.6697 49.7231 76.6384 50.6981 76.6384 52.1074V54.9436C76.6384 56.087 76.0044 56.9379 75.0005 57.2304L76.9994 61.8127H74.4193V61.8127ZM74.2344 52.5771C74.2344 52.2049 74.0318 52.0099 73.6708 52.0099H70.5535V55.0854H73.6708C74.0406 55.0854 74.2344 54.8816 74.2344 54.5182V52.5771Z" fill="#333333"/>
<path d="M84.3084 52.5151C84.3084 52.1429 84.1059 51.9479 83.7448 51.9479H81.1383C80.7684 51.9479 80.5747 52.1517 80.5747 52.5151V59.0296C80.5747 59.4019 80.7772 59.5969 81.1383 59.5969H83.7448C84.1147 59.5969 84.3084 59.393 84.3084 59.0296V57.5495H86.7125V59.4994C86.7125 60.9087 85.7438 61.8836 84.3437 61.8836H80.5395C79.1393 61.8836 78.1707 60.9087 78.1707 59.4994V52.0454C78.1707 50.6361 79.1393 49.6611 80.5395 49.6611H84.3437C85.7438 49.6611 86.7125 50.6361 86.7125 52.0454V53.9953H84.3084V52.5151Z" fill="#333333"/>
<path d="M88.2711 49.7231H90.6752V54.4916H94.814V49.7231H97.218V61.8127H94.814V56.7695H90.6752V61.8127H88.2711V49.7231Z" fill="#333333"/>
<path d="M35.5321 76.3484H33.0488L36.9235 64.25H39.7238L43.5984 76.3484H41.0094L40.2257 73.6274H36.3335L35.5321 76.3484ZM37.0027 71.3495H39.5741L38.306 66.9179L37.0027 71.3495Z" fill="#333333"/>
<path d="M52.2018 76.3486L50.2293 68.3893L48.2567 76.3486H45.8879L42.9027 64.259H45.4741L47.112 73.0957L49.2782 64.259H51.1803L53.3466 73.0957L54.9845 64.259H57.459L54.4738 76.3574H52.2018V76.3486Z" fill="#333333"/>
<path d="M59.2643 76.3484H56.781L60.6556 64.25H63.4559L67.3306 76.3484H64.7416L63.9579 73.6274H60.0656L59.2643 76.3484ZM60.7349 71.3495H63.3062L62.0382 66.9179L60.7349 71.3495Z" fill="#333333"/>
<path d="M74.8861 76.3486L72.9488 71.8637H71.0115V76.3486H68.6074V64.259H74.7364C76.1365 64.259 77.1052 65.234 77.1052 66.6433V69.4795C77.1052 70.6229 76.4712 71.4738 75.4673 71.7663L77.4662 76.3486H74.8861ZM74.7012 67.113C74.7012 66.7408 74.4986 66.5458 74.1376 66.5458H71.0203V69.6213H74.1376C74.5074 69.6213 74.7012 69.4175 74.7012 69.0541V67.113Z" fill="#333333"/>
<path d="M85.2155 64.259C86.6157 64.259 87.5843 65.234 87.5843 66.6433V73.9643C87.5843 75.3736 86.6157 76.3486 85.2155 76.3486H78.9545V64.259H85.2155ZM84.6167 74.0707C84.9866 74.0707 85.1803 73.8669 85.1803 73.5035V67.1219C85.1803 66.7496 84.9778 66.5546 84.6167 66.5546H81.3585V74.0796H84.6167V74.0707Z" fill="#333333"/>
<path d="M95.0253 67.0421C95.0253 66.6699 94.8228 66.4749 94.4618 66.4749H92.0577C91.6879 66.4749 91.4941 66.6787 91.4941 67.0421V68.1855C91.4941 68.5578 91.6967 68.673 92.0577 68.7528L95.1662 69.4264C96.4695 69.71 97.5703 70.4988 97.5703 71.846V74.0264C97.5703 75.4357 96.6016 76.4106 95.2015 76.4106H91.4589C90.0588 76.4106 89.0901 75.4357 89.0901 74.0264V72.4842H91.4237V73.5655C91.4237 73.9378 91.6262 74.1328 91.9873 74.1328H94.5938C94.9637 74.1328 95.1574 73.9289 95.1574 73.5655V72.2892C95.1574 71.917 94.9549 71.8017 94.5938 71.722L91.4853 71.0484C90.182 70.7647 89.0813 69.9759 89.0813 68.6287V66.5813C89.0813 65.172 90.05 64.197 91.4501 64.197H94.9901C96.3903 64.197 97.3589 65.172 97.3589 66.5813V67.9905H95.0253V67.0421V67.0421Z" fill="#333333"/>
<path d="M67.0576 90.8842H63.0685V86.816C63.0685 85.4687 64.2044 84.8306 65.4725 84.3963L68.3433 83.3859C68.7748 83.2352 69.0125 83.1466 69.0125 82.7123V81.6664C69.0125 81.2321 68.7748 80.9928 68.3433 80.9928H67.5595V78.7061H69.0125C70.351 78.7061 71.4165 79.7785 71.4165 81.1257V83.2441C71.4165 84.5913 70.2806 85.2294 69.0125 85.6637L66.1418 86.6742C65.7103 86.8248 65.4725 86.9135 65.4725 87.3478V88.5886H67.0576V90.8842ZM63.2094 81.1435C63.2094 79.7962 64.2749 78.7238 65.6134 78.7238H67.0664V81.0105H66.2122C65.7807 81.0105 65.543 81.2498 65.543 81.6841V82.4552H63.2094V81.1435ZM67.5595 90.8842V88.5975H71.4518V90.8842H67.5595Z" fill="#3B75C4"/>
<path d="M75.8106 81.0106C75.4408 81.0106 75.2471 81.2145 75.2471 81.5779V88.0924C75.2471 88.4646 75.4496 88.6596 75.8106 88.6596H76.8321V90.9464H75.203C73.8029 90.9464 72.8342 89.9714 72.8342 88.5621V81.1081C72.8342 79.6988 73.8029 78.7239 75.203 78.7239H76.8233V81.0106H75.8106ZM78.9632 78.7239C80.3633 78.7239 81.332 79.6988 81.332 81.1081V88.5621C81.332 89.9714 80.3633 90.9464 78.9632 90.9464H77.3253V88.6596H78.3644C78.7342 88.6596 78.928 88.4558 78.928 88.0924V81.5779C78.928 81.2056 78.7254 81.0106 78.3644 81.0106H77.3253V78.7239H78.9632Z" fill="#3B75C4"/>
<path d="M84.872 81.3121L82.6881 82.0832V80.0712L85.3739 78.7949H87.276V90.8933H84.872V81.3121Z" fill="#3B75C3"/>
<path d="M94.4265 88.6686C94.858 88.6686 95.0957 88.4381 95.0957 87.995V85.0701L94.7611 85.3892C94.3913 85.7437 93.7572 86.3109 92.859 86.3109H91.4413C90.1028 86.3109 89.0372 85.2385 89.0372 83.8913V81.1348C89.0372 79.7876 90.1028 78.7151 91.4413 78.7151H93.0087V81.0018H92.1105C91.679 81.0018 91.4413 81.2411 91.4413 81.6754V83.4924C91.4413 83.9267 91.679 84.166 92.1105 84.166H93.0968C93.5635 84.166 94.1799 84.0685 94.7699 83.714L95.1046 83.5101V81.6754C95.1046 81.2411 94.8668 81.0018 94.4353 81.0018H93.5195V78.7151H95.1046C96.4431 78.7151 97.5086 79.7876 97.5086 81.1348V88.5268C97.5086 89.874 96.4431 90.9465 95.1046 90.9465H93.5899V88.6597H94.4265V88.6686ZM91.5734 90.9553C90.2348 90.9553 89.1693 89.8829 89.1693 88.5356V87.4277H91.5734V87.995C91.5734 88.4293 91.8111 88.6686 92.2426 88.6686H93.0792V90.9553H91.5734Z" fill="#3B75C4"/>
<path d="M79.3848 47.1604C77.9752 47.1604 77 46.1855 77 44.7762V35H79.4203V44.3065C79.4203 44.6787 79.6242 44.8737 79.9877 44.8737H81.0604V47.1604H79.3848ZM82.6385 44.8737C83.0108 44.8737 83.2058 44.6699 83.2058 44.3065V35H85.6261V44.7762C85.6261 46.1855 84.6509 47.1604 83.2413 47.1604H81.5569V44.8737H82.6385Z" fill="#3B75C4"/>
<path fill-rule="evenodd" clip-rule="evenodd" d="M90.4889 43.929V46.9895H88V35H90.4889V40.6266L90.49 40.6253V43.9277L90.4889 43.929ZM90.99 43.3178L92.2478 41.7835L92.2502 41.7878L94.4304 39.1336L97.8119 35H94.8473L90.99 39.9798V43.3178ZM92.5118 42.257L94.2014 40.2001L98 47H95.1571L92.5118 42.257Z" fill="#3B75C4"/>
</svg>
