<svg width="164" height="276" viewBox="0 0 164 276" fill="none" xmlns="http://www.w3.org/2000/svg">
<g clip-path="url(#clip0)">
<path d="M36.5454 238.999L37.0763 250.656C37.0763 250.656 54.8617 266.64 75.1423 262.947C97.2812 258.938 61.3919 237.258 61.3919 237.258" fill="black"/>
<path d="M36.5454 238.999L37.0763 250.656C37.0763 250.656 54.8617 266.64 75.1423 262.947C97.2812 258.938 61.3919 237.258 61.3919 237.258" stroke="black" stroke-miterlimit="10" stroke-linecap="round" stroke-linejoin="round"/>
<path d="M59.1621 227.341L59.7992 238.682C59.7992 238.682 76.5228 254.138 95.37 250.392C115.916 246.331 82.3097 225.442 82.3097 225.442" fill="black"/>
<path d="M59.1621 227.341L59.7992 238.682C59.7992 238.682 76.5228 254.138 95.37 250.392C115.916 246.331 82.3097 225.442 82.3097 225.442" stroke="black" stroke-miterlimit="10" stroke-linecap="round" stroke-linejoin="round"/>
<path d="M59.1621 227.341V228.026L76.1511 226.655C76.1511 226.655 106.731 245.592 91.7067 250.92C92.9278 250.814 94.0958 250.656 95.3169 250.445C115.863 246.383 82.2566 225.494 82.2566 225.494L59.1621 227.341Z" fill="black" stroke="black" stroke-miterlimit="10" stroke-linecap="round" stroke-linejoin="round"/>
<path d="M61.3394 227.868L61.8703 237.732C61.9234 238.734 62.4543 239.684 63.3037 240.37C67.6572 243.904 81.8855 254.032 97.4941 250.92C118.04 246.858 84.4338 225.969 84.4338 225.969" fill="black"/>
<path d="M61.3394 227.868L61.8703 237.732C61.9234 238.734 62.4543 239.684 63.3037 240.37C67.6572 243.904 81.8855 254.032 97.4941 250.92C118.04 246.858 84.4338 225.969 84.4338 225.969" stroke="black" stroke-miterlimit="10" stroke-linecap="round" stroke-linejoin="round"/>
<path d="M79.6025 238.102C82.3102 238.629 85.3363 238.471 87.8847 237.68C90.433 236.888 92.3974 235.517 93.2999 233.882" fill="black"/>
<path d="M79.6025 238.102C82.3102 238.629 85.3363 238.471 87.8847 237.68C90.433 236.888 92.3974 235.517 93.2999 233.882" stroke="black" stroke-miterlimit="10" stroke-linecap="round" stroke-linejoin="round"/>
<path d="M76.8418 233.723C78.9654 234.356 81.5669 234.462 83.7967 233.987C86.0796 233.512 88.9465 231.719 89.5305 230.558" fill="black"/>
<path d="M76.8418 233.723C78.9654 234.356 81.5669 234.462 83.7967 233.987C86.0796 233.512 88.9465 231.719 89.5305 230.558" stroke="black" stroke-miterlimit="10" stroke-linecap="round" stroke-linejoin="round"/>
<path d="M65.4806 243.008C66.914 238.735 65.5867 234.304 59.4282 232.405Z" fill="black"/>
<path d="M65.4806 243.008C66.914 238.735 65.5867 234.304 59.4282 232.405" stroke="black" stroke-miterlimit="10" stroke-linecap="round" stroke-linejoin="round"/>
<path d="M61.7637 225.864L62.4008 237.205C62.4008 237.205 79.1243 252.661 97.9715 248.916C118.518 244.854 84.9112 223.965 84.9112 223.965" fill="white"/>
<path d="M61.7637 225.864L61.8168 226.55L78.8058 225.178C78.8058 225.178 109.386 244.115 94.3614 249.443C95.5824 249.338 96.7504 249.179 97.9715 248.968C118.518 244.907 84.9112 224.018 84.9112 224.018L61.7637 225.864Z" fill="white"/>
<path d="M61.7637 225.864L62.2946 235.728C62.3477 236.73 62.8786 237.68 63.728 238.366C68.0815 241.9 82.3098 252.028 97.9184 248.916C118.465 244.854 84.8581 223.965 84.8581 223.965" stroke="black" stroke-miterlimit="10" stroke-linecap="round" stroke-linejoin="round"/>
<path d="M79.6548 234.409C87.5122 234.462 92.4496 231.824 93.3522 230.189" stroke="black" stroke-miterlimit="10" stroke-linecap="round" stroke-linejoin="round"/>
<path d="M83.2656 237.733C91.123 237.785 96.0605 235.148 96.963 233.513" stroke="black" stroke-miterlimit="10" stroke-linecap="round" stroke-linejoin="round"/>
<path d="M68.1349 241.583C69.5683 237.311 68.241 232.88 62.0825 230.981" stroke="black" stroke-miterlimit="10" stroke-linecap="round" stroke-linejoin="round"/>
<path d="M36.439 237.047L37.1291 248.705C37.1291 248.705 55.1269 264.582 75.3544 260.784C97.4402 256.564 61.2854 235.148 61.2854 235.148" fill="white"/>
<path d="M36.439 237.047L36.4921 237.785L54.7022 236.361C54.7022 236.361 87.5122 255.826 71.4257 261.259C72.6999 261.154 74.0272 260.995 75.3013 260.732C97.3871 256.512 61.2323 235.095 61.2323 235.095L36.439 237.047Z" fill="white"/>
<path d="M36.439 237.047L37.023 247.175C37.0761 248.177 37.607 249.179 38.5626 249.865C43.2346 253.505 58.4716 263.949 75.3013 260.732C97.3871 256.512 61.2323 235.095 61.2323 235.095" stroke="black" stroke-miterlimit="10" stroke-linecap="round" stroke-linejoin="round"/>
<path d="M60.0645 250.34C62.9844 250.868 66.223 250.709 68.9306 249.918C71.6382 249.127 73.8149 247.703 74.7706 246.015" stroke="black" stroke-miterlimit="10" stroke-linecap="round" stroke-linejoin="round"/>
<path d="M58.2588 246.331C60.5417 247.017 63.3024 247.07 65.7446 246.595C68.1867 246.12 71.266 244.274 71.9031 243.061" stroke="black" stroke-miterlimit="10" stroke-linecap="round" stroke-linejoin="round"/>
<path d="M43.2347 253.136C44.7744 248.758 43.3409 244.168 36.7046 242.269" stroke="black" stroke-miterlimit="10" stroke-linecap="round" stroke-linejoin="round"/>
<path d="M76.2037 230.822C92.184 230.822 96.2189 226.972 96.2189 226.972C108.483 160.085 95.3163 106.702 95.3163 105.594L67.9746 111.977L75.6728 233.407" fill="white"/>
<path d="M76.2037 230.822C92.184 230.822 96.2189 226.972 96.2189 226.972C108.483 160.085 95.3163 106.702 95.3163 105.594L67.9746 111.977L75.6728 233.407" stroke="black" stroke-miterlimit="10" stroke-linecap="round" stroke-linejoin="round"/>
<path d="M80.2923 128.224C81.1417 140.831 81.0356 191.471 74.9301 241.056C74.9301 241.056 52.8444 246.858 35.4307 238.313C35.4307 238.313 43.1819 127.38 40.6866 111.344L82.7876 105.594" fill="white"/>
<path d="M80.2923 128.224C81.1417 140.831 81.0356 191.471 74.9301 241.056C74.9301 241.056 52.8444 246.858 35.4307 238.313C35.4307 238.313 43.1819 127.38 40.6866 111.344L82.7876 105.594" stroke="black" stroke-miterlimit="10" stroke-linecap="round" stroke-linejoin="round"/>
<path d="M61.073 54.6905C66.7006 53.5828 90.1667 51.5255 104.714 59.7545C117.561 67.034 101.156 81.6985 99.4576 91.721C95.5819 114.509 100.413 134.185 98.0772 135.451L49.1807 131.125C49.1276 131.178 52.2599 107.177 52.1538 107.177C52.0476 107.177 42.7567 105.647 36.3858 110.658C32.8288 113.454 30.8113 117.674 30.4397 123.318C30.4397 123.424 30.3335 123.529 30.2273 123.582C30.1742 123.582 30.1742 123.582 30.1211 123.582C30.068 123.582 29.9619 123.529 29.9088 123.476C28.9531 122.474 21.4143 114.72 22.6354 94.3585C23.591 78.9027 38.6156 59.0688 61.073 54.6905Z" fill="black" stroke="black" stroke-miterlimit="10" stroke-linecap="round" stroke-linejoin="round"/>
<path d="M64.099 40.3423C63.515 43.5073 61.9754 49.9428 59.7456 55.7453C67.9747 62.1807 72.9121 63.0775 77.5841 63.0775C77.6903 62.6027 77.9026 52.6858 78.0619 51.2615" fill="white"/>
<path d="M64.099 40.3423C63.515 43.5073 61.9754 49.9428 59.7456 55.7453C67.9747 62.1807 72.9121 63.0775 77.5841 63.0775C77.6903 62.6027 77.9026 52.6858 78.0619 51.2615" stroke="black" stroke-miterlimit="10" stroke-linecap="round" stroke-linejoin="round"/>
<path d="M99.5637 133.024L101.528 147.583C101.528 147.583 70.9478 158.08 40.5269 144.524L41.801 123.476L99.5637 133.024Z" fill="black" stroke="black" stroke-miterlimit="10" stroke-linecap="round" stroke-linejoin="round"/>
<path d="M57.0383 113.454C55.1801 111.502 53.959 108.97 51.9947 107.071C50.0303 105.172 47.8005 107.176 45.0929 107.229C42.6507 107.335 39.9962 107.335 38.2973 109.075C36.5984 110.816 35.4304 110.763 34.2093 112.821C32.1918 116.249 29.8559 120.206 30.1213 123.054C30.3337 125.533 34.8464 127.802 36.97 129.12C57.6754 141.886 83.6367 145.842 107.209 139.881C108.749 139.512 110.288 139.037 111.509 138.035C112.73 137.033 111.138 135.134 110.554 133.657C108.165 127.907 97.6527 131.389 92.025 130.545C82.8404 129.12 68.6121 125.533 57.0383 113.454Z" fill="white"/>
<path d="M95.794 124.215C94.3074 124.215 92.9802 123.476 92.1838 122.21L62.8247 75.2629C61.6036 73.3112 62.1876 70.7264 64.205 69.4604L71.213 65.135C71.9032 64.713 72.6464 64.502 73.4428 64.502C74.9293 64.502 76.2566 65.2405 77.053 66.5065L106.412 113.454C107.633 115.406 107.049 117.99 105.032 119.204L98.0238 123.529C97.3336 124.004 96.5903 124.215 95.794 124.215Z" fill="white"/>
<path d="M73.4434 65.0293C74.7707 65.0293 75.9387 65.6623 76.6289 66.7701L105.988 113.718C107.05 115.458 106.519 117.726 104.767 118.834L97.759 123.16C97.175 123.529 96.4848 123.74 95.7946 123.74C94.4673 123.74 93.2993 123.107 92.6092 121.999L63.25 75.0518C62.1882 73.3111 62.7191 71.0428 64.4711 69.9351L71.4791 65.6096C72.1162 65.2403 72.7532 65.0293 73.4434 65.0293ZM73.4434 64.0798C72.594 64.0798 71.7445 64.2908 70.9482 64.7656L63.9402 69.0911C61.7104 70.4626 61.0733 73.3638 62.4006 75.5266L91.7597 122.474C92.6622 123.898 94.2019 124.689 95.7415 124.689C96.591 124.689 97.4404 124.478 98.2368 124.004L105.245 119.678C107.475 118.307 108.112 115.405 106.784 113.243L77.4252 66.2953C76.5758 64.8711 75.0361 64.0798 73.4434 64.0798Z" fill="black"/>
<path d="M52.1542 106.913C52.1542 106.913 39.4125 104.75 33.2539 113.506C31.6612 115.775 30.4932 118.834 30.1216 122.843V122.896C30.1216 122.949 30.1216 123.001 30.1216 123.054C30.1216 123.16 30.1216 123.212 30.1216 123.318C50.6146 144.734 89.6893 144.101 102.325 141.253C105.457 140.567 109.174 138.879 111.563 137.982" stroke="black" stroke-miterlimit="10" stroke-linecap="round" stroke-linejoin="round"/>
<path d="M129.348 121.208C130.356 122.579 141.399 117.832 142.78 104.275C143.204 100.161 144.903 80.3795 124.463 70.8318" stroke="black" stroke-miterlimit="10" stroke-linecap="round" stroke-linejoin="round"/>
<path d="M94.6795 104.645L124.729 109.762C126.587 110.078 128.339 108.865 128.658 107.019L135.878 66.6648L126.322 53.2136L104.501 49.4684C102.643 49.1519 100.891 50.3651 100.573 52.2114L91.9719 100.689C91.6003 102.535 92.8214 104.328 94.6795 104.645Z" fill="white" stroke="black" stroke-miterlimit="10" stroke-linecap="round" stroke-linejoin="round"/>
<path d="M124.304 64.8713L135.825 66.8758L131.047 60.1238L126.269 53.3718L124.304 64.8713Z" fill="white" stroke="black" stroke-miterlimit="10" stroke-linecap="round" stroke-linejoin="round"/>
<path d="M129.507 71.993L104.13 67.6675" stroke="black" stroke-miterlimit="10" stroke-linecap="round" stroke-linejoin="round"/>
<path d="M128.286 79.9578L102.908 75.5796" stroke="black" stroke-miterlimit="10" stroke-linecap="round" stroke-linejoin="round"/>
<path d="M126.799 87.8704L101.369 83.5449" stroke="black" stroke-miterlimit="10" stroke-linecap="round" stroke-linejoin="round"/>
<path d="M124.994 95.783L99.564 91.4575" stroke="black" stroke-miterlimit="10" stroke-linecap="round" stroke-linejoin="round"/>
<path d="M52.2066 74.8408C52.2066 74.8408 48.915 63.4468 37.5005 64.9765" stroke="white" stroke-miterlimit="10" stroke-linecap="round" stroke-linejoin="round"/>
<path d="M82.6273 34.2235C82.6273 34.2235 82.6804 34.2235 82.6273 34.2235C81.4593 27.9463 78.1677 22.8823 74.1328 20.7195C73.9736 20.614 83.4768 20.5613 83.4768 20.5613C83.2644 20.9305 84.5917 26.3638 82.6273 34.2235Z" fill="black" stroke="black" stroke-miterlimit="10" stroke-linecap="round" stroke-linejoin="round"/>
<path d="M66.1695 51.7364C63.1433 49.6264 60.5419 46.1977 59.3739 41.7667C57.8873 42.1359 57.0379 41.6612 55.7637 40.1842C54.0648 38.2324 54.755 35.4894 56.3477 34.1179C57.4626 33.1157 59.1084 33.3267 60.595 34.1179C61.2851 26.4692 63.5149 20.2447 68.9833 19.6645C75.6196 18.9787 82.0436 26.4164 82.9461 36.3334C83.6894 44.2459 79.9731 53.3189 73.9738 54.0574C71.5316 54.3211 68.7178 53.4771 66.1695 51.7364Z" fill="white"/>
<path d="M73.9737 54.0574C73.0181 54.1629 72.0094 54.1101 71.0006 53.8991C75.2479 51.1562 77.6901 43.7712 77.1061 37.2302C76.3097 28.7374 71.4785 22.0382 65.957 20.7195C66.8596 20.1392 67.8152 19.77 68.9832 19.6645C75.6195 18.9787 82.0435 26.4164 82.9461 36.3334C83.6893 44.2459 79.973 53.3189 73.9737 54.0574Z" fill="white"/>
<path d="M78.3799 24.3064C80.8221 27.3132 82.521 31.5332 82.9457 36.3334C83.689 44.2459 79.9726 53.3189 73.9734 54.0574C71.5312 54.3211 68.7174 53.5299 66.1691 51.7364C63.1429 49.6264 60.5414 46.1977 59.3734 41.7667C57.8869 42.1359 57.0375 41.6612 55.7633 40.1842C54.5422 38.8127 54.5422 37.0192 55.2324 35.5949C55.4978 35.0147 55.8695 34.4872 56.3473 34.1179C57.4622 33.1684 59.0549 33.3267 60.5414 34.0652C60.5414 34.0652 60.5945 34.0652 60.5945 34.1179C61.2847 26.4692 63.5145 20.2447 68.9829 19.6645C72.4338 19.2952 75.7785 21.0887 78.3799 24.3064Z" stroke="black" stroke-miterlimit="10" stroke-linecap="round" stroke-linejoin="round"/>
<path d="M83.9018 22.935C82.7869 23.7262 80.7163 24.0955 78.3803 24.3065C74.08 24.6757 68.824 24.5702 66.5942 25.3087C63.4088 26.3637 61.4444 28.3155 60.595 34.0652C60.595 34.0652 60.5419 34.0652 60.5419 34.0125C59.0553 33.274 57.4626 33.063 56.3477 34.0652C55.8699 34.4872 55.4983 34.9619 55.2328 35.5422C54.3303 31.6387 52.8437 21.9855 56.9317 16.8687C62.6655 9.85299 77.3185 13.3345 84.3265 8.53425C84.8574 9.43099 83.6894 11.0135 82.7869 12.2795C84.5389 12.385 86.397 12.2267 92.7148 7.47925C93.4581 10.6442 92.3963 17.1852 83.9018 22.935Z" fill="black" stroke="black" stroke-miterlimit="10" stroke-linecap="round" stroke-linejoin="round"/>
<path d="M75.4604 35.7005C75.4604 35.7005 80.0262 35.2257 80.5572 36.228C81.3004 37.5467 76.0975 39.5512 76.0975 39.5512" stroke="black" stroke-miterlimit="10" stroke-linecap="round" stroke-linejoin="round"/>
<path d="M70.8413 40.0786C70.8413 40.0786 72.6464 43.8766 75.938 42.9799" stroke="black" stroke-miterlimit="10" stroke-linecap="round" stroke-linejoin="round"/>
<path d="M61.0728 35.1201C60.2234 33.5376 58.7368 33.4321 58.7368 33.4321" stroke="black" stroke-miterlimit="10" stroke-linecap="round" stroke-linejoin="round"/>
<path d="M82.4682 81.751L107.155 139.565C107.633 140.62 108.854 141.147 109.916 140.673L139.063 128.382C140.125 127.907 140.656 126.694 140.178 125.639L115.491 67.8251C115.013 66.7701 113.792 66.2426 112.73 66.7173L83.5831 79.008C82.5213 79.43 81.9904 80.696 82.4682 81.751Z" fill="white" stroke="black" stroke-miterlimit="10" stroke-linecap="round" stroke-linejoin="round"/>
<path d="M112.04 121.261C112.412 121.472 112.73 121.63 113.155 121.788C114.96 122.474 116.924 122.368 118.729 121.577C122.34 119.889 123.932 115.616 122.233 111.977L117.296 101.427C115.597 97.8396 111.297 96.2571 107.633 97.9451L108.642 100.161C111.084 99.0528 113.951 100.108 115.066 102.482L120.004 113.032C121.119 115.458 120.057 118.307 117.668 119.414C116.5 119.942 115.172 119.995 113.951 119.573C112.73 119.151 111.775 118.254 111.244 117.093L108.961 112.188L106.731 113.19L109.014 118.096C109.704 119.414 110.766 120.522 112.04 121.261Z" fill="black" stroke="black" stroke-miterlimit="10" stroke-linecap="round" stroke-linejoin="round"/>
<path d="M105.245 106.754C105.616 106.965 105.935 107.123 106.359 107.282C108.165 107.967 110.129 107.862 111.934 107.071L110.925 104.855C109.757 105.383 108.43 105.435 107.209 105.013C105.988 104.591 105.032 103.695 104.501 102.534L99.4577 91.826C98.3428 89.3995 99.4046 86.551 101.794 85.4433C102.962 84.9158 104.289 84.863 105.51 85.285C106.731 85.707 107.687 86.6038 108.218 87.7643L110.713 93.0393L112.943 92.037L110.447 86.762C109.651 85.0213 108.165 83.7025 106.359 83.0168C104.554 82.331 102.537 82.4365 100.785 83.2805C97.1748 84.9685 95.5821 89.2413 97.281 92.881L102.325 103.589C102.909 104.908 103.917 106.016 105.245 106.754Z" fill="black" stroke="black" stroke-miterlimit="10" stroke-linecap="round" stroke-linejoin="round"/>
<path d="M120.694 115.142C119.526 115.511 118.358 115.827 117.296 116.038C113.898 116.671 114.429 114.034 116.287 113.348C123.03 110.605 126.215 108.231 127.649 106.385C127.011 106.28 120.428 105.383 120.428 103.537C120.428 101.585 134.922 99.897 134.922 99.897L137.683 110.605C140.125 113.876 137.47 117.252 134.922 119.414C133.435 120.68 131.737 121.63 130.091 122.263C125.631 124.056 120.481 124.373 119.101 122.579L119.154 122.527C117.561 122.685 116.393 122.579 116.181 122.052C115.65 120.733 118.464 119.889 120.959 119.098C117.455 120.153 113.951 120.575 113.686 119.678C113.208 118.201 121.809 114.825 121.809 114.825L123.614 114.087C122.711 114.403 121.702 114.772 120.694 115.142Z" fill="white"/>
<path d="M134.71 98.5254C134.71 98.5254 134.922 99.6859 133.011 100.108C129.082 100.635 120.375 102.007 120.375 103.537C120.375 105.488 127.437 106.332 127.437 106.332" stroke="black" stroke-miterlimit="10" stroke-linecap="round" stroke-linejoin="round"/>
<path d="M121.755 114.773C121.755 114.773 113.155 118.201 113.632 119.626C114.11 121.103 122.392 119.151 126.427 116.83" stroke="black" stroke-miterlimit="10" stroke-linecap="round" stroke-linejoin="round"/>
<path d="M128.764 119.784C127.33 121.208 116.765 123.582 116.128 122.052C115.385 120.153 121.756 119.151 123.773 118.043" stroke="black" stroke-miterlimit="10" stroke-linecap="round" stroke-linejoin="round"/>
<path d="M119.101 122.527C120.428 124.32 125.631 124.004 130.091 122.21C133.436 120.892 136.993 118.412 139.01 114.773" stroke="black" stroke-miterlimit="10" stroke-linecap="round" stroke-linejoin="round"/>
<path d="M128.764 104.275C128.764 104.275 127.543 108.706 116.234 113.296C114.323 113.981 113.845 116.619 117.243 115.986C120.641 115.353 125.1 113.454 126.215 112.557" stroke="black" stroke-miterlimit="10" stroke-linecap="round" stroke-linejoin="round"/>
<path d="M82.8929 126.852C81.9903 126.852 81.194 126.43 80.6631 125.745L80.2383 125.164L78.6987 126.536L73.2304 123.74L76.9998 120.681L75.5664 118.729L73.018 120.522C72.5402 120.839 72.0093 121.05 71.4253 121.05C70.5227 121.05 69.7264 120.628 69.1955 119.942C68.7707 119.362 68.6115 118.623 68.7177 117.885C68.8238 117.146 69.2486 116.513 69.8326 116.091L72.3809 114.298L63.9926 102.798C63.5679 102.218 63.4086 101.48 63.5148 100.794C63.6209 100.108 64.0457 99.4224 64.6297 99.0004C65.1075 98.6839 65.6384 98.4729 66.2224 98.4729C67.1249 98.4729 67.9213 98.8949 68.4522 99.5807L85.1227 122.527C85.5474 123.107 85.7067 123.846 85.6005 124.531C85.4943 125.27 85.0696 125.903 84.4856 126.325C84.0609 126.694 83.4769 126.852 82.8929 126.852Z" fill="white"/>
<path d="M66.2225 98.9478C66.9127 98.9478 67.6029 99.2643 68.0276 99.8973L84.6981 122.843C85.4413 123.846 85.1759 125.27 84.1672 125.956C83.7424 126.219 83.3177 126.378 82.8399 126.378C82.1497 126.378 81.4595 126.061 81.0348 125.428L80.2916 124.426L78.5926 125.956L74.0799 123.635L77.5839 120.786L75.6196 118.043L72.6996 120.153C72.2749 120.417 71.8501 120.575 71.3723 120.575C70.6821 120.575 69.992 120.259 69.5672 119.626C68.824 118.623 69.0894 117.199 70.0981 116.514L73.0181 114.404L64.3643 102.482C63.6211 101.48 63.8865 100.056 64.8953 99.3698C65.32 99.106 65.7978 98.9478 66.2225 98.9478ZM66.2225 97.9983C65.5323 97.9983 64.8953 98.2093 64.3113 98.6313C63.6211 99.1588 63.1433 99.8973 63.0371 100.741C62.8778 101.585 63.0902 102.429 63.6211 103.115L71.6909 114.245L69.5672 115.775C68.8771 116.303 68.3992 117.041 68.2931 117.885C68.1869 118.729 68.3461 119.573 68.8771 120.259C69.4611 121.103 70.4698 121.577 71.4785 121.577C72.1687 121.577 72.8058 121.366 73.3898 120.944L75.5134 119.415L76.3628 120.628L73.549 122.896L72.381 123.846L73.7083 124.531L78.221 126.852L78.8581 127.169L79.389 126.694L80.2385 125.903L80.3446 126.008C80.9286 126.852 81.9374 127.327 82.9461 127.327C83.6363 127.327 84.2734 127.116 84.8573 126.694C85.5475 126.167 86.0253 125.428 86.1315 124.584C86.2908 123.74 86.0784 122.896 85.5475 122.21L68.8771 99.317C68.24 98.473 67.2843 97.9983 66.2225 97.9983Z" fill="black"/>
<path d="M55.4449 106.544C51.3038 106.544 47.322 104.539 44.9329 101.216C42.5969 97.9982 41.9067 93.9893 42.9685 90.1385C43.7649 87.3955 45.57 84.8635 48.0653 83.07L54.8609 78.217C57.0907 76.6345 59.6921 75.7905 62.4528 75.7905C66.8063 75.7905 70.8412 77.9533 73.2302 81.4875C77.0528 87.1845 75.5131 95.1497 69.7794 99.2642L63.0368 104.117C60.807 105.7 58.2056 106.544 55.4449 106.544ZM62.3997 81.2238C60.807 81.2238 59.3205 81.6985 58.0463 82.648L51.1976 87.5538C49.8172 88.556 48.8085 89.822 48.3307 91.299C47.5874 93.62 47.9591 96.0992 49.3394 98.051C50.7198 100.003 53.0027 101.11 55.3918 101.11C56.9845 101.11 58.471 100.636 59.7452 99.6862L66.5939 94.7805C67.9743 93.7782 68.983 92.5123 69.4608 91.0353C70.2041 88.7143 69.8324 86.235 68.4521 84.2833C67.0717 82.3843 64.8419 81.2238 62.3997 81.2238Z" fill="white"/>
<path d="M62.4 76.2652C66.4349 76.2652 70.3636 78.1642 72.8058 81.7512C76.5752 87.3427 74.9825 94.9387 69.4611 98.8949L62.7185 103.748C60.4887 105.33 57.9404 106.069 55.4451 106.069C51.5695 106.069 47.747 104.275 45.3048 100.952C43.075 97.8927 42.3848 94.0419 43.3935 90.2967C44.1899 87.5537 45.9419 85.1799 48.2779 83.4919L55.0735 78.6389C57.3033 77.0037 59.9047 76.2652 62.4 76.2652ZM55.4451 101.585C57.0378 101.585 58.6837 101.11 60.1171 100.108L66.9658 95.2024C68.3462 94.2002 69.4611 92.8287 69.992 91.1934C70.8414 88.7142 70.4167 86.0767 68.8771 84.0194C67.3374 81.8567 64.8953 80.7489 62.4 80.7489C60.8073 80.7489 59.1615 81.2237 57.728 82.2259L50.8793 87.1317C49.499 88.1339 48.3841 89.5054 47.8532 91.1407C47.0037 93.6199 47.4284 96.2574 48.9681 98.3147C50.5077 100.425 52.9499 101.585 55.4451 101.585ZM62.4 75.2629C59.5331 75.2629 56.8255 76.1597 54.5426 77.7949L47.747 82.6479C45.1455 84.4942 43.2874 87.1317 42.491 89.9802C41.3761 93.9364 42.1194 98.1564 44.5084 101.48C47.0037 104.961 51.0917 107.018 55.4451 107.018C58.312 107.018 61.0196 106.122 63.3025 104.486L70.0451 99.6334C72.912 97.5762 74.8763 94.5167 75.5665 91.0879C76.2567 87.6064 75.5665 84.0722 73.6021 81.1709C71.1069 77.4784 66.9127 75.2629 62.4 75.2629ZM55.4451 100.636C53.2153 100.636 51.0917 99.5807 49.7644 97.7872C48.4371 95.9409 48.0655 93.6727 48.8088 91.5099C49.2335 90.1384 50.1891 88.9252 51.4633 88.0284L58.312 83.1227C59.5331 82.2787 60.9135 81.8039 62.4 81.8039C64.6298 81.8039 66.7534 82.8589 68.0807 84.6524C69.408 86.4987 69.7796 88.7669 69.0363 90.9297C68.6116 92.3012 67.656 93.5144 66.3818 94.4112L59.5331 99.3169C58.312 100.161 56.9317 100.636 55.4451 100.636Z" fill="black"/>
<path d="M49.9774 100.688C44.9338 99.7917 39.5716 101.005 35.4306 103.959C31.2895 106.913 28.4226 111.608 27.7324 116.672" stroke="white" stroke-miterlimit="10" stroke-linecap="round" stroke-linejoin="round"/>
<path d="M104.289 134.079C104.289 134.079 109.704 127.38 108.164 124.69C107.103 122.843 101.634 129.068 97.7055 130.756C93.7767 132.444 94.5731 135.503 94.5731 135.503" fill="white"/>
<path d="M104.289 134.079C104.289 134.079 109.704 127.38 108.164 124.69C107.103 122.843 101.634 129.068 97.7055 130.756C93.7767 132.444 94.5731 135.503 94.5731 135.503" stroke="black" stroke-miterlimit="10" stroke-linecap="round"/>
<path d="M97.7058 130.756C80.6637 129.806 61.2325 122.052 52.6318 107.387" stroke="black" stroke-miterlimit="10" stroke-linecap="round" stroke-linejoin="round"/>
<path d="M125.949 131.705C126.905 130.65 128.445 130.967 128.232 131.969C128.073 132.866 126.905 136.4 124.463 136.242C124.091 136.242 123.72 136.031 123.56 135.556C123.348 134.765 125.312 132.391 125.949 131.705Z" fill="white" stroke="black" stroke-miterlimit="10" stroke-linecap="round"/>
<path d="M119.526 133.077C121.012 133.657 118.517 137.613 117.349 138.563C116.871 138.985 115.438 139.354 114.801 138.721C113.633 137.455 117.986 132.444 119.526 133.077Z" fill="white" stroke="black" stroke-miterlimit="10" stroke-linecap="round"/>
<path d="M124.41 131.072C125.844 131.705 123.349 135.925 122.287 136.928C121.809 137.35 120.429 137.824 119.791 137.086C118.623 135.82 122.871 130.439 124.41 131.072Z" fill="white" stroke="black" stroke-miterlimit="10" stroke-linecap="round"/>
<path d="M71.4067 32.8591C71.4744 32.1659 71.1523 31.5675 70.6872 31.5226C70.2221 31.4777 69.7901 32.0033 69.7223 32.6965C69.6545 33.3897 69.9767 33.988 70.4418 34.0329C70.9069 34.0778 71.3389 33.5523 71.4067 32.8591Z" fill="black"/>
<path d="M77.872 32.1884C77.9398 31.4952 77.6177 30.8969 77.1525 30.852C76.6874 30.8071 76.2554 31.3326 76.1876 32.0258C76.1199 32.7191 76.442 33.3174 76.9071 33.3623C77.3722 33.4072 77.8042 32.8816 77.872 32.1884Z" fill="black"/>
</g>
<defs>
<clipPath id="clip0">
<rect width="121" height="256" fill="white" transform="translate(22 8)"/>
</clipPath>
</defs>
</svg>
