<svg width="164" height="276" viewBox="0 0 164 276" fill="none" xmlns="http://www.w3.org/2000/svg">
<path d="M83.3658 239.274C83.3658 239.274 83.4182 241.42 81.5817 243.828C79.7451 246.237 62.2188 247.441 52.5637 244.875C42.9085 242.31 48.1559 237.913 48.1559 237.913L83.3658 239.274Z" fill="black"/>
<path d="M67.0993 228.018C68.3061 228.28 69.513 228.541 70.7199 228.855C75.2327 229.85 86.2522 234.771 83.3661 239.326C79.7454 244.928 49.9928 240.425 49.573 239.954C47.9988 239.483 46.4246 239.064 45.1652 237.965C43.8534 236.813 43.1712 235.085 42.7514 233.41C42.5415 232.52 42.3316 231.525 42.5415 230.635C42.699 229.745 43.2237 228.908 43.8534 228.227C45.2702 226.761 47.2642 226.028 49.3106 225.871C51.3571 225.714 53.3511 226.028 55.3451 226.343C59.1757 226.866 63.2687 227.18 67.0993 228.018Z" fill="white" stroke="black" stroke-miterlimit="10" stroke-linecap="round" stroke-linejoin="round"/>
<path d="M49.5205 231.682C61.3796 235.399 68.4635 226.447 68.4635 226.447C79.7454 171.896 67.6239 128.338 67.6239 127.448L42.4365 132.631L49.5205 231.682Z" fill="white" stroke="black" stroke-miterlimit="10" stroke-linecap="round" stroke-linejoin="round"/>
<path d="M57.3916 255.922C57.3916 255.922 55.8174 258.906 53.1937 260.319C50.57 261.733 30.4201 261.524 20.8174 254.718C11.2147 247.912 11.9493 245.608 12.0542 243.462C12.2117 241.368 12.9463 240.007 12.9463 240.007L57.3916 255.922Z" fill="black"/>
<path d="M44.4831 234.196C48.5761 237.284 52.3017 240.844 55.66 244.718C57.9689 247.388 60.1728 251.105 58.6511 254.299C57.8115 256.027 55.9749 257.126 54.1383 257.597C52.2493 258.068 50.3077 257.911 48.3662 257.754C39.3932 257.074 30.1578 255.712 22.3392 251.472C21.1848 250.844 16.1473 247.388 14.1008 244.457C11.4771 240.74 13.2088 236.342 14.1533 234.196" fill="white"/>
<path d="M44.4831 234.196C48.5761 237.284 52.3017 240.844 55.66 244.718C57.9689 247.388 60.1728 251.105 58.6511 254.299C57.8115 256.027 55.9749 257.126 54.1383 257.597C52.2493 258.068 50.3077 257.911 48.3662 257.754C39.3932 257.074 30.1578 255.712 22.3392 251.472C21.1848 250.844 16.1473 247.388 14.1008 244.457C11.4771 240.74 13.2088 236.342 14.1533 234.196" stroke="black" stroke-miterlimit="10" stroke-linecap="round" stroke-linejoin="round"/>
<path d="M53.7707 145.876C54.5578 156.138 56.132 196.397 48.8382 235.714C48.8382 235.714 42.6463 241.577 33.4109 242.834C26.7992 243.724 17.7212 241.787 12.4214 235.714C12.4214 235.714 19.5578 145.196 17.249 132.108L56.0271 127.396" fill="white"/>
<path d="M53.7707 145.876C54.5578 156.138 56.132 196.397 48.8382 235.714C48.8382 235.714 42.6463 241.577 33.4109 242.834C26.7992 243.724 17.7212 241.787 12.4214 235.714C12.4214 235.714 19.5578 145.196 17.249 132.108L56.0271 127.396" stroke="black" stroke-miterlimit="10" stroke-linecap="round" stroke-linejoin="round"/>
<path d="M55.3975 244.614C53.8758 243.986 52.0917 244.09 50.6224 244.928C49.2056 245.713 48.1037 247.179 47.8413 248.802" stroke="black" stroke-miterlimit="10" stroke-linecap="round" stroke-linejoin="round"/>
<path d="M52.6166 241.682C50.8325 240.792 48.5761 240.792 46.7395 241.63C44.903 242.467 43.4862 244.143 42.9614 246.08" stroke="black" stroke-miterlimit="10" stroke-linecap="round" stroke-linejoin="round"/>
<path d="M54.1381 70.0698C52.9312 76.8757 55.1351 86.2992 56.0271 93.1574C56.1846 94.3091 56.342 95.5132 56.9192 96.5603C58.1261 98.8638 60.9072 99.8061 63.3735 100.591C68.6733 102.319 73.9207 104.361 79.0106 106.717C80.2175 107.293 81.4769 107.868 82.8412 107.973C84.363 108.078 88.7708 106.403 87.1441 105.251C75.8097 96.9791 62.3765 85.828 54.1381 70.0698Z" fill="black" stroke="black" stroke-miterlimit="10" stroke-linecap="round" stroke-linejoin="round"/>
<path d="M17.9313 134.673C12.4215 112.528 9.11567 70.7505 30.3675 56.4058C33.3061 54.9923 46.1622 60.0182 48.9957 62.5311C60.54 72.5828 67.9388 103.837 69.408 132.527C64.1082 133.05 25.0677 131.427 17.9313 134.673Z" fill="black" stroke="black" stroke-miterlimit="10" stroke-linecap="round" stroke-linejoin="round"/>
<path d="M86.5669 122.37L72.5039 120.904L79.9552 107.031L90.8173 106.664L86.5669 122.37Z" fill="white"/>
<path d="M36.9794 41.3805C36.7695 40.3858 36.6646 33.4229 36.6646 33.4229L39.813 26.5123L48.5236 21.5388L59.8055 25.9888L61.3272 32.9517L56.8145 40.857L43.4861 51.0657L36.9794 41.3805Z" fill="white"/>
<path d="M36.9794 41.3804C35.9299 44.5215 33.4636 50.8562 30.3677 56.4579C40.7575 60.332 46.1098 65.5673 47.3692 66.4573C47.5266 65.9861 49.1533 55.9344 49.5731 54.4685" fill="white"/>
<path d="M36.9794 41.3804C35.9299 44.5215 33.4636 50.8562 30.3677 56.4579C40.7575 60.332 46.1098 65.5673 47.3692 66.4573C47.5266 65.9861 49.1533 55.9344 49.5731 54.4685" stroke="black" stroke-miterlimit="10" stroke-linecap="round" stroke-linejoin="round"/>
<path d="M41.5972 74.1008C48.0515 91.9531 59.6482 98.7066 80.113 105.774L73.9211 117.135C58.4938 115.564 29.1609 107.292 23.1265 79.7026L41.5972 74.1008Z" fill="black" stroke="black" stroke-miterlimit="10" stroke-linecap="round" stroke-linejoin="round"/>
<path d="M61.3794 32.9517C60.8547 48.5004 54.4004 62.1645 42.6987 49.8616Z" fill="white"/>
<path d="M61.3794 32.9517C60.8547 48.5004 54.4004 62.1645 42.6987 49.8616" stroke="black" stroke-miterlimit="10" stroke-linecap="round" stroke-linejoin="round"/>
<path d="M58.9135 41.1187C60.5927 41.3804 62.954 42.3751 62.4292 43.8933C61.957 45.4116 58.9135 44.4169 57.9165 44.1028" fill="white"/>
<path d="M58.9135 41.1187C60.5927 41.3804 62.954 42.3751 62.4292 43.8933C61.957 45.4116 58.9135 44.4169 57.9165 44.1028" stroke="black" stroke-miterlimit="10" stroke-linecap="round" stroke-linejoin="round"/>
<path d="M56.2459 38.3217C56.4633 37.6625 56.2824 37.011 55.8419 36.8664C55.4015 36.7219 54.8682 37.139 54.6509 37.7982C54.4335 38.4573 54.6144 39.1089 55.0548 39.2535C55.4953 39.398 56.0286 38.9809 56.2459 38.3217Z" fill="black"/>
<path d="M45.7951 27.4547C48.2614 28.6065 60.3828 34.2606 65.1054 32.0617C68.3588 30.5959 74.1834 27.6641 72.6617 18.9212C65.4728 24.3135 51.4623 9.39302 43.1189 16.4083C39.5507 19.3924 40.1279 21.8006 39.9705 23.0571C38.8161 22.743 33.1489 23.3712 32.8341 30.3341C32.6242 34.627 34.3558 38.5011 37.032 41.3805C38.0814 38.3964 37.9765 37.2447 37.5567 35.4647C36.7171 31.8523 39.9705 31.067 40.8626 32.7423C41.3873 33.737 41.9645 34.7317 42.6467 34.3653C43.906 33.6323 45.6377 31.067 45.7951 27.4547Z" fill="black" stroke="black" stroke-miterlimit="10" stroke-linecap="round" stroke-linejoin="round"/>
<path d="M52.1444 45.2021C51.8821 47.2439 53.7711 48.291 54.5057 48.3433" stroke="black" stroke-miterlimit="10" stroke-linecap="round" stroke-linejoin="round"/>
<path d="M79.588 107.083C84.2057 106.141 90.0303 106.926 92.654 107.554C95.2777 108.182 96.1172 116.978 95.2252 119.281C94.3856 121.637 75.0753 116.088 74.498 116.035" stroke="black" stroke-miterlimit="10" stroke-linecap="round" stroke-linejoin="round"/>
<path d="M64.8956 28.24C66.5223 29.9153 67.9915 31.4335 72.032 30.4912C70.4053 34.0511 66.1025 36.0405 61.957 34.47C63.059 32.1141 64.3708 29.5488 64.8956 28.24Z" fill="black" stroke="black" stroke-miterlimit="10" stroke-linecap="round" stroke-linejoin="round"/>
<path d="M53.4559 15.8325C56.9717 18.0837 60.6973 19.4972 67.4139 16.199C66.0496 23.1095 59.333 28.3448 51.4619 27.2454C52.4064 22.6384 53.0886 18.2931 53.4559 15.8325Z" fill="black" stroke="black" stroke-miterlimit="10" stroke-linecap="round" stroke-linejoin="round"/>
<path d="M93.4411 40.5952C94.2282 35.6217 90.7649 30.9099 85.7799 30.177C80.7949 29.3917 76.0722 32.847 75.3376 37.8205C74.2357 44.7834 81.3196 59.128 81.3196 59.128L82.579 59.3375L93.4411 40.5952ZM80.2701 38.5534C80.6375 36.3023 82.7364 34.7317 85.0453 35.0982C87.3016 35.4646 88.8758 37.5587 88.5085 39.8623C88.1412 42.1134 86.0423 43.684 83.7334 43.3175C81.477 42.9511 79.9028 40.8046 80.2701 38.5534Z" fill="black" stroke="black" stroke-miterlimit="10" stroke-linecap="round" stroke-linejoin="round"/>
<path d="M83.2613 58.5521C81.8445 55.7774 76.1773 44.3121 76.8595 38.3963C77.3842 33.9987 81.0574 30.7004 85.4652 30.7004C85.78 30.7004 86.1473 30.7004 86.4622 30.7528C88.771 31.0146 90.8175 32.1663 92.2868 33.9987C93.756 35.831 94.3857 38.0822 94.1233 40.3857C93.3887 46.3015 85.3077 56.1962 83.2613 58.5521ZM85.4652 34.7316C83.1039 34.7316 81.1098 36.5116 80.8475 38.8675C80.5326 41.4327 82.3692 43.7363 84.9404 43.998C85.0979 43.998 85.3077 44.0504 85.4652 44.0504C87.8265 44.0504 89.8205 42.2704 90.0829 39.9145C90.3977 37.3492 88.5611 35.0457 85.9899 34.7839C85.8325 34.7839 85.6226 34.7316 85.4652 34.7316Z" fill="white"/>
<path d="M85.4652 31.2239C85.78 31.2239 86.0948 31.2239 86.4097 31.2763C90.9224 31.7998 94.1233 35.831 93.5986 40.3333C92.9689 45.778 85.9374 54.6256 83.3662 57.7144C81.5821 54.1544 76.702 43.8933 77.3317 38.4486C77.804 34.3128 81.2673 31.2239 85.4652 31.2239ZM85.4652 44.5215C88.0888 44.5215 90.2927 42.5845 90.5551 39.9668C90.8699 37.1398 88.8759 34.6269 86.0424 34.3128C85.8325 34.3128 85.6226 34.2604 85.4652 34.2604C82.8415 34.2604 80.6376 36.1975 80.3752 38.8151C80.0603 41.6421 82.0544 44.1551 84.8879 44.4692C85.0454 44.5215 85.2553 44.5215 85.4652 44.5215ZM85.4652 30.2292C80.8475 30.2292 76.9119 33.6845 76.3872 38.3439C75.6001 45.3068 83.2088 59.4421 83.2088 59.4421C83.2088 59.4421 93.8085 47.4533 94.6481 40.438C95.2253 35.4122 91.6046 30.8575 86.5671 30.2816C86.1473 30.2816 85.78 30.2292 85.4652 30.2292ZM85.4652 43.5792C85.3077 43.5792 85.1503 43.5792 84.9929 43.5268C82.684 43.2651 81.0574 41.2233 81.3197 38.9198C81.5821 36.7733 83.3662 35.2551 85.4652 35.2551C85.6226 35.2551 85.78 35.2551 85.9374 35.3075C88.2463 35.5692 89.8729 37.611 89.6106 39.9145C89.3482 42.0086 87.5641 43.5792 85.4652 43.5792Z" fill="black"/>
<path d="M116.32 115.669H61.957V120.224H116.32V115.669Z" fill="black" stroke="black" stroke-miterlimit="10" stroke-linecap="round" stroke-linejoin="round"/>
<path d="M116.32 116.297H83.2612L96.0648 76.5093H129.176L116.32 116.297Z" fill="black" stroke="black" stroke-miterlimit="10" stroke-linecap="round" stroke-linejoin="round"/>
<path d="M64.9477 98.4974C62.5339 83.4721 57.9686 72.5304 54.5054 66.824" stroke="white" stroke-miterlimit="10" stroke-linecap="round" stroke-linejoin="round"/>
<path d="M42.8564 73.5774C49.3107 91.4297 60.9074 98.1832 81.3722 105.251" stroke="white" stroke-miterlimit="10" stroke-linecap="round" stroke-linejoin="round"/>
<path d="M21.7617 80.9067C27.7962 108.549 58.4934 115.512 73.9206 117.135L79.5878 107.135" stroke="white" stroke-miterlimit="10" stroke-linecap="round" stroke-linejoin="round"/>
<path d="M77.6464 231.84C74.7604 231.944 72.0842 234.038 71.2446 236.761" stroke="black" stroke-miterlimit="10" stroke-linecap="round" stroke-linejoin="round"/>
<path d="M72.714 229.274C70.0378 229.85 67.729 231.84 66.8369 234.353" stroke="black" stroke-miterlimit="10" stroke-linecap="round" stroke-linejoin="round"/>
<path d="M108.344 90.3826C105.038 90.3826 101.889 93.0526 101.417 96.4031C100.892 99.7014 103.201 102.424 106.507 102.424C109.813 102.424 112.961 99.7537 113.434 96.4031C113.958 93.1049 111.702 90.3826 108.344 90.3826ZM109.656 99.9631C110.443 99.2825 111.02 98.2878 111.177 97.2408C111.492 95.0943 110.023 93.3143 107.871 93.3143C106.665 93.3143 106.822 91.9008 108.081 91.9008C110.548 91.9008 112.279 93.8902 111.912 96.4031C111.702 97.8167 110.862 99.1255 109.656 99.9631Z" fill="white"/>
<path d="M104.513 51.851L105.878 50.8039L107.872 53.4216L123.351 41.5898L124.506 43.1081L107.662 55.9345L104.513 51.851Z" fill="black" stroke="black" stroke-miterlimit="10" stroke-linecap="round" stroke-linejoin="round"/>
<path d="M111.073 52.165L107.714 47.7673" stroke="black" stroke-miterlimit="10" stroke-linecap="round" stroke-linejoin="round"/>
<path d="M108.425 47.2156L107.048 48.2634L110.39 52.6341L111.766 51.5863L108.425 47.2156Z" fill="black" stroke="black" stroke-miterlimit="10" stroke-linecap="round" stroke-linejoin="round"/>
<path d="M122.25 31.3812L122.722 31.0147C125.45 28.9206 129.543 29.7059 131.852 32.7424L135.316 37.2971C137.624 40.3335 137.31 44.4694 134.581 46.5635L134.109 46.93C131.38 49.0241 127.287 48.2388 124.978 45.2023L121.515 40.6476C119.154 37.6112 119.521 33.4753 122.25 31.3812ZM133.426 44.9929C135.42 43.4747 135.63 40.4906 133.951 38.2918L130.488 33.7371C128.809 31.5383 125.818 30.9624 123.876 32.4806L123.404 32.8471C121.41 34.3653 121.2 37.3494 122.879 39.5482L126.342 44.1029C128.022 46.3017 131.013 46.8776 132.954 45.3594L133.426 44.9929Z" fill="black" stroke="black" stroke-miterlimit="10" stroke-linecap="round" stroke-linejoin="round"/>
<path d="M150.585 67.452L149.693 67.1379L150.27 65.4626L140.09 62.112L140.405 61.1697L151.477 64.782L150.585 67.452Z" fill="black" stroke="black" stroke-miterlimit="10" stroke-linecap="round" stroke-linejoin="round"/>
<path d="M148.696 64.4158L147.751 67.2952" stroke="black" stroke-miterlimit="10" stroke-linecap="round" stroke-linejoin="round"/>
<path d="M148.236 64.2499L147.285 67.1343L148.182 67.4288L149.133 64.5444L148.236 64.2499Z" fill="black" stroke="black" stroke-miterlimit="10" stroke-linecap="round" stroke-linejoin="round"/>
<path d="M135.787 65.8291L135.473 65.7244C133.688 65.1486 132.744 63.0544 133.426 61.065L134.423 58.0809C135.053 56.0915 137.047 54.9921 138.831 55.568L139.146 55.6727C140.93 56.2486 141.874 58.3427 141.192 60.3321L140.195 63.3162C139.565 65.2533 137.571 66.405 135.787 65.8291ZM138.516 56.5103C137.204 56.0915 135.787 56.9292 135.315 58.3427L134.318 61.3268C133.846 62.7403 134.528 64.2586 135.787 64.6774L136.102 64.7821C137.414 65.2009 138.831 64.3633 139.303 62.9497L140.3 59.9656C140.772 58.5521 140.09 57.0339 138.831 56.6151L138.516 56.5103Z" fill="black" stroke="black" stroke-miterlimit="10" stroke-linecap="round" stroke-linejoin="round"/>
</svg>
